<svg width="32" height="32" viewBox="0 0 32 32" fill="none" xmlns="http://www.w3.org/2000/svg">
<path d="M28 16.7999C28.2122 16.7999 28.4157 16.7156 28.5657 16.5656C28.7158 16.4155 28.8 16.2121 28.8 15.9999C28.8 15.7877 28.7158 15.5842 28.5657 15.4342C28.4157 15.2842 28.2122 15.1999 28 15.1999H18.4C18.1879 15.1999 17.9844 15.2842 17.8344 15.4342C17.6843 15.5842 17.6 15.7877 17.6 15.9999C17.6 16.2121 17.6843 16.4155 17.8344 16.5656C17.9844 16.7156 18.1879 16.7999 18.4 16.7999H28ZM25.6 21.9887C25.6525 21.8976 25.6864 21.7971 25.7 21.6929C25.7136 21.5887 25.7065 21.4828 25.6792 21.3813C25.624 21.1764 25.4896 21.0018 25.3056 20.8959C25.1217 20.79 24.9032 20.7616 24.6983 20.8168C24.4933 20.872 24.3187 21.0063 24.2128 21.1903C23.0702 23.1747 21.3046 24.7265 19.1899 25.6049C17.0752 26.4834 14.7297 26.6393 12.5174 26.0486C10.305 25.4579 8.34943 24.1536 6.95409 22.3379C5.55874 20.5223 4.80163 18.2969 4.80022 16.007C4.79881 13.7172 5.55318 11.4909 6.94629 9.6735C8.33939 7.85615 10.2933 6.54939 12.505 5.95595C14.7166 5.36252 17.0623 5.51559 19.178 6.39143C21.2938 7.26727 23.0613 8.8169 24.2064 10.7999C24.2586 10.8916 24.3284 10.9721 24.4117 11.0367C24.4951 11.1014 24.5905 11.1489 24.6923 11.1765C24.7941 11.2042 24.9004 11.2114 25.005 11.1978C25.1096 11.1842 25.2105 11.1501 25.3019 11.0973C25.3933 11.0445 25.4733 10.9742 25.5374 10.8904C25.6015 10.8066 25.6484 10.711 25.6753 10.609C25.7023 10.507 25.7088 10.4006 25.6945 10.2961C25.6802 10.1916 25.6454 10.0909 25.592 9.99989C24.2707 7.71188 22.2311 5.92393 19.7898 4.91346C17.3485 3.90299 14.6419 3.72649 12.0901 4.41135C9.53821 5.09621 7.28371 6.60413 5.67638 8.70116C4.06905 10.7982 3.19875 13.3671 3.20052 16.0092C3.20228 18.6514 4.07601 21.2191 5.68613 23.314C7.29626 25.4089 9.55277 26.9138 12.1055 27.5952C14.6583 28.2767 17.3646 28.0966 19.8046 27.0829C22.2445 26.0691 24.2817 24.2785 25.6 21.9887Z" fill="#DBD3EB"/>
</svg>
