<svg width="32" height="32" viewBox="0 0 32 32" fill="none" xmlns="http://www.w3.org/2000/svg">
<path d="M19.9199 25.6032C19.7363 26.5074 19.2457 27.3203 18.5313 27.9043C17.8169 28.4882 16.9226 28.8072 15.9999 28.8072C15.0772 28.8072 14.1829 28.4882 13.4685 27.9043C12.7541 27.3203 12.2635 26.5074 12.0799 25.6032H19.9199ZM15.9967 3.19995C21.0351 3.19995 25.1871 6.93595 25.5711 11.768L25.5919 12.1248L25.5999 12.4832L25.5983 18.2528L27.1247 22.392L27.1647 22.528L27.1903 22.6656L27.1983 22.808C27.1983 23.312 26.8847 23.752 26.3631 23.9392L26.1807 23.992L25.9983 24.008H6.00152C5.86003 24.0075 5.71974 23.9821 5.58712 23.9328C5.12792 23.7648 4.82552 23.3376 4.81592 22.7872L4.82232 22.6L4.87672 22.392L6.39672 18.2576L6.39992 12.4688L6.40632 12.1088C6.60312 7.12155 10.8335 3.19995 15.9967 3.19995Z" fill="#DBD3EB"/>
</svg>
