<svg width="32" height="32" viewBox="0 0 32 32" fill="none" xmlns="http://www.w3.org/2000/svg">
<path d="M17.6032 3.82079C17.1627 3.425 16.5914 3.20605 15.9993 3.20605C15.4071 3.20605 14.8358 3.425 14.3952 3.82079L5.59525 11.728C5.34505 11.953 5.14495 12.2281 5.00796 12.5354C4.87096 12.8428 4.80013 13.1755 4.80005 13.512V24.8C4.80005 25.4365 5.05291 26.047 5.50299 26.497C5.95308 26.9471 6.56353 27.2 7.20005 27.2H10.4C11.0366 27.2 11.647 26.9471 12.0971 26.497C12.5472 26.047 12.8 25.4365 12.8 24.8V18.4C12.8 18.1878 12.8843 17.9843 13.0344 17.8343C13.1844 17.6843 13.3879 17.6 13.6 17.6H18.4001C18.6122 17.6 18.8157 17.6843 18.9657 17.8343C19.1158 17.9843 19.2001 18.1878 19.2001 18.4V24.8C19.2001 25.4365 19.4529 26.047 19.903 26.497C20.3531 26.9471 20.9635 27.2 21.6 27.2H24.8001C25.4366 27.2 26.047 26.9471 26.4971 26.497C26.9472 26.047 27.2001 25.4365 27.2001 24.8V13.512C27.2 13.1755 27.1291 12.8428 26.9921 12.5354C26.8551 12.2281 26.6551 11.953 26.4049 11.728L17.6049 3.82079H17.6032Z" fill="#BF13BF"/>
</svg>
