<svg width="13" height="13" viewBox="0 0 13 13" fill="none" xmlns="http://www.w3.org/2000/svg">
<path d="M6.02564 1.00452C8.79914 1.00452 11.0474 3.25275 11.0474 6.02625C11.0474 8.79975 8.79914 11.048 6.02564 11.048C3.25214 11.048 1.00391 8.79975 1.00391 6.02625C1.00391 3.25275 3.25214 1.00452 6.02564 1.00452ZM7.64264 4.50466L5.39792 6.74938L4.40864 5.7601C4.33724 5.69357 4.24281 5.65735 4.14524 5.65907C4.04767 5.66079 3.95457 5.70032 3.88557 5.76933C3.81656 5.83833 3.77703 5.93143 3.77531 6.029C3.77359 6.12657 3.80981 6.221 3.87634 6.2924L5.13177 7.54783C5.20239 7.61836 5.29811 7.65798 5.39792 7.65798C5.49773 7.65798 5.59345 7.61836 5.66407 7.54783L8.17494 5.03697C8.21194 5.00249 8.24162 4.96091 8.26221 4.91471C8.28279 4.86851 8.29386 4.81863 8.29475 4.76806C8.29565 4.71749 8.28634 4.66726 8.2674 4.62037C8.24846 4.57347 8.22026 4.53087 8.1845 4.4951C8.14874 4.45934 8.10613 4.43114 8.05924 4.4122C8.01234 4.39326 7.96211 4.38396 7.91154 4.38485C7.86097 4.38574 7.8111 4.39681 7.7649 4.4174C7.7187 4.43798 7.67712 4.46766 7.64264 4.50466Z" fill="white"/>
</svg>
