<svg width="20" height="20" viewBox="0 0 20 20" fill="none" xmlns="http://www.w3.org/2000/svg">
<path d="M17.5248 2.47497C18.084 3.03414 18.3981 3.79253 18.3981 4.5833C18.3981 5.37408 18.084 6.13247 17.5248 6.69164L7.55148 16.6666C7.32077 16.8975 7.03381 17.0641 6.71898 17.15L2.45564 18.3125C2.34938 18.3413 2.2374 18.3415 2.13101 18.3132C2.02463 18.2848 1.92762 18.2289 1.84981 18.151C1.772 18.0731 1.71615 17.976 1.68791 17.8696C1.65966 17.7632 1.66003 17.6512 1.68898 17.545L2.85148 13.2816C2.93739 12.9668 3.10399 12.6798 3.33481 12.4491L13.3081 2.47497C13.8673 1.91581 14.6257 1.60168 15.4165 1.60168C16.2072 1.60168 16.9656 1.91581 17.5248 2.47497ZM12.4998 5.04997L4.21814 13.3333C4.1413 13.4102 4.08587 13.5059 4.05731 13.6108L3.18231 16.8191L6.39064 15.9441C6.49514 15.9148 6.5902 15.8588 6.66648 15.7816L14.9498 7.49997L12.4998 5.04997ZM14.1915 3.3583L13.3831 4.16664L15.8331 6.61664L16.6415 5.8083C16.961 5.4823 17.1389 5.04338 17.1366 4.58693C17.1343 4.13048 16.9519 3.69338 16.6292 3.37062C16.3064 3.04785 15.8693 2.86551 15.4129 2.8632C14.9564 2.8609 14.5175 3.03882 14.1915 3.3583Z" fill="#333333"/>
</svg>
