<svg width="24" height="24" viewBox="0 0 24 24" fill="none" xmlns="http://www.w3.org/2000/svg">
<path d="M13.5215 20.154C13.347 20.3121 13.1176 20.3955 12.8824 20.3863C12.6471 20.3772 12.4248 20.2762 12.2632 20.1051C12.1015 19.934 12.0133 19.7064 12.0175 19.471C12.0216 19.2356 12.1179 19.0113 12.2855 18.846L18.5723 12.9H3.30352C3.06483 12.9 2.83591 12.8052 2.66712 12.6364C2.49834 12.4676 2.40352 12.2387 2.40352 12C2.40352 11.7613 2.49834 11.5324 2.66712 11.3636C2.83591 11.1948 3.06483 11.1 3.30352 11.1H18.5747L12.2855 5.15163C12.1967 5.07121 12.1249 4.97388 12.0742 4.86534C12.0236 4.7568 11.9951 4.63923 11.9904 4.51954C11.9858 4.39984 12.005 4.28042 12.0471 4.16828C12.0892 4.05613 12.1533 3.95352 12.2356 3.86646C12.3179 3.77939 12.4167 3.70963 12.5263 3.66125C12.6358 3.61288 12.754 3.58686 12.8738 3.58474C12.9935 3.58261 13.1125 3.60441 13.2237 3.64887C13.335 3.69332 13.4362 3.75954 13.5215 3.84363L21.2231 11.1276C21.4147 11.3082 21.5413 11.5469 21.5831 11.8068C21.6114 11.937 21.6106 12.0718 21.5807 12.2016C21.5375 12.4578 21.412 12.6929 21.2231 12.8712L13.5215 20.1552V20.154Z" fill="white"/>
</svg>
