<svg width="24" height="24" viewBox="0 0 24 24" fill="none" xmlns="http://www.w3.org/2000/svg">
<path d="M3.91126 13.9224C4.72966 9.9924 8.15086 7.2 11.9993 7.2C15.8465 7.2 19.2677 9.9924 20.0873 13.9224C20.1197 14.0783 20.2128 14.215 20.346 14.3023C20.4793 14.3896 20.6417 14.4205 20.7977 14.388C20.9536 14.3555 21.0903 14.2625 21.1776 14.1292C21.2649 13.996 21.2957 13.8335 21.2633 13.6776C20.3309 9.2076 16.4309 6 11.9993 6C7.56766 6 3.66766 9.2076 2.73526 13.6776C2.7028 13.8335 2.73362 13.996 2.82093 14.1292C2.90825 14.2625 3.04492 14.3555 3.20086 14.388C3.35681 14.4205 3.51927 14.3896 3.65249 14.3023C3.78572 14.215 3.8788 14.0783 3.91126 13.9224ZM11.9993 9.6C10.8854 9.6 9.81707 10.0425 9.02942 10.8302C8.24176 11.6178 7.79926 12.6861 7.79926 13.8C7.79926 14.9139 8.24176 15.9822 9.02942 16.7698C9.81707 17.5575 10.8854 18 11.9993 18C13.1132 18 14.1815 17.5575 14.9691 16.7698C15.7568 15.9822 16.1993 14.9139 16.1993 13.8C16.1993 12.6861 15.7568 11.6178 14.9691 10.8302C14.1815 10.0425 13.1132 9.6 11.9993 9.6ZM8.99926 13.8C8.99926 13.0044 9.31533 12.2413 9.87794 11.6787C10.4406 11.1161 11.2036 10.8 11.9993 10.8C12.7949 10.8 13.558 11.1161 14.1206 11.6787C14.6832 12.2413 14.9993 13.0044 14.9993 13.8C14.9993 14.5956 14.6832 15.3587 14.1206 15.9213C13.558 16.4839 12.7949 16.8 11.9993 16.8C11.2036 16.8 10.4406 16.4839 9.87794 15.9213C9.31533 15.3587 8.99926 14.5956 8.99926 13.8Z" fill="#333333"/>
</svg>
