<svg width="24" height="24" viewBox="0 0 24 24" fill="none" xmlns="http://www.w3.org/2000/svg">
<path d="M13.5216 20.154C13.3471 20.3121 13.1177 20.3955 12.8824 20.3863C12.6472 20.3772 12.4249 20.2762 12.2632 20.1051C12.1015 19.934 12.0133 19.7064 12.0175 19.471C12.0217 19.2356 12.1179 19.0113 12.2856 18.846L18.5724 12.9H3.30358C3.06489 12.9 2.83597 12.8052 2.66718 12.6364C2.4984 12.4676 2.40358 12.2387 2.40358 12C2.40358 11.7613 2.4984 11.5324 2.66718 11.3636C2.83597 11.1948 3.06489 11.1 3.30358 11.1H18.5748L12.2856 5.15163C12.1968 5.07121 12.125 4.97388 12.0743 4.86534C12.0236 4.7568 11.9951 4.63923 11.9905 4.51954C11.9858 4.39984 12.0051 4.28042 12.0472 4.16828C12.0893 4.05613 12.1534 3.95352 12.2356 3.86646C12.3179 3.77939 12.4167 3.70963 12.5263 3.66125C12.6359 3.61288 12.754 3.58686 12.8738 3.58474C12.9936 3.58261 13.1126 3.60441 13.2238 3.64887C13.335 3.69332 13.4363 3.75954 13.5216 3.84363L21.2232 11.1276C21.4148 11.3082 21.5413 11.5469 21.5832 11.8068C21.6115 11.937 21.6107 12.0718 21.5808 12.2016C21.5376 12.4578 21.412 12.6929 21.2232 12.8712L13.5216 20.1552V20.154Z" fill="white"/>
</svg>
