<svg width="24" height="24" viewBox="0 0 24 24" fill="none" xmlns="http://www.w3.org/2000/svg">
<path d="M4.90668 5.05908L4.97508 4.97508C5.07451 4.87587 5.20559 4.81468 5.34549 4.80219C5.48539 4.78969 5.62524 4.82667 5.74068 4.90668L5.82468 4.97508L11.9999 11.1515L18.1751 4.97508C18.2745 4.87587 18.4056 4.81468 18.5455 4.80219C18.6854 4.78969 18.8252 4.82667 18.9407 4.90668L19.0247 4.97508C19.1239 5.07451 19.1851 5.20559 19.1976 5.34549C19.2101 5.48539 19.1731 5.62524 19.0931 5.74068L19.0247 5.82468L12.8483 11.9999L19.0247 18.1751C19.1239 18.2745 19.1851 18.4056 19.1976 18.5455C19.2101 18.6854 19.1731 18.8252 19.0931 18.9407L19.0247 19.0247C18.9253 19.1239 18.7942 19.1851 18.6543 19.1976C18.5144 19.2101 18.3745 19.1731 18.2591 19.0931L18.1751 19.0247L11.9999 12.8483L5.82468 19.0247C5.72525 19.1239 5.59417 19.1851 5.45427 19.1976C5.31437 19.2101 5.17452 19.1731 5.05908 19.0931L4.97508 19.0247C4.87587 18.9253 4.81468 18.7942 4.80219 18.6543C4.78969 18.5144 4.82667 18.3745 4.90668 18.2591L4.97508 18.1751L11.1515 11.9999L4.97508 5.82468C4.87587 5.72525 4.81468 5.59417 4.80219 5.45427C4.78969 5.31437 4.82667 5.17452 4.90668 5.05908L4.97508 4.97508L4.90668 5.05908Z" fill="#333333"/>
</svg>
