<svg width="48" height="48" viewBox="0 0 48 48" fill="none" xmlns="http://www.w3.org/2000/svg">
<path d="M25.1998 6.60005C25.1998 6.12266 25.0102 5.66482 24.6726 5.32726C24.335 4.98969 23.8772 4.80005 23.3998 4.80005C22.9224 4.80005 22.4646 4.98969 22.127 5.32726C21.7895 5.66482 21.5998 6.12266 21.5998 6.60005V21.6001H6.59981C6.12242 21.6001 5.66458 21.7897 5.32701 22.1273C4.98945 22.4648 4.7998 22.9227 4.7998 23.4001C4.7998 23.8774 4.98945 24.3353 5.32701 24.6728C5.66458 25.0104 6.12242 25.2001 6.59981 25.2001H21.5998V40.2001C21.5998 40.6774 21.7895 41.1353 22.127 41.4729C22.4646 41.8104 22.9224 42.0001 23.3998 42.0001C23.8772 42.0001 24.335 41.8104 24.6726 41.4729C25.0102 41.1353 25.1998 40.6774 25.1998 40.2001V25.2001H40.1998C40.6772 25.2001 41.135 25.0104 41.4726 24.6728C41.8102 24.3353 41.9998 23.8774 41.9998 23.4001C41.9998 22.9227 41.8102 22.4648 41.4726 22.1273C41.135 21.7897 40.6772 21.6001 40.1998 21.6001H25.1998V6.60005Z" fill="#BF13BF"/>
</svg>
