<svg width="20" height="20" viewBox="0 0 20 20" fill="none" xmlns="http://www.w3.org/2000/svg">
<path d="M11.5 8.99999C11.5002 9.31031 11.4041 9.61305 11.225 9.86648C11.0459 10.1199 10.7926 10.3115 10.5 10.415V12.5C10.5 12.6326 10.4473 12.7598 10.3536 12.8535C10.2598 12.9473 10.1326 13 10 13C9.86739 13 9.74021 12.9473 9.64645 12.8535C9.55268 12.7598 9.5 12.6326 9.5 12.5V10.415C9.24076 10.3233 9.0117 10.1622 8.83786 9.94915C8.66401 9.73612 8.55206 9.4794 8.51425 9.20704C8.47644 8.93469 8.51422 8.65719 8.62345 8.40485C8.73269 8.15252 8.90919 7.93506 9.13365 7.77625C9.35812 7.61744 9.62192 7.52339 9.89623 7.50437C10.1705 7.48534 10.4448 7.54208 10.689 7.66839C10.9333 7.7947 11.1381 7.98571 11.2811 8.22055C11.4241 8.45539 11.4999 8.72502 11.5 8.99999ZM10.277 2.08399C10.1949 2.02938 10.0986 2.00024 10 2.00024C9.90143 2.00024 9.80506 2.02938 9.723 2.08399C7.83513 3.35668 5.68312 4.18446 3.429 4.50499C3.3099 4.52207 3.20096 4.58153 3.12216 4.67245C3.04336 4.76338 2.99998 4.87967 3 4.99999V9.49999C3 13.391 5.307 16.23 9.82 17.967C9.93584 18.0117 10.0642 18.0117 10.18 17.967C14.693 16.23 17 13.39 17 9.49999V4.99999C17 4.87952 16.9565 4.76311 16.8775 4.67216C16.7985 4.58122 16.6893 4.52185 16.57 4.50499C14.3162 4.18431 12.1646 3.35654 10.277 2.08399ZM4 5.42799C5.98102 5.09246 7.88094 4.3861 9.6 3.34599L10 3.09699L10.4 3.34599C12.1191 4.3861 14.019 5.09246 16 5.42799V9.49999C16 12.892 14.032 15.363 10 16.963C5.968 15.363 4 12.892 4 9.49999V5.42799Z" fill="#333333"/>
</svg>
