<svg width="32" height="32" viewBox="0 0 32 32" fill="none" xmlns="http://www.w3.org/2000/svg">
<path d="M4.80078 7.20005C4.80078 6.56353 5.05364 5.95308 5.50373 5.50299C5.95381 5.05291 6.56426 4.80005 7.20078 4.80005H23.2008C23.8373 4.80005 24.4478 5.05291 24.8978 5.50299C25.3479 5.95308 25.6008 6.56353 25.6008 7.20005V8.13605C26.0689 8.30156 26.4742 8.60818 26.7607 9.01366C27.0473 9.41915 27.201 9.90353 27.2008 10.4V24.8001C27.2008 25.4366 26.9479 26.047 26.4978 26.4971C26.0478 26.9472 25.4373 27.2001 24.8008 27.2001H8.80078C7.73992 27.2001 6.7225 26.7786 5.97235 26.0285C5.22221 25.2783 4.80078 24.2609 4.80078 23.2001V7.20005ZM6.40078 7.20005C6.40078 7.41222 6.48507 7.61571 6.6351 7.76573C6.78513 7.91576 6.98861 8.00005 7.20078 8.00005H24.0008V7.20005C24.0008 6.98788 23.9165 6.78439 23.7665 6.63436C23.6164 6.48433 23.413 6.40005 23.2008 6.40005H7.20078C6.98861 6.40005 6.78513 6.48433 6.6351 6.63436C6.48507 6.78439 6.40078 6.98788 6.40078 7.20005ZM23.2008 17.6H21.6008C21.3886 17.6 21.1851 17.6843 21.0351 17.8344C20.8851 17.9844 20.8008 18.1879 20.8008 18.4001C20.8008 18.6122 20.8851 18.8157 21.0351 18.9657C21.1851 19.1158 21.3886 19.2001 21.6008 19.2001H23.2008C23.413 19.2001 23.6164 19.1158 23.7665 18.9657C23.9165 18.8157 24.0008 18.6122 24.0008 18.4001C24.0008 18.1879 23.9165 17.9844 23.7665 17.8344C23.6164 17.6843 23.413 17.6 23.2008 17.6Z" fill="#DBD3EB"/>
</svg>
