<svg width="32" height="32" viewBox="0 0 32 32" fill="none" xmlns="http://www.w3.org/2000/svg">
<path d="M26.756 8.25682C26.8954 8.37144 27.0076 8.51558 27.0845 8.67883C27.1614 8.84208 27.2011 9.02036 27.2008 9.20082C27.2017 9.3578 27.171 9.51336 27.1105 9.65822C27.0501 9.80308 26.9611 9.93429 26.8488 10.044L22.036 14.8504C21.811 15.0751 21.506 15.2014 21.188 15.2014C20.87 15.2014 20.565 15.0751 20.34 14.8504C20.2283 14.7392 20.1398 14.6071 20.0793 14.4616C20.0188 14.316 19.9877 14.16 19.9877 14.0024C19.9877 13.8448 20.0188 13.6888 20.0793 13.5433C20.1398 13.3978 20.2283 13.2656 20.34 13.1544L23.1112 10.4008H6.0008C5.68254 10.4008 5.37732 10.2744 5.15227 10.0494C4.92723 9.82431 4.8008 9.51908 4.8008 9.20082C4.8008 8.88256 4.92723 8.57734 5.15227 8.35229C5.37732 8.12725 5.68254 8.00082 6.0008 8.00082H23.0952L20.3464 5.24562C20.235 5.13445 20.1466 5.0024 20.0863 4.85703C20.026 4.71165 19.9949 4.55581 19.9949 4.39842C19.9949 4.24103 20.026 4.08519 20.0863 3.93981C20.1466 3.79444 20.235 3.66239 20.3464 3.55122C20.5714 3.3265 20.8764 3.20028 21.1944 3.20028C21.5124 3.20028 21.8174 3.3265 22.0424 3.55122L26.756 8.25842V8.25682ZM5.2456 21.8568C5.10622 21.9715 4.99402 22.1156 4.9171 22.2788C4.84018 22.4421 4.80046 22.6204 4.8008 22.8008C4.79989 22.9578 4.83058 23.1134 4.89105 23.2582C4.95153 23.4031 5.04055 23.5343 5.1528 23.644L9.9656 28.4488C10.1906 28.6736 10.4956 28.7998 10.8136 28.7998C11.1316 28.7998 11.4366 28.6736 11.6616 28.4488C11.7733 28.3376 11.8619 28.2055 11.9223 28.06C11.9828 27.9144 12.0139 27.7584 12.0139 27.6008C12.0139 27.4433 11.9828 27.2872 11.9223 27.1417C11.8619 26.9962 11.7733 26.864 11.6616 26.7528L8.892 24.0008H26.0008C26.3191 24.0008 26.6243 23.8744 26.8493 23.6494C27.0744 23.4243 27.2008 23.1191 27.2008 22.8008C27.2008 22.4826 27.0744 22.1773 26.8493 21.9523C26.6243 21.7273 26.3191 21.6008 26.0008 21.6008H8.9064L11.6552 18.8456C11.7666 18.7345 11.855 18.6024 11.9153 18.457C11.9756 18.3117 12.0067 18.1558 12.0067 17.9984C12.0067 17.841 11.9756 17.6852 11.9153 17.5398C11.855 17.3944 11.7666 17.2624 11.6552 17.1512C11.4302 16.9265 11.1252 16.8003 10.8072 16.8003C10.4892 16.8003 10.1842 16.9265 9.9592 17.1512L5.244 21.8584L5.2456 21.8568Z" fill="#BF13BF"/>
</svg>
