<svg width="24" height="24" viewBox="0 0 24 24" fill="none" xmlns="http://www.w3.org/2000/svg">
<path d="M11.9999 2.39999C14.546 2.39999 16.9878 3.41142 18.7881 5.21177C20.5885 7.01212 21.5999 9.45392 21.5999 12C21.5999 14.5461 20.5885 16.9879 18.7881 18.7882C16.9878 20.5886 14.546 21.6 11.9999 21.6C9.45382 21.6 7.01203 20.5886 5.21168 18.7882C3.41133 16.9879 2.3999 14.5461 2.3999 12C2.3999 9.45392 3.41133 7.01212 5.21168 5.21177C7.01203 3.41142 9.45382 2.39999 11.9999 2.39999ZM11.9999 15C11.7612 15 11.5323 15.0948 11.3635 15.2636C11.1947 15.4324 11.0999 15.6613 11.0999 15.9C11.0999 16.1387 11.1947 16.3676 11.3635 16.5364C11.5323 16.7052 11.7612 16.8 11.9999 16.8C12.2386 16.8 12.4675 16.7052 12.6363 16.5364C12.8051 16.3676 12.8999 16.1387 12.8999 15.9C12.8999 15.6613 12.8051 15.4324 12.6363 15.2636C12.4675 15.0948 12.2386 15 11.9999 15ZM11.9999 7.19999C11.8595 7.19995 11.7235 7.24916 11.6156 7.33906C11.5077 7.42896 11.4348 7.55386 11.4095 7.69199L11.3999 7.79999V13.2L11.4095 13.308C11.4346 13.4463 11.5074 13.5715 11.6153 13.6616C11.7232 13.7517 11.8593 13.8011 11.9999 13.8011C12.1405 13.8011 12.2766 13.7517 12.3845 13.6616C12.4924 13.5715 12.5653 13.4463 12.5903 13.308L12.5999 13.2V7.79999L12.5903 7.69199C12.565 7.55386 12.4921 7.42896 12.3842 7.33906C12.2763 7.24916 12.1403 7.19995 11.9999 7.19999Z" fill="#CC1414"/>
</svg>
