<svg width="32" height="32" viewBox="0 0 32 32" fill="none" xmlns="http://www.w3.org/2000/svg">
<path d="M4.7998 7.2C4.7998 6.56348 5.05266 5.95303 5.50275 5.50295C5.95284 5.05286 6.56329 4.8 7.1998 4.8H23.1998C23.8363 4.8 24.4468 5.05286 24.8969 5.50295C25.347 5.95303 25.5998 6.56348 25.5998 7.2V8.136C26.0679 8.30151 26.4732 8.60813 26.7598 9.01362C27.0463 9.4191 27.2001 9.90348 27.1998 10.4V24.8C27.1998 25.4365 26.9469 26.047 26.4969 26.4971C26.0468 26.9471 25.4363 27.2 24.7998 27.2H8.79981C7.73894 27.2 6.72152 26.7786 5.97138 26.0284C5.22123 25.2783 4.7998 24.2609 4.7998 23.2V7.2ZM6.3998 7.2C6.3998 7.41218 6.48409 7.61566 6.63412 7.76569C6.78415 7.91572 6.98763 8 7.1998 8H23.9998V7.2C23.9998 6.98783 23.9155 6.78435 23.7655 6.63432C23.6155 6.48429 23.412 6.4 23.1998 6.4H7.1998C6.98763 6.4 6.78415 6.48429 6.63412 6.63432C6.48409 6.78435 6.3998 6.98783 6.3998 7.2ZM23.1998 17.6H21.5998C21.3876 17.6 21.1841 17.6843 21.0341 17.8343C20.8841 17.9843 20.7998 18.1878 20.7998 18.4C20.7998 18.6122 20.8841 18.8157 21.0341 18.9657C21.1841 19.1157 21.3876 19.2 21.5998 19.2H23.1998C23.412 19.2 23.6155 19.1157 23.7655 18.9657C23.9155 18.8157 23.9998 18.6122 23.9998 18.4C23.9998 18.1878 23.9155 17.9843 23.7655 17.8343C23.6155 17.6843 23.412 17.6 23.1998 17.6Z" fill="#DBD3EB"/>
</svg>
