<svg width="24" height="24" viewBox="0 0 24 24" fill="none" xmlns="http://www.w3.org/2000/svg">
<path d="M3.91224 13.9224C4.73064 9.9924 8.15184 7.2 12.0002 7.2C15.8474 7.2 19.2686 9.9924 20.0882 13.9224C20.1207 14.0783 20.2138 14.215 20.347 14.3023C20.4802 14.3896 20.6427 14.4205 20.7986 14.388C20.9546 14.3555 21.0913 14.2625 21.1786 14.1292C21.2659 13.996 21.2967 13.8335 21.2642 13.6776C20.3318 9.2076 16.4318 6 12.0002 6C7.56864 6 3.66864 9.2076 2.73624 13.6776C2.70378 13.8335 2.73459 13.996 2.82191 14.1292C2.90923 14.2625 3.04589 14.3555 3.20184 14.388C3.35779 14.4205 3.52024 14.3896 3.65347 14.3023C3.78669 14.215 3.87978 14.0783 3.91224 13.9224ZM12.0002 9.6C10.8863 9.6 9.81804 10.0425 9.03039 10.8302C8.24274 11.6178 7.80024 12.6861 7.80024 13.8C7.80024 14.9139 8.24274 15.9822 9.03039 16.7698C9.81804 17.5575 10.8863 18 12.0002 18C13.1142 18 14.1824 17.5575 14.9701 16.7698C15.7577 15.9822 16.2002 14.9139 16.2002 13.8C16.2002 12.6861 15.7577 11.6178 14.9701 10.8302C14.1824 10.0425 13.1142 9.6 12.0002 9.6ZM9.00024 13.8C9.00024 13.0044 9.31631 12.2413 9.87892 11.6787C10.4415 11.1161 11.2046 10.8 12.0002 10.8C12.7959 10.8 13.559 11.1161 14.1216 11.6787C14.6842 12.2413 15.0002 13.0044 15.0002 13.8C15.0002 14.5956 14.6842 15.3587 14.1216 15.9213C13.559 16.4839 12.7959 16.8 12.0002 16.8C11.2046 16.8 10.4415 16.4839 9.87892 15.9213C9.31631 15.3587 9.00024 14.5956 9.00024 13.8Z" fill="#333333"/>
</svg>
