<svg width="24" height="24" viewBox="0 0 24 24" fill="none" xmlns="http://www.w3.org/2000/svg">
<path d="M10.152 2.27645L11.34 2.74445C11.7638 2.91128 12.2351 2.91128 12.6588 2.74445L13.8468 2.27645C14.5462 2.00139 15.325 2.0084 16.0193 2.29601C16.7136 2.58363 17.2693 3.1294 17.5692 3.81845L18.078 4.98845C18.2597 5.406 18.5929 5.73917 19.0104 5.92085L20.1804 6.42965C20.8698 6.72964 21.4158 7.28547 21.7034 7.98005C21.991 8.67463 21.9979 9.45373 21.7224 10.1532L21.2544 11.3412C21.0879 11.7647 21.0879 12.2354 21.2544 12.6588L21.7224 13.8468C21.9975 14.5462 21.9905 15.325 21.7029 16.0193C21.4153 16.7136 20.8695 17.2693 20.1804 17.5692L19.0104 18.078C18.5928 18.2596 18.2596 18.5928 18.078 19.0104L17.5692 20.1804C17.2693 20.8698 16.7134 21.4158 16.0188 21.7034C15.3243 21.991 14.5452 21.9979 13.8456 21.7224L12.6576 21.2544C12.2342 21.0879 11.7635 21.0879 11.34 21.2544L10.152 21.7224C9.45268 21.9975 8.67387 21.9905 7.97957 21.7029C7.28527 21.4153 6.72964 20.8695 6.42965 20.1804L5.92085 19.0104C5.73917 18.5929 5.406 18.2597 4.98845 18.078L3.81845 17.5692C3.12911 17.2693 2.58312 16.7134 2.29549 16.0188C2.00785 15.3243 2.00102 14.5452 2.27645 13.8456L2.74445 12.6576C2.91097 12.2342 2.91097 11.7635 2.74445 11.34L2.27645 10.152C2.00139 9.45268 2.0084 8.67387 2.29601 7.97957C2.58363 7.28527 3.1294 6.72964 3.81845 6.42965L4.98845 5.92085C5.406 5.73917 5.73917 5.406 5.92085 4.98845L6.42965 3.81845C6.72964 3.12911 7.28547 2.58312 7.98005 2.29549C8.67463 2.00785 9.45373 2.00102 10.1532 2.27645H10.152ZM15.1512 9.20045L10.7736 14.1252L8.82365 12.1752C8.71048 12.066 8.55892 12.0055 8.40161 12.0068C8.24429 12.0082 8.0938 12.0713 7.98255 12.1826C7.87131 12.2938 7.80821 12.4443 7.80684 12.6016C7.80547 12.7589 7.86595 12.9105 7.97525 13.0236L10.3752 15.4236C10.433 15.4814 10.502 15.5268 10.5779 15.557C10.6539 15.5872 10.7352 15.6015 10.8169 15.5992C10.8986 15.5968 10.9789 15.5778 11.053 15.5433C11.1271 15.5088 11.1933 15.4595 11.2476 15.3984L16.0476 9.99845C16.1535 9.87958 16.2077 9.72354 16.1985 9.56466C16.1893 9.40578 16.1173 9.25707 15.9984 9.15125C15.8796 9.04542 15.7235 8.99116 15.5647 9.00038C15.4058 9.00961 15.2571 9.08158 15.1512 9.20045Z" fill="#29CC7A"/>
</svg>
