<svg width="32" height="32" viewBox="0 0 32 32" fill="none" xmlns="http://www.w3.org/2000/svg">
<path d="M17.604 3.82079C17.1635 3.425 16.5922 3.20605 16 3.20605C15.4078 3.20605 14.8365 3.425 14.396 3.82079L5.59598 11.728C5.34578 11.953 5.14568 12.2281 5.00869 12.5354C4.87169 12.8428 4.80086 13.1755 4.80078 13.512V24.8C4.80078 25.4365 5.05364 26.047 5.50373 26.497C5.95381 26.9471 6.56426 27.2 7.20078 27.2H10.4008C11.0373 27.2 11.6478 26.9471 12.0978 26.497C12.5479 26.047 12.8008 25.4365 12.8008 24.8V18.4C12.8008 18.1878 12.8851 17.9843 13.0351 17.8343C13.1851 17.6843 13.3886 17.6 13.6008 17.6H18.4008C18.613 17.6 18.8164 17.6843 18.9665 17.8343C19.1165 17.9843 19.2008 18.1878 19.2008 18.4V24.8C19.2008 25.4365 19.4536 26.047 19.9037 26.497C20.3538 26.9471 20.9643 27.2 21.6008 27.2H24.8008C25.4373 27.2 26.0478 26.9471 26.4978 26.497C26.9479 26.047 27.2008 25.4365 27.2008 24.8V13.512C27.2007 13.1755 27.1299 12.8428 26.9929 12.5354C26.8559 12.2281 26.6558 11.953 26.4056 11.728L17.6056 3.82079H17.604Z" fill="#DBD3EB"/>
</svg>
