<svg width="32" height="32" viewBox="0 0 32 32" fill="none" xmlns="http://www.w3.org/2000/svg">
<path d="M4.80005 7.20005C4.80005 6.56353 5.05291 5.95308 5.50299 5.50299C5.95308 5.05291 6.56353 4.80005 7.20005 4.80005H23.2001C23.8366 4.80005 24.447 5.05291 24.8971 5.50299C25.3472 5.95308 25.6 6.56353 25.6 7.20005V8.13605C26.0682 8.30156 26.4734 8.60818 26.76 9.01366C27.0466 9.41915 27.2003 9.90353 27.2001 10.4V24.8001C27.2001 25.4366 26.9472 26.047 26.4971 26.4971C26.047 26.9472 25.4366 27.2001 24.8001 27.2001H8.80005C7.73918 27.2001 6.72177 26.7786 5.97162 26.0285C5.22148 25.2783 4.80005 24.2609 4.80005 23.2001V7.20005ZM6.40005 7.20005C6.40005 7.41222 6.48433 7.61571 6.63436 7.76573C6.78439 7.91576 6.98788 8.00005 7.20005 8.00005H24V7.20005C24 6.98788 23.9158 6.78439 23.7657 6.63436C23.6157 6.48433 23.4122 6.40005 23.2001 6.40005H7.20005C6.98788 6.40005 6.78439 6.48433 6.63436 6.63436C6.48433 6.78439 6.40005 6.98788 6.40005 7.20005ZM23.2001 17.6H21.6C21.3879 17.6 21.1844 17.6843 21.0344 17.8344C20.8843 17.9844 20.8001 18.1879 20.8001 18.4001C20.8001 18.6122 20.8843 18.8157 21.0344 18.9657C21.1844 19.1158 21.3879 19.2001 21.6 19.2001H23.2001C23.4122 19.2001 23.6157 19.1158 23.7657 18.9657C23.9158 18.8157 24 18.6122 24 18.4001C24 18.1879 23.9158 17.9844 23.7657 17.8344C23.6157 17.6843 23.4122 17.6 23.2001 17.6Z" fill="#DBD3EB"/>
</svg>
