<svg width="32" height="32" viewBox="0 0 32 32" fill="none" xmlns="http://www.w3.org/2000/svg">
<path d="M4.7998 7.20005C4.7998 6.56353 5.05266 5.95308 5.50275 5.50299C5.95284 5.05291 6.56329 4.80005 7.1998 4.80005H23.1998C23.8363 4.80005 24.4468 5.05291 24.8969 5.50299C25.347 5.95308 25.5998 6.56353 25.5998 7.20005V8.13605C26.0679 8.30156 26.4732 8.60818 26.7598 9.01366C27.0463 9.41915 27.2001 9.90353 27.1998 10.4V24.8001C27.1998 25.4366 26.9469 26.047 26.4969 26.4971C26.0468 26.9472 25.4363 27.2001 24.7998 27.2001H8.79981C7.73894 27.2001 6.72152 26.7786 5.97138 26.0285C5.22123 25.2783 4.7998 24.2609 4.7998 23.2001V7.20005ZM6.3998 7.20005C6.3998 7.41222 6.48409 7.61571 6.63412 7.76573C6.78415 7.91576 6.98763 8.00005 7.1998 8.00005H23.9998V7.20005C23.9998 6.98788 23.9155 6.78439 23.7655 6.63436C23.6155 6.48433 23.412 6.40005 23.1998 6.40005H7.1998C6.98763 6.40005 6.78415 6.48433 6.63412 6.63436C6.48409 6.78439 6.3998 6.98788 6.3998 7.20005ZM23.1998 17.6H21.5998C21.3876 17.6 21.1841 17.6843 21.0341 17.8344C20.8841 17.9844 20.7998 18.1879 20.7998 18.4001C20.7998 18.6122 20.8841 18.8157 21.0341 18.9657C21.1841 19.1158 21.3876 19.2001 21.5998 19.2001H23.1998C23.412 19.2001 23.6155 19.1158 23.7655 18.9657C23.9155 18.8157 23.9998 18.6122 23.9998 18.4001C23.9998 18.1879 23.9155 17.9844 23.7655 17.8344C23.6155 17.6843 23.412 17.6 23.1998 17.6Z" fill="#DBD3EB"/>
</svg>
