<svg width="20" height="20" viewBox="0 0 20 20" fill="none" xmlns="http://www.w3.org/2000/svg">
<path d="M17 14.5C17 15.163 16.7366 15.7989 16.2678 16.2678C15.7989 16.7366 15.163 17 14.5 17H5.5C4.83696 17 4.20107 16.7366 3.73223 16.2678C3.26339 15.7989 3 15.163 3 14.5V5.5C3 4.83696 3.26339 4.20107 3.73223 3.73223C4.20107 3.26339 4.83696 3 5.5 3H14.5C15.163 3 15.7989 3.26339 16.2678 3.73223C16.7366 4.20107 17 4.83696 17 5.5V14.5ZM16 14.5V5.5C16 5.10218 15.842 4.72064 15.5607 4.43934C15.2794 4.15804 14.8978 4 14.5 4H5.5C5.10218 4 4.72064 4.15804 4.43934 4.43934C4.15804 4.72064 4 5.10218 4 5.5V14.5C4 14.8978 4.15804 15.2794 4.43934 15.5607C4.72064 15.842 5.10218 16 5.5 16H14.5C14.8978 16 15.2794 15.842 15.5607 15.5607C15.842 15.2794 16 14.8978 16 14.5ZM14 6.5C14 6.61703 13.959 6.73036 13.8841 6.82026C13.8092 6.91016 13.7051 6.97094 13.59 6.992L13.5 7H6.5C6.37505 7.00023 6.25455 6.95367 6.16222 6.86949C6.06988 6.78531 6.01241 6.66961 6.00112 6.54518C5.98984 6.42074 6.02554 6.29659 6.10122 6.19717C6.1769 6.09775 6.28705 6.03026 6.41 6.008L6.5 6H13.5C13.6326 6 13.7598 6.05268 13.8536 6.14645C13.9473 6.24021 14 6.36739 14 6.5ZM14 10C14 10.117 13.959 10.2304 13.8841 10.3203C13.8092 10.4102 13.7051 10.4709 13.59 10.492L13.5 10.5H6.5C6.37505 10.5002 6.25455 10.4537 6.16222 10.3695C6.06988 10.2853 6.01241 10.1696 6.00112 10.0452C5.98984 9.92074 6.02554 9.79659 6.10122 9.69717C6.1769 9.59775 6.28705 9.53026 6.41 9.508L6.5 9.5H13.5C13.6326 9.5 13.7598 9.55268 13.8536 9.64645C13.9473 9.74021 14 9.86739 14 10ZM14 13.5C14 13.617 13.959 13.7304 13.8841 13.8203C13.8092 13.9102 13.7051 13.9709 13.59 13.992L13.5 14H6.5C6.37505 14.0002 6.25455 13.9537 6.16222 13.8695C6.06988 13.7853 6.01241 13.6696 6.00112 13.5452C5.98984 13.4207 6.02554 13.2966 6.10122 13.1972C6.1769 13.0977 6.28705 13.0303 6.41 13.008L6.5 13H13.5C13.6326 13 13.7598 13.0527 13.8536 13.1464C13.9473 13.2402 14 13.3674 14 13.5Z" fill="#333333"/>
</svg>
