<svg width="20" height="20" viewBox="0 0 20 20" fill="none" xmlns="http://www.w3.org/2000/svg">
<path d="M10.0001 5.87407C10.2212 5.87407 10.4332 5.78626 10.5895 5.62995C10.7458 5.47363 10.8336 5.26163 10.8336 5.04057C10.8336 4.81952 10.7458 4.60751 10.5895 4.4512C10.4332 4.29489 10.2212 4.20707 10.0001 4.20707C9.77904 4.20707 9.56703 4.29489 9.41072 4.4512C9.25441 4.60751 9.1666 4.81952 9.1666 5.04057C9.1666 5.26163 9.25441 5.47363 9.41072 5.62995C9.56703 5.78626 9.77904 5.87407 10.0001 5.87407ZM16.0001 13.3401V8.00007H16.0921C16.9851 8.00007 17.3521 6.85207 16.6221 6.33507L10.7721 2.18307C10.5466 2.02285 10.2768 1.93677 10.0001 1.93677C9.72344 1.93677 9.45363 2.02285 9.2281 2.18307L3.3761 6.33507C2.6481 6.85207 3.0131 7.99907 3.9061 7.99907H4.0001V13.3391C3.3991 13.7251 3.0001 14.3991 3.0001 15.1661V16.4991C3.0001 16.6317 3.05277 16.7589 3.14654 16.8526C3.24031 16.9464 3.36749 16.9991 3.5001 16.9991H16.5001C16.6327 16.9991 16.7599 16.9464 16.8536 16.8526C16.9474 16.7589 17.0001 16.6317 17.0001 16.4991V15.1661C17.0001 14.3991 16.6021 13.7251 16.0001 13.3401ZM9.8061 2.99907C9.86237 2.95921 9.92963 2.93779 9.9986 2.93779C10.0676 2.93779 10.1348 2.95921 10.1911 2.99907L15.8301 6.99907H4.1681L9.8071 2.99907H9.8061ZM14.9981 7.99907V13.0051C14.9429 13.001 14.8875 12.999 14.8321 12.9991H12.9981V8.00007H14.9981V7.99907ZM5.0001 13.0051V8.00007H7.0001V13.0001H5.1661C5.1101 13.0001 5.0541 13.0021 4.9991 13.0061L5.0001 13.0051ZM5.1671 13.9991H14.8341C15.4781 13.9991 16.0001 14.5211 16.0001 15.1661V15.9991H4.0001V15.1661C4.0001 14.5211 4.5231 13.9991 5.1671 13.9991ZM9.5001 12.9991H8.0001V8.00007H9.5001V13.0001V12.9991ZM10.5001 12.9991V8.00007H12.0001V13.0001H10.5001V12.9991Z" fill="#333333"/>
</svg>
