<svg width="20" height="20" viewBox="0 0 20 20" fill="none" xmlns="http://www.w3.org/2000/svg">
<path d="M17.5248 2.47509C18.084 3.03426 18.3981 3.79265 18.3981 4.58343C18.3981 5.3742 18.084 6.13259 17.5248 6.69176L7.55148 16.6668C7.32077 16.8976 7.03381 17.0642 6.71898 17.1501L2.45564 18.3126C2.34938 18.3414 2.2374 18.3417 2.13101 18.3133C2.02463 18.285 1.92762 18.229 1.84981 18.1511C1.772 18.0732 1.71615 17.9761 1.68791 17.8697C1.65966 17.7633 1.66003 17.6513 1.68898 17.5451L2.85148 13.2818C2.93739 12.9669 3.10399 12.68 3.33481 12.4493L13.3081 2.47509C13.8673 1.91594 14.6257 1.60181 15.4165 1.60181C16.2072 1.60181 16.9656 1.91594 17.5248 2.47509ZM12.4998 5.05009L4.21814 13.3334C4.1413 13.4104 4.08587 13.506 4.05731 13.6109L3.18231 16.8193L6.39064 15.9443C6.49514 15.915 6.5902 15.859 6.66648 15.7818L14.9498 7.50009L12.4998 5.05009ZM14.1915 3.35843L13.3831 4.16676L15.8331 6.61676L16.6415 5.80843C16.961 5.48242 17.1389 5.0435 17.1366 4.58705C17.1343 4.1306 16.9519 3.6935 16.6292 3.37074C16.3064 3.04797 15.8693 2.86563 15.4129 2.86332C14.9564 2.86102 14.5175 3.03894 14.1915 3.35843Z" fill="#333333"/>
</svg>
