<svg width="32" height="32" viewBox="0 0 32 32" fill="none" xmlns="http://www.w3.org/2000/svg">
<path d="M28.0008 16.8001C28.213 16.8001 28.4164 16.7158 28.5665 16.5658C28.7165 16.4158 28.8008 16.2123 28.8008 16.0001C28.8008 15.788 28.7165 15.5845 28.5665 15.4344C28.4164 15.2844 28.213 15.2001 28.0008 15.2001H18.4008C18.1886 15.2001 17.9851 15.2844 17.8351 15.4344C17.6851 15.5845 17.6008 15.788 17.6008 16.0001C17.6008 16.2123 17.6851 16.4158 17.8351 16.5658C17.9851 16.7158 18.1886 16.8001 18.4008 16.8001H28.0008ZM25.6008 21.9889C25.6532 21.8978 25.6872 21.7973 25.7008 21.6931C25.7143 21.5889 25.7072 21.483 25.6799 21.3816C25.6247 21.1766 25.4903 21.002 25.3064 20.8961C25.1224 20.7903 24.9039 20.7618 24.699 20.817C24.4941 20.8722 24.3195 21.0066 24.2136 21.1905C23.0709 23.1749 21.3053 24.7267 19.1906 25.6052C17.0759 26.4836 14.7305 26.6396 12.5181 26.0489C10.3057 25.4582 8.35016 24.1538 6.95482 22.3382C5.55947 20.5225 4.80236 18.2972 4.80095 16.0073C4.79954 13.7174 5.55391 11.4911 6.94702 9.67375C8.34013 7.8564 10.2941 6.54963 12.5057 5.95619C14.7174 5.36276 17.063 5.51584 19.1788 6.39167C21.2945 7.26751 23.0621 8.81714 24.2072 10.8001C24.2593 10.8918 24.3291 10.9723 24.4125 11.037C24.4959 11.1016 24.5912 11.1491 24.693 11.1768C24.7948 11.2044 24.9011 11.2117 25.0057 11.1981C25.1104 11.1845 25.2113 11.1503 25.3026 11.0975C25.394 11.0448 25.474 10.9745 25.5381 10.8907C25.6022 10.8069 25.6491 10.7112 25.6761 10.6092C25.703 10.5072 25.7096 10.4009 25.6953 10.2964C25.681 10.1918 25.6461 10.0911 25.5928 10.0001C24.2714 7.71212 22.2318 5.92418 19.7905 4.91371C17.3492 3.90324 14.6427 3.72674 12.0908 4.4116C9.53894 5.09645 7.28445 6.60438 5.67712 8.7014C4.06978 10.7984 3.19949 13.3673 3.20125 16.0095C3.20301 18.6516 4.07674 21.2194 5.68687 23.3142C7.297 25.4091 9.5535 26.914 12.1063 27.5955C14.659 28.2769 17.3654 28.0968 19.8053 27.0831C22.2453 26.0694 24.2825 24.2787 25.6008 21.9889Z" fill="#DBD3EB"/>
</svg>
