<svg width="24" height="24" viewBox="0 0 24 24" fill="none" xmlns="http://www.w3.org/2000/svg">
<path d="M13.5216 20.154C13.3471 20.312 13.1177 20.3954 12.8824 20.3863C12.6472 20.3771 12.4249 20.2762 12.2632 20.1051C12.1015 19.934 12.0133 19.7064 12.0175 19.471C12.0217 19.2356 12.1179 19.0113 12.2856 18.846L18.5724 12.9H3.30358C3.06489 12.9 2.83597 12.8052 2.66718 12.6364C2.4984 12.4676 2.40358 12.2387 2.40358 12C2.40358 11.7613 2.4984 11.5324 2.66718 11.3636C2.83597 11.1948 3.06489 11.1 3.30358 11.1H18.5748L12.2856 5.1516C12.1968 5.07118 12.125 4.97385 12.0743 4.86531C12.0236 4.75677 11.9951 4.63921 11.9905 4.51951C11.9858 4.39982 12.0051 4.28039 12.0472 4.16825C12.0893 4.05611 12.1534 3.95349 12.2356 3.86643C12.3179 3.77937 12.4167 3.7096 12.5263 3.66123C12.6359 3.61285 12.754 3.58684 12.8738 3.58471C12.9936 3.58258 13.1126 3.60439 13.2238 3.64884C13.335 3.6933 13.4363 3.75951 13.5216 3.8436L21.2232 11.1276C21.4148 11.3081 21.5413 11.5469 21.5832 11.8068C21.6115 11.937 21.6107 12.0718 21.5808 12.2016C21.5376 12.4578 21.412 12.6928 21.2232 12.8712L13.5216 20.1552V20.154Z" fill="white"/>
</svg>
