<svg width="20" height="20" viewBox="0 0 20 20" fill="none" xmlns="http://www.w3.org/2000/svg">
<g clip-path="url(#clip0_18_76)">
<path d="M2.5 6.5C2.5 5.96957 2.71071 5.46086 3.08579 5.08579C3.46086 4.71071 3.96957 4.5 4.5 4.5H15.5C16.0304 4.5 16.5391 4.71071 16.9142 5.08579C17.2893 5.46086 17.5 5.96957 17.5 6.5V8H2.5V6.5ZM2.5 9H17.5V13.5C17.5 14.0304 17.2893 14.5391 16.9142 14.9142C16.5391 15.2893 16.0304 15.5 15.5 15.5H4.5C3.96957 15.5 3.46086 15.2893 3.08579 14.9142C2.71071 14.5391 2.5 14.0304 2.5 13.5V9ZM13.5 13C13.3674 13 13.2402 13.0527 13.1464 13.1464C13.0527 13.2402 13 13.3674 13 13.5C13 13.6326 13.0527 13.7598 13.1464 13.8536C13.2402 13.9473 13.3674 14 13.5 14H15.5C15.6326 14 15.7598 13.9473 15.8536 13.8536C15.9473 13.7598 16 13.6326 16 13.5C16 13.3674 15.9473 13.2402 15.8536 13.1464C15.7598 13.0527 15.6326 13 15.5 13H13.5Z" fill="#333333"/>
</g>
<defs>
<clipPath id="clip0_18_76">
<rect width="20" height="20" fill="white"/>
</clipPath>
</defs>
</svg>
