<svg width="24" height="24" viewBox="0 0 24 24" fill="none" xmlns="http://www.w3.org/2000/svg">
<path d="M3.26528 2.46131L21.6913 11.5405C21.7918 11.59 21.8764 11.6667 21.9355 11.7618C21.9947 11.8569 22.0261 11.9667 22.0261 12.0787C22.0261 12.1907 21.9947 12.3005 21.9355 12.3956C21.8764 12.4907 21.7918 12.5674 21.6913 12.6169L3.26408 21.6961C3.16085 21.7468 3.04521 21.7668 2.93095 21.7537C2.81669 21.7405 2.70861 21.6948 2.61959 21.622C2.53057 21.5491 2.46436 21.4522 2.42885 21.3428C2.39334 21.2334 2.39002 21.1161 2.41928 21.0049L4.24448 14.1109C4.27407 13.9994 4.3352 13.8987 4.42055 13.821C4.5059 13.7433 4.61185 13.6919 4.72568 13.6729L12.9829 12.2965C13.0321 12.2884 13.0785 12.2681 13.1179 12.2375C13.1573 12.2069 13.1884 12.167 13.2085 12.1213L13.2301 12.0493C13.2413 11.9826 13.2296 11.914 13.1969 11.8548C13.1642 11.7955 13.1125 11.749 13.0501 11.7229L12.9829 11.7037L4.68008 10.3201C4.56646 10.3009 4.46078 10.2494 4.37566 10.1717C4.29054 10.094 4.22958 9.9935 4.20008 9.88211L2.41928 3.15371C2.38971 3.0424 2.3928 2.92492 2.42819 2.81532C2.46357 2.70572 2.52976 2.60862 2.61883 2.53561C2.70791 2.4626 2.81612 2.41677 2.93053 2.4036C3.04495 2.39042 3.16074 2.41046 3.26408 2.46131H3.26528Z" fill="white"/>
</svg>
