<svg width="32" height="32" viewBox="0 0 32 32" fill="none" xmlns="http://www.w3.org/2000/svg">
<path d="M19.9204 25.6032C19.7368 26.5074 19.2462 27.3204 18.5318 27.9043C17.8174 28.4882 16.9231 28.8072 16.0004 28.8072C15.0777 28.8072 14.1834 28.4882 13.469 27.9043C12.7546 27.3204 12.264 26.5074 12.0804 25.6032H19.9204ZM15.9972 3.20001C21.0356 3.20001 25.1876 6.93601 25.5716 11.768L25.5924 12.1248L25.6004 12.4832L25.5988 18.2528L27.1252 22.392L27.1652 22.528L27.1908 22.6656L27.1988 22.808C27.1988 23.312 26.8852 23.752 26.3636 23.9392L26.1812 23.992L25.9988 24.008H6.00201C5.86052 24.0076 5.72023 23.9821 5.58761 23.9328C5.12841 23.7648 4.82601 23.3376 4.81641 22.7872L4.82281 22.6L4.87721 22.392L6.39721 18.2576L6.40041 12.4688L6.40681 12.1088C6.60361 7.12161 10.834 3.20001 15.9972 3.20001Z" fill="#DBD3EB"/>
</svg>
