<svg width="32" height="32" viewBox="0 0 32 32" fill="none" xmlns="http://www.w3.org/2000/svg">
<path d="M27.9998 16.7999C28.212 16.7999 28.4155 16.7156 28.5655 16.5656C28.7155 16.4155 28.7998 16.2121 28.7998 15.9999C28.7998 15.7877 28.7155 15.5842 28.5655 15.4342C28.4155 15.2842 28.212 15.1999 27.9998 15.1999H18.3998C18.1876 15.1999 17.9841 15.2842 17.8341 15.4342C17.6841 15.5842 17.5998 15.7877 17.5998 15.9999C17.5998 16.2121 17.6841 16.4155 17.8341 16.5656C17.9841 16.7156 18.1876 16.7999 18.3998 16.7999H27.9998ZM25.5998 21.9887C25.6522 21.8976 25.6862 21.7971 25.6998 21.6929C25.7134 21.5887 25.7063 21.4828 25.6789 21.3813C25.6237 21.1764 25.4894 21.0018 25.3054 20.8959C25.1215 20.79 24.903 20.7616 24.698 20.8168C24.4931 20.872 24.3185 21.0063 24.2126 21.1903C23.0699 23.1747 21.3043 24.7265 19.1896 25.6049C17.075 26.4834 14.7295 26.6393 12.5171 26.0486C10.3048 25.4579 8.34919 24.1536 6.95384 22.3379C5.5585 20.5223 4.80138 18.2969 4.79997 16.007C4.79856 13.7172 5.55293 11.4909 6.94604 9.6735C8.33915 7.85615 10.2931 6.54939 12.5047 5.95595C14.7164 5.36252 17.062 5.51559 19.1778 6.39143C21.2936 7.26727 23.0611 8.8169 24.2062 10.7999C24.2584 10.8916 24.3281 10.9721 24.4115 11.0367C24.4949 11.1014 24.5902 11.1489 24.6921 11.1765C24.7939 11.2042 24.9001 11.2114 25.0048 11.1978C25.1094 11.1842 25.2103 11.1501 25.3017 11.0973C25.393 11.0445 25.4731 10.9742 25.5372 10.8904C25.6012 10.8066 25.6481 10.711 25.6751 10.609C25.7021 10.507 25.7086 10.4006 25.6943 10.2961C25.68 10.1916 25.6452 10.0909 25.5918 9.99989C24.2704 7.71188 22.2309 5.92393 19.7896 4.91346C17.3482 3.90299 14.6417 3.72649 12.0898 4.41135C9.53797 5.09621 7.28347 6.60413 5.67614 8.70116C4.06881 10.7982 3.19851 13.3671 3.20027 16.0092C3.20204 18.6514 4.07576 21.2191 5.68589 23.314C7.29602 25.4089 9.55252 26.9138 12.1053 27.5952C14.6581 28.2767 17.3644 28.0966 19.8043 27.0829C22.2443 26.0691 24.2815 24.2785 25.5998 21.9887Z" fill="#DBD3EB"/>
</svg>
