<svg width="32" height="32" viewBox="0 0 32 32" fill="none" xmlns="http://www.w3.org/2000/svg">
<path d="M16 3.19995C14.3027 3.19995 12.6748 3.87424 11.4746 5.07447C10.2743 6.2747 9.60005 7.90257 9.60005 9.59995C9.60005 11.2973 10.2743 12.9252 11.4746 14.1254C12.6748 15.3257 14.3027 16 16 16C17.6974 16 19.3253 15.3257 20.5255 14.1254C21.7258 12.9252 22.4001 11.2973 22.4001 9.59995C22.4001 7.90257 21.7258 6.2747 20.5255 5.07447C19.3253 3.87424 17.6974 3.19995 16 3.19995ZM8.01445 17.6C7.59307 17.5983 7.1755 17.6798 6.78569 17.8398C6.39588 17.9999 6.0415 18.2353 5.74286 18.5326C5.44423 18.8299 5.20722 19.1832 5.04543 19.5723C4.88365 19.9614 4.80026 20.3786 4.80005 20.7999C4.80005 23.5056 6.13285 25.5456 8.21605 26.8752C10.2672 28.1824 13.032 28.7999 16 28.7999C18.9681 28.7999 21.7328 28.1824 23.784 26.8752C25.8673 25.5472 27.2001 23.504 27.2001 20.7999C27.2001 19.9513 26.8629 19.1373 26.2628 18.5372C25.6627 17.9371 24.8487 17.6 24 17.6H8.01445Z" fill="#DBD3EB"/>
</svg>
