<svg width="24" height="24" viewBox="0 0 24 24" fill="none" xmlns="http://www.w3.org/2000/svg">
<path d="M4.90766 5.05908L4.97606 4.97508C5.07548 4.87587 5.20656 4.81468 5.34646 4.80219C5.48637 4.78969 5.62622 4.82667 5.74166 4.90668L5.82566 4.97508L12.0009 11.1515L18.1761 4.97508C18.2755 4.87587 18.4066 4.81468 18.5465 4.80219C18.6864 4.78969 18.8262 4.82667 18.9417 4.90668L19.0257 4.97508C19.1249 5.07451 19.186 5.20559 19.1985 5.34549C19.211 5.48539 19.1741 5.62524 19.0941 5.74068L19.0257 5.82468L12.8493 11.9999L19.0257 18.1751C19.1249 18.2745 19.186 18.4056 19.1985 18.5455C19.211 18.6854 19.1741 18.8252 19.0941 18.9407L19.0257 19.0247C18.9262 19.1239 18.7951 19.1851 18.6552 19.1976C18.5153 19.2101 18.3755 19.1731 18.2601 19.0931L18.1761 19.0247L12.0009 12.8483L5.82566 19.0247C5.72623 19.1239 5.59515 19.1851 5.45525 19.1976C5.31535 19.2101 5.17549 19.1731 5.06006 19.0931L4.97606 19.0247C4.87685 18.9253 4.81566 18.7942 4.80316 18.6543C4.79066 18.5144 4.82764 18.3745 4.90766 18.2591L4.97606 18.1751L11.1525 11.9999L4.97606 5.82468C4.87685 5.72525 4.81566 5.59417 4.80316 5.45427C4.79066 5.31437 4.82764 5.17452 4.90766 5.05908L4.97606 4.97508L4.90766 5.05908Z" fill="#333333"/>
</svg>
