<svg width="16" height="16" viewBox="0 0 16 16" fill="none" xmlns="http://www.w3.org/2000/svg">
<path d="M7.99967 1.1665C8.5531 1.16647 9.08556 1.37821 9.48783 1.75829C9.8901 2.13836 10.1317 2.65797 10.163 3.2105L10.1663 3.33317H13.6663C13.793 3.33321 13.915 3.38133 14.0075 3.46782C14.1001 3.5543 14.1564 3.6727 14.165 3.79909C14.1737 3.92548 14.134 4.05043 14.0541 4.1487C13.9741 4.24697 13.8598 4.31124 13.7343 4.3285L13.6663 4.33317H13.1357L12.2823 13.0132C12.2396 13.4459 12.0444 13.8494 11.7317 14.1515C11.4189 14.4536 11.009 14.6347 10.575 14.6625L10.4577 14.6665H5.54167C5.10665 14.6665 4.6858 14.5118 4.35434 14.23C4.02289 13.9483 3.80242 13.5578 3.73234 13.1285L3.71701 13.0125L2.86301 4.33317H2.33301C2.21218 4.33317 2.09545 4.28941 2.00439 4.20999C1.91333 4.13058 1.85411 4.02087 1.83767 3.90117L1.83301 3.83317C1.83301 3.71235 1.87677 3.59561 1.95619 3.50455C2.0356 3.41349 2.14531 3.35427 2.26501 3.33784L2.33301 3.33317H5.83301C5.83301 2.75853 6.06128 2.20743 6.46761 1.80111C6.87394 1.39478 7.42504 1.1665 7.99967 1.1665ZM12.131 4.33317H3.86767L4.71234 12.9145C4.73104 13.106 4.81542 13.2851 4.95116 13.4214C5.08689 13.5578 5.26562 13.6429 5.45701 13.6625L5.54167 13.6665H10.4577C10.8577 13.6665 11.197 13.3832 11.2743 12.9985L11.2877 12.9145L12.1303 4.33317H12.131ZM9.16634 6.1665C9.28717 6.16651 9.4039 6.21027 9.49496 6.28968C9.58602 6.3691 9.64524 6.4788 9.66167 6.5985L9.66634 6.6665V11.3332C9.6663 11.4599 9.61818 11.5818 9.53169 11.6744C9.44521 11.7669 9.32681 11.8232 9.20042 11.8319C9.07403 11.8405 8.94908 11.8008 8.85081 11.7209C8.75254 11.6409 8.68827 11.5267 8.67101 11.4012L8.66634 11.3332V6.6665C8.66634 6.5339 8.71902 6.40672 8.81279 6.31295C8.90656 6.21918 9.03373 6.1665 9.16634 6.1665ZM6.83301 6.1665C6.95383 6.16651 7.07057 6.21027 7.16163 6.28968C7.25269 6.3691 7.31191 6.4788 7.32834 6.5985L7.33301 6.6665V11.3332C7.33297 11.4599 7.28484 11.5818 7.19836 11.6744C7.11187 11.7669 6.99347 11.8232 6.86709 11.8319C6.7407 11.8405 6.61575 11.8008 6.51747 11.7209C6.4192 11.6409 6.35494 11.5267 6.33767 11.4012L6.33301 11.3332V6.6665C6.33301 6.5339 6.38569 6.40672 6.47945 6.31295C6.57322 6.21918 6.7004 6.1665 6.83301 6.1665ZM7.99967 2.1665C7.70688 2.16651 7.4248 2.27662 7.20941 2.47496C6.99403 2.6733 6.8611 2.94537 6.83701 3.23717L6.83301 3.33317H9.16634C9.16634 3.02375 9.04342 2.72701 8.82463 2.50821C8.60584 2.28942 8.30909 2.1665 7.99967 2.1665Z" fill="#E63D2E"/>
</svg>
