<svg width="20" height="20" viewBox="0 0 20 20" fill="none" xmlns="http://www.w3.org/2000/svg">
<path d="M10.0001 5.87401C10.2212 5.87401 10.4332 5.7862 10.5895 5.62989C10.7458 5.47357 10.8336 5.26157 10.8336 5.04051C10.8336 4.81945 10.7458 4.60745 10.5895 4.45114C10.4332 4.29483 10.2212 4.20701 10.0001 4.20701C9.77904 4.20701 9.56703 4.29483 9.41072 4.45114C9.25441 4.60745 9.1666 4.81945 9.1666 5.04051C9.1666 5.26157 9.25441 5.47357 9.41072 5.62989C9.56703 5.7862 9.77904 5.87401 10.0001 5.87401ZM16.0001 13.34V8.00001H16.0921C16.9851 8.00001 17.3521 6.85201 16.6221 6.33501L10.7721 2.18301C10.5466 2.02279 10.2768 1.93671 10.0001 1.93671C9.72344 1.93671 9.45363 2.02279 9.2281 2.18301L3.3761 6.33501C2.6481 6.85201 3.0131 7.99901 3.9061 7.99901H4.0001V13.339C3.3991 13.725 3.0001 14.399 3.0001 15.166V16.499C3.0001 16.6316 3.05277 16.7588 3.14654 16.8526C3.24031 16.9463 3.36749 16.999 3.5001 16.999H16.5001C16.6327 16.999 16.7599 16.9463 16.8536 16.8526C16.9474 16.7588 17.0001 16.6316 17.0001 16.499V15.166C17.0001 14.399 16.6021 13.725 16.0001 13.34ZM9.8061 2.99901C9.86237 2.95915 9.92963 2.93773 9.9986 2.93773C10.0676 2.93773 10.1348 2.95915 10.1911 2.99901L15.8301 6.99901H4.1681L9.8071 2.99901H9.8061ZM14.9981 7.99901V13.005C14.9429 13.0009 14.8875 12.9989 14.8321 12.999H12.9981V8.00001H14.9981V7.99901ZM5.0001 13.005V8.00001H7.0001V13H5.1661C5.1101 13 5.0541 13.002 4.9991 13.006L5.0001 13.005ZM5.1671 13.999H14.8341C15.4781 13.999 16.0001 14.521 16.0001 15.166V15.999H4.0001V15.166C4.0001 14.521 4.5231 13.999 5.1671 13.999ZM9.5001 12.999H8.0001V8.00001H9.5001V13V12.999ZM10.5001 12.999V8.00001H12.0001V13H10.5001V12.999Z" fill="#333333"/>
</svg>
