<svg width="32" height="32" viewBox="0 0 32 32" fill="none" xmlns="http://www.w3.org/2000/svg">
<path d="M16.0008 3.19995C14.3034 3.19995 12.6755 3.87424 11.4753 5.07447C10.2751 6.2747 9.60078 7.90257 9.60078 9.59995C9.60078 11.2973 10.2751 12.9252 11.4753 14.1254C12.6755 15.3257 14.3034 16 16.0008 16C17.6982 16 19.326 15.3257 20.5263 14.1254C21.7265 12.9252 22.4008 11.2973 22.4008 9.59995C22.4008 7.90257 21.7265 6.2747 20.5263 5.07447C19.326 3.87424 17.6982 3.19995 16.0008 3.19995ZM8.01518 17.6C7.5938 17.5983 7.17623 17.6798 6.78642 17.8398C6.39661 17.9999 6.04223 18.2353 5.7436 18.5326C5.44496 18.8299 5.20796 19.1832 5.04617 19.5723C4.88438 19.9614 4.80099 20.3786 4.80078 20.7999C4.80078 23.5056 6.13358 25.5456 8.21678 26.8752C10.268 28.1824 13.0328 28.7999 16.0008 28.7999C18.9688 28.7999 21.7336 28.1824 23.7848 26.8752C25.868 25.5472 27.2008 23.504 27.2008 20.7999C27.2008 19.9513 26.8636 19.1373 26.2635 18.5372C25.6634 17.9371 24.8495 17.6 24.0008 17.6H8.01518Z" fill="#BF13BF"/>
</svg>
