<svg width="20" height="20" viewBox="0 0 20 20" fill="none" xmlns="http://www.w3.org/2000/svg">
<path d="M10 2C10.7957 2 11.5587 2.31607 12.1213 2.87868C12.6839 3.44129 13 4.20435 13 5V6H14C14.5304 6 15.0391 6.21071 15.4142 6.58579C15.7893 6.96086 16 7.46957 16 8V15C16 15.5304 15.7893 16.0391 15.4142 16.4142C15.0391 16.7893 14.5304 17 14 17H6C5.46957 17 4.96086 16.7893 4.58579 16.4142C4.21071 16.0391 4 15.5304 4 15V8C4 7.46957 4.21071 6.96086 4.58579 6.58579C4.96086 6.21071 5.46957 6 6 6H7V5C7 4.20435 7.31607 3.44129 7.87868 2.87868C8.44129 2.31607 9.20435 2 10 2ZM14 7H6C5.73478 7 5.48043 7.10536 5.29289 7.29289C5.10536 7.48043 5 7.73478 5 8V15C5 15.2652 5.10536 15.5196 5.29289 15.7071C5.48043 15.8946 5.73478 16 6 16H14C14.2652 16 14.5196 15.8946 14.7071 15.7071C14.8946 15.5196 15 15.2652 15 15V8C15 7.73478 14.8946 7.48043 14.7071 7.29289C14.5196 7.10536 14.2652 7 14 7ZM10 10.5C10.2652 10.5 10.5196 10.6054 10.7071 10.7929C10.8946 10.9804 11 11.2348 11 11.5C11 11.7652 10.8946 12.0196 10.7071 12.2071C10.5196 12.3946 10.2652 12.5 10 12.5C9.73478 12.5 9.48043 12.3946 9.29289 12.2071C9.10536 12.0196 9 11.7652 9 11.5C9 11.2348 9.10536 10.9804 9.29289 10.7929C9.48043 10.6054 9.73478 10.5 10 10.5ZM10 3C9.46957 3 8.96086 3.21071 8.58579 3.58579C8.21071 3.96086 8 4.46957 8 5V6H12V5C12 4.46957 11.7893 3.96086 11.4142 3.58579C11.0391 3.21071 10.5304 3 10 3Z" fill="#787878"/>
</svg>
