<svg width="32" height="32" viewBox="0 0 32 32" fill="none" xmlns="http://www.w3.org/2000/svg">
<path d="M27.9998 16.8C28.212 16.8 28.4155 16.7157 28.5655 16.5657C28.7155 16.4157 28.7998 16.2122 28.7998 16C28.7998 15.7878 28.7155 15.5843 28.5655 15.4343C28.4155 15.2843 28.212 15.2 27.9998 15.2H18.3998C18.1876 15.2 17.9841 15.2843 17.8341 15.4343C17.6841 15.5843 17.5998 15.7878 17.5998 16C17.5998 16.2122 17.6841 16.4157 17.8341 16.5657C17.9841 16.7157 18.1876 16.8 18.3998 16.8H27.9998ZM25.5998 21.9888C25.6522 21.8977 25.6862 21.7972 25.6998 21.693C25.7134 21.5888 25.7063 21.4829 25.6789 21.3814C25.6237 21.1765 25.4894 21.0019 25.3054 20.896C25.1215 20.7901 24.903 20.7617 24.698 20.8169C24.4931 20.8721 24.3185 21.0064 24.2126 21.1904C23.0699 23.1748 21.3043 24.7266 19.1896 25.605C17.075 26.4835 14.7295 26.6395 12.5171 26.0487C10.3048 25.458 8.34919 24.1537 6.95384 22.338C5.5585 20.5224 4.80138 18.297 4.79997 16.0071C4.79856 13.7173 5.55293 11.491 6.94604 9.67361C8.33915 7.85626 10.2931 6.54949 12.5047 5.95606C14.7164 5.36262 17.062 5.5157 19.1778 6.39154C21.2936 7.26737 23.0611 8.817 24.2062 10.8C24.2584 10.8917 24.3281 10.9722 24.4115 11.0368C24.4949 11.1015 24.5902 11.149 24.6921 11.1766C24.7939 11.2043 24.9001 11.2115 25.0048 11.1979C25.1094 11.1843 25.2103 11.1502 25.3017 11.0974C25.393 11.0447 25.4731 10.9743 25.5372 10.8905C25.6012 10.8067 25.6481 10.7111 25.6751 10.6091C25.7021 10.5071 25.7086 10.4007 25.6943 10.2962C25.68 10.1917 25.6452 10.091 25.5918 9.99999C24.2704 7.71198 22.2309 5.92404 19.7896 4.91357C17.3482 3.9031 14.6417 3.7266 12.0898 4.41146C9.53797 5.09632 7.28347 6.60424 5.67614 8.70127C4.06881 10.7983 3.19851 13.3672 3.20027 16.0093C3.20204 18.6515 4.07576 21.2192 5.68589 23.3141C7.29602 25.409 9.55252 26.9139 12.1053 27.5953C14.6581 28.2768 17.3644 28.0967 19.8043 27.083C22.2443 26.0692 24.2815 24.2786 25.5998 21.9888Z" fill="#DBD3EB"/>
</svg>
