<svg width="24" height="24" viewBox="0 0 24 24" fill="none" xmlns="http://www.w3.org/2000/svg">
<path d="M11.9999 2.40002C14.546 2.40002 16.9878 3.41145 18.7881 5.2118C20.5885 7.01215 21.5999 9.45395 21.5999 12C21.5999 14.5461 20.5885 16.9879 18.7881 18.7882C16.9878 20.5886 14.546 21.6 11.9999 21.6C9.45382 21.6 7.01203 20.5886 5.21168 18.7882C3.41133 16.9879 2.3999 14.5461 2.3999 12C2.3999 9.45395 3.41133 7.01215 5.21168 5.2118C7.01203 3.41145 9.45382 2.40002 11.9999 2.40002ZM11.3999 6.00002C11.2408 6.00002 11.0882 6.06324 10.9756 6.17576C10.8631 6.28828 10.7999 6.44089 10.7999 6.60002V12.6L10.8095 12.708C10.8348 12.8462 10.9077 12.9711 11.0156 13.061C11.1235 13.1509 11.2595 13.2001 11.3999 13.2H14.9999L15.1079 13.1904C15.2554 13.1637 15.3876 13.0827 15.4784 12.9634C15.5692 12.8441 15.6121 12.6951 15.5986 12.5458C15.585 12.3965 15.516 12.2577 15.4052 12.1566C15.2944 12.0556 15.1498 11.9997 14.9999 12H11.9999V6.60002L11.9903 6.49202C11.965 6.35389 11.8921 6.22899 11.7842 6.13909C11.6763 6.04919 11.5403 5.99998 11.3999 6.00002Z" fill="#FFB21A"/>
</svg>
