<svg width="24" height="24" viewBox="0 0 24 24" fill="none" xmlns="http://www.w3.org/2000/svg">
<path d="M4.90668 5.0592L4.97508 4.9752C5.07451 4.87599 5.20559 4.81481 5.34549 4.80231C5.48539 4.78981 5.62524 4.82679 5.74068 4.9068L5.82468 4.9752L11.9999 11.1516L18.1751 4.9752C18.2745 4.87599 18.4056 4.81481 18.5455 4.80231C18.6854 4.78981 18.8252 4.82679 18.9407 4.9068L19.0247 4.9752C19.1239 5.07463 19.1851 5.20571 19.1976 5.34561C19.2101 5.48551 19.1731 5.62536 19.0931 5.7408L19.0247 5.8248L12.8483 12L19.0247 18.1752C19.1239 18.2746 19.1851 18.4057 19.1976 18.5456C19.2101 18.6855 19.1731 18.8254 19.0931 18.9408L19.0247 19.0248C18.9253 19.124 18.7942 19.1852 18.6543 19.1977C18.5144 19.2102 18.3745 19.1732 18.2591 19.0932L18.1751 19.0248L11.9999 12.8484L5.82468 19.0248C5.72525 19.124 5.59417 19.1852 5.45427 19.1977C5.31437 19.2102 5.17452 19.1732 5.05908 19.0932L4.97508 19.0248C4.87587 18.9254 4.81468 18.7943 4.80219 18.6544C4.78969 18.5145 4.82667 18.3746 4.90668 18.2592L4.97508 18.1752L11.1515 12L4.97508 5.8248C4.87587 5.72537 4.81468 5.59429 4.80219 5.45439C4.78969 5.31449 4.82667 5.17464 4.90668 5.0592L4.97508 4.9752L4.90668 5.0592Z" fill="#333333"/>
</svg>
