<svg width="32" height="32" viewBox="0 0 32 32" fill="none" xmlns="http://www.w3.org/2000/svg">
<path d="M15.9998 3.19995C14.3024 3.19995 12.6746 3.87424 11.4743 5.07447C10.2741 6.2747 9.59981 7.90257 9.5998 9.59995C9.59981 11.2973 10.2741 12.9252 11.4743 14.1254C12.6746 15.3257 14.3024 16 15.9998 16C17.6972 16 19.3251 15.3257 20.5253 14.1254C21.7255 12.9252 22.3998 11.2973 22.3998 9.59995C22.3998 7.90257 21.7255 6.2747 20.5253 5.07447C19.3251 3.87424 17.6972 3.19995 15.9998 3.19995ZM8.0142 17.6C7.59282 17.5983 7.17525 17.6798 6.78544 17.8398C6.39563 17.9999 6.04125 18.2353 5.74262 18.5326C5.44399 18.8299 5.20698 19.1832 5.04519 19.5723C4.8834 19.9614 4.80001 20.3786 4.7998 20.7999C4.7998 23.5056 6.13261 25.5456 8.21581 26.8752C10.267 28.1824 13.0318 28.7999 15.9998 28.7999C18.9678 28.7999 21.7326 28.1824 23.7838 26.8752C25.867 25.5472 27.1998 23.504 27.1998 20.7999C27.1998 19.9513 26.8627 19.1373 26.2625 18.5372C25.6624 17.9371 24.8485 17.6 23.9998 17.6H8.0142Z" fill="#DBD3EB"/>
</svg>
