<svg width="20" height="20" viewBox="0 0 20 20" fill="none" xmlns="http://www.w3.org/2000/svg">
<path d="M9.25001 7.30702C9.09001 7.49102 9.00001 7.74502 9.00001 8.00002C9.00001 8.13263 8.94733 8.2598 8.85356 8.35357C8.75979 8.44734 8.63262 8.50002 8.50001 8.50002C8.3674 8.50002 8.24022 8.44734 8.14645 8.35357C8.05269 8.2598 8.00001 8.13263 8.00001 8.00002C8.00001 7.52702 8.16101 7.03002 8.50001 6.64602C8.84701 6.25202 9.36001 6.00002 10 6.00002C10.64 6.00002 11.153 6.25202 11.5 6.64602C11.839 7.03102 12 7.52602 12 8.00002C12 8.49002 11.884 8.87002 11.698 9.19002C11.535 9.46902 11.322 9.69002 11.153 9.86702L11.111 9.91002C10.925 10.105 10.782 10.264 10.677 10.464C10.577 10.655 10.5 10.908 10.5 11.293C10.5 11.4256 10.4473 11.5528 10.3536 11.6466C10.2598 11.7403 10.1326 11.793 10 11.793C9.8674 11.793 9.74022 11.7403 9.64645 11.6466C9.55269 11.5528 9.50001 11.4256 9.50001 11.293C9.50001 10.761 9.61001 10.346 9.79101 10C9.96801 9.66302 10.201 9.41602 10.389 9.21902L10.411 9.19602C10.599 8.99902 10.733 8.85902 10.834 8.68602C10.929 8.52302 11 8.31702 11 8.00002C11 7.74502 10.911 7.49002 10.75 7.30702C10.597 7.13402 10.36 7.00002 10 7.00002C9.64001 7.00002 9.40301 7.13402 9.25001 7.30702ZM10 14.212C10.0941 14.2156 10.1879 14.2001 10.2759 14.1666C10.3639 14.133 10.4442 14.0821 10.512 14.0168C10.5798 13.9515 10.6338 13.8731 10.6706 13.7865C10.7075 13.6999 10.7265 13.6067 10.7265 13.5125C10.7265 13.4184 10.7075 13.3252 10.6706 13.2385C10.6338 13.1519 10.5798 13.0736 10.512 13.0083C10.4442 12.943 10.3639 12.892 10.2759 12.8585C10.1879 12.8249 10.0941 12.8095 10 12.813C9.81436 12.813 9.63631 12.8868 9.50503 13.018C9.37376 13.1493 9.30001 13.3274 9.30001 13.513C9.30001 13.6987 9.37376 13.8767 9.50503 14.008C9.63631 14.1393 9.81436 14.213 10 14.213V14.212ZM2.00001 10C2.00045 8.25184 2.5735 6.55193 3.63153 5.16027C4.68956 3.76862 6.17431 2.76184 7.8587 2.29392C9.54309 1.82599 11.3344 1.92269 12.9586 2.56921C14.5829 3.21573 15.9506 4.37649 16.8527 5.87395C17.7548 7.37141 18.1415 9.12313 17.9537 10.8612C17.766 12.5993 17.0141 14.228 15.813 15.4983C14.612 16.7685 13.0279 17.6104 11.3031 17.8952C9.57824 18.1799 7.80762 17.8919 6.26201 17.075L2.62201 17.985C2.53823 18.0061 2.45043 18.0051 2.36716 17.9821C2.28389 17.9591 2.20799 17.915 2.14686 17.8539C2.08573 17.7929 2.04146 17.7171 2.01835 17.6339C1.99524 17.5506 1.99409 17.4628 2.01501 17.379L2.92501 13.738C2.3157 12.5864 1.9981 11.3029 2.00001 10ZM10 3.00002C8.77839 2.99965 7.57794 3.31898 6.51796 3.92629C5.45799 4.53359 4.57541 5.40772 3.95792 6.4618C3.34044 7.51587 3.00957 8.71319 2.99818 9.93476C2.98679 11.1563 3.29529 12.3596 3.89301 13.425C3.95578 13.5362 3.97367 13.6671 3.94301 13.791L3.18701 16.813L6.20901 16.057C6.33292 16.0264 6.46386 16.0442 6.57501 16.107C7.50827 16.6298 8.54894 16.9318 9.61709 16.9897C10.6852 17.0477 11.7525 16.86 12.7368 16.4412C13.7211 16.0224 14.5964 15.3836 15.2953 14.5738C15.9943 13.764 16.4983 12.8047 16.7688 11.7698C17.0392 10.7348 17.0689 9.65161 16.8555 8.60339C16.642 7.55517 16.1912 6.56981 15.5376 5.72299C14.884 4.87617 14.045 4.1904 13.085 3.71837C12.1251 3.24634 11.0697 3.0006 10 3.00002Z" fill="#333333"/>
</svg>
