<svg width="1440" height="64" viewBox="0 0 1440 64" fill="none" xmlns="http://www.w3.org/2000/svg">
<rect width="1440" height="64" fill="white"/>
<path fill-rule="evenodd" clip-rule="evenodd" d="M222.613 43.3412L213.736 34.5808L212.516 35.785L212.516 35.7847L211.295 34.5808L209.944 35.9143L210.183 36.151L210.644 36.6057L211.164 37.1181L210.183 38.086L209.664 37.5736L209.203 37.1181L208.963 36.8821L207.634 38.1939L207.699 38.2583L208.941 39.4847L208.266 40.1514L213.146 44.9669C214.053 45.8621 214.053 47.3229 213.146 48.2181L208.69 52.6148L209.366 53.2815L208.124 54.5071L208.059 54.5716L209.388 55.8833L209.628 55.6473L210.089 55.1919L210.609 54.6795L211.589 55.6473L211.07 56.1598L210.609 56.6152L210.369 56.8512L211.72 58.1847L212.941 56.9808L214.161 58.1847L222.613 49.8437C223.509 48.9598 223.963 47.8002 223.974 46.6372V46.5478C223.963 45.3847 223.509 44.2251 222.613 43.3412ZM210.881 60.7663L211.862 59.7984L210.881 58.8304L209.9 59.7984L210.881 60.7663ZM212.941 56.9808L214.292 55.6473L212.941 54.3138L211.589 55.6473L212.941 56.9808ZM211.164 37.1181L212.516 38.4516L213.867 37.1181L212.516 35.785L212.516 35.7854L211.164 37.1181ZM209.094 59.68L208.462 60.3033L207.83 59.68L208.462 59.0559L209.094 59.68ZM206.086 58.0236L205.607 58.4971L205.127 58.0236L205.607 57.5501L206.086 58.0236ZM206.871 59.465L206.272 60.056L205.672 59.465L206.272 58.8731L206.871 59.465ZM204.408 58.4754L203.962 58.9165L203.514 58.4754L203.962 58.0341L204.408 58.4754ZM202.795 57.9592L202.61 58.142L202.425 57.9592L202.61 57.7764L202.795 57.9592ZM204.19 57.1636L203.918 57.4326V57.4319L203.645 57.1636L203.918 56.8947L204.19 57.1636ZM205.64 55.8833L205.236 56.2819L204.833 55.8833L205.236 55.4855L205.64 55.8833ZM206.73 56.7868L206.294 57.2168L205.857 56.7868L206.294 56.3569L206.73 56.7868ZM208.277 53.6471L207.569 54.346L206.86 53.6471L207.569 52.9483L208.277 53.6471ZM207.176 54.9694L206.696 55.4428L206.217 54.9694L206.696 54.4966L207.176 54.9694ZM208.658 56.1096L207.863 56.8947L207.067 56.1096L207.863 55.3244L208.658 56.1096ZM207.982 58.0986L207.307 58.7661L206.631 58.0986L207.307 57.4319L207.982 58.0986ZM209.138 57.5398L208.571 58.0986L208.004 57.5398L208.571 56.9808L209.138 57.5398ZM210.565 56.3464L209.857 57.0452L209.148 56.3464L209.857 55.6473L210.565 56.3464ZM211.077 58.4215L210.14 59.3466L209.203 58.4215L210.14 57.497L211.077 58.4215ZM211.567 58.6686L212.2 58.0453L212.832 58.6686L212.2 59.2927L211.567 58.6686ZM208.669 33.0855L208.037 32.4622L207.405 33.0855L208.037 33.7095L208.669 33.0855ZM205.662 34.7419L205.182 34.2691L204.702 34.7419L205.182 35.2153L205.662 34.7419ZM206.446 33.3005L205.847 32.7094L205.247 33.3005L205.847 33.8923L206.446 33.3005ZM203.984 34.2901L203.536 33.8496L203.09 34.2901L203.536 34.7314L203.984 34.2901ZM202.371 34.8063L202.185 34.6235L202 34.8063L202.185 34.9891L202.371 34.8063ZM203.765 35.6019L203.493 35.3337L203.22 35.6019L203.493 35.8708L203.765 35.6019ZM205.214 36.8821L204.811 36.4844L204.408 36.8814L204.811 37.2799L205.214 36.8821ZM206.304 35.9787L205.869 35.5479L205.433 35.9787L205.869 36.4087L206.304 35.9787ZM207.852 39.1183L207.143 38.4194L206.435 39.1183L207.143 39.8173L207.852 39.1183ZM206.752 37.7961L206.272 37.3226L205.792 37.7961L206.272 38.2688L206.752 37.7961ZM208.233 36.6559L207.437 35.8708L206.642 36.6559L207.437 37.441L208.233 36.6559ZM207.557 34.6669L206.882 34.0002L206.207 34.6669L206.882 35.3337L207.557 34.6669ZM208.712 35.2258L208.146 34.6669L207.579 35.2258L208.146 35.7847L208.712 35.2258ZM210.14 36.4199L209.432 35.7202L208.724 36.4199L209.432 37.1181L210.14 36.4199ZM210.652 34.3441L209.715 33.4189L208.778 34.3441L209.715 35.2685L210.652 34.3441ZM211.437 32.9671L210.456 32L209.476 32.9671L210.456 33.9358L211.437 32.9671ZM212.407 34.0968L211.774 33.4728L211.142 34.0968L211.774 34.7201L212.407 34.0968Z" fill="url(#paint0_linear_1_877)"/>
<path d="M239.706 55.9736L232.193 34.7842H237.683L242.938 50.9331L248.192 34.7842H253.682L246.17 55.9736H239.706Z" fill="#CE0B9F"/>
<path fill-rule="evenodd" clip-rule="evenodd" d="M262.558 56.1878C260.102 56.1878 258.09 55.4012 256.522 53.8227C254.951 52.2388 254.167 50.1386 254.167 47.5194C254.167 44.9028 254.943 42.8186 256.5 41.2695C258.063 39.7232 260.08 38.9473 262.558 38.9473C265.032 38.9473 267.084 39.7151 268.711 41.2481C270.343 42.7758 271.162 44.8974 271.162 47.6157C271.162 48.1936 271.122 48.7367 271.044 49.2423H259.454C259.553 49.9861 259.885 50.5961 260.449 51.0723C261.011 51.5432 261.619 51.7787 262.269 51.7787C262.924 51.7787 263.414 51.7144 263.735 51.586C264.056 51.4523 264.291 51.3185 264.441 51.19C264.596 51.0616 264.794 50.8449 265.03 50.5372H270.616C270.137 52.2281 269.171 53.5952 267.716 54.636C266.266 55.6714 264.548 56.1878 262.558 56.1878ZM265.79 46.0104C265.709 45.2265 265.367 44.5871 264.762 44.0948C264.155 43.6025 263.438 43.3564 262.611 43.3564C261.79 43.3564 261.097 43.6025 260.535 44.0948C259.971 44.5871 259.617 45.2265 259.476 46.0104H265.79Z" fill="#CE0B9F"/>
<path fill-rule="evenodd" clip-rule="evenodd" d="M285.14 50.6442C285.881 49.9326 286.253 48.9106 286.253 47.5836C286.253 46.2566 285.881 45.2292 285.14 44.5015C284.396 43.7738 283.54 43.4099 282.572 43.4099C281.609 43.4099 280.752 43.7711 280.003 44.4908C279.259 45.2051 278.89 46.2245 278.89 47.5515C278.89 48.8785 279.259 49.9058 280.003 50.6336C280.752 51.3559 281.609 51.7144 282.572 51.7144C283.54 51.7144 284.396 51.3586 285.14 50.6442ZM278.89 41.3338C280.038 39.7445 281.683 38.9473 283.824 38.9473C285.969 38.9473 287.786 39.7579 289.271 41.3766C290.761 42.9979 291.508 45.066 291.508 47.5836C291.508 50.0958 290.761 52.1586 289.271 53.7692C287.786 55.3825 285.986 56.1878 283.867 56.1878C281.753 56.1878 280.094 55.2995 278.89 53.523V64H273.732V39.1292H278.89V41.3338Z" fill="#CE0B9F"/>
<path d="M130.478 53.154C130.653 53.3121 130.882 53.3955 131.118 53.3863C131.353 53.3772 131.575 53.2762 131.737 53.1051C131.898 52.934 131.987 52.7064 131.982 52.471C131.978 52.2356 131.882 52.0113 131.714 51.846L125.428 45.9H140.696C140.935 45.9 141.164 45.8052 141.333 45.6364C141.502 45.4676 141.596 45.2387 141.596 45C141.596 44.7613 141.502 44.5324 141.333 44.3636C141.164 44.1948 140.935 44.1 140.696 44.1H125.425L131.714 38.1516C131.803 38.0712 131.875 37.9739 131.926 37.8653C131.976 37.7568 132.005 37.6392 132.009 37.5195C132.014 37.3998 131.995 37.2804 131.953 37.1683C131.911 37.0561 131.847 36.9535 131.764 36.8665C131.682 36.7794 131.583 36.7096 131.474 36.6613C131.364 36.6129 131.246 36.5869 131.126 36.5847C131.006 36.5826 130.887 36.6044 130.776 36.6489C130.665 36.6933 130.564 36.7595 130.478 36.8436L122.777 44.1276C122.585 44.3082 122.459 44.5469 122.417 44.8068C122.388 44.937 122.389 45.0718 122.419 45.2016C122.462 45.4578 122.588 45.6929 122.777 45.8712L130.478 53.1552V53.154Z" fill="#333333"/>
<defs>
<linearGradient id="paint0_linear_1_877" x1="201.819" y1="44.7242" x2="224.197" y2="45.0407" gradientUnits="userSpaceOnUse">
<stop stop-color="#94B348"/>
<stop offset="0.00390625" stop-color="#92B24A"/>
<stop offset="0.0078125" stop-color="#90B04B"/>
<stop offset="0.0117188" stop-color="#8EAF4D"/>
<stop offset="0.015625" stop-color="#8CAD4E"/>
<stop offset="0.0195312" stop-color="#8AAC4F"/>
<stop offset="0.0234375" stop-color="#88AA51"/>
<stop offset="0.0273438" stop-color="#86A952"/>
<stop offset="0.03125" stop-color="#84A754"/>
<stop offset="0.0351563" stop-color="#82A655"/>
<stop offset="0.0390625" stop-color="#7FA456"/>
<stop offset="0.0429687" stop-color="#7DA358"/>
<stop offset="0.046875" stop-color="#7BA159"/>
<stop offset="0.0507813" stop-color="#79A05B"/>
<stop offset="0.0546875" stop-color="#779F5C"/>
<stop offset="0.0585938" stop-color="#759D5E"/>
<stop offset="0.0625" stop-color="#739C5F"/>
<stop offset="0.0664062" stop-color="#719A60"/>
<stop offset="0.0703125" stop-color="#6F9962"/>
<stop offset="0.0742187" stop-color="#6D9763"/>
<stop offset="0.078125" stop-color="#6B9665"/>
<stop offset="0.0820313" stop-color="#699466"/>
<stop offset="0.0859375" stop-color="#679367"/>
<stop offset="0.0898438" stop-color="#649169"/>
<stop offset="0.09375" stop-color="#62906A"/>
<stop offset="0.0976563" stop-color="#608E6C"/>
<stop offset="0.101563" stop-color="#5E8D6D"/>
<stop offset="0.105469" stop-color="#5C8B6E"/>
<stop offset="0.109375" stop-color="#5A8A70"/>
<stop offset="0.113281" stop-color="#588871"/>
<stop offset="0.117188" stop-color="#568773"/>
<stop offset="0.121094" stop-color="#548574"/>
<stop offset="0.125" stop-color="#528475"/>
<stop offset="0.128906" stop-color="#508377"/>
<stop offset="0.132812" stop-color="#4E8178"/>
<stop offset="0.136719" stop-color="#4C807A"/>
<stop offset="0.140625" stop-color="#497E7B"/>
<stop offset="0.144531" stop-color="#477D7D"/>
<stop offset="0.148437" stop-color="#457B7E"/>
<stop offset="0.152344" stop-color="#437A7F"/>
<stop offset="0.15625" stop-color="#417881"/>
<stop offset="0.160156" stop-color="#3F7782"/>
<stop offset="0.164063" stop-color="#3D7584"/>
<stop offset="0.167969" stop-color="#3B7485"/>
<stop offset="0.171875" stop-color="#397286"/>
<stop offset="0.175781" stop-color="#377188"/>
<stop offset="0.179687" stop-color="#356F89"/>
<stop offset="0.183594" stop-color="#336E8B"/>
<stop offset="0.1875" stop-color="#316C8C"/>
<stop offset="0.191406" stop-color="#2E6B8D"/>
<stop offset="0.195312" stop-color="#2C698F"/>
<stop offset="0.199219" stop-color="#2A6890"/>
<stop offset="0.203125" stop-color="#286792"/>
<stop offset="0.207031" stop-color="#266593"/>
<stop offset="0.210938" stop-color="#246494"/>
<stop offset="0.214844" stop-color="#226296"/>
<stop offset="0.21875" stop-color="#206197"/>
<stop offset="0.222656" stop-color="#1E5F99"/>
<stop offset="0.226562" stop-color="#1C5E9A"/>
<stop offset="0.230469" stop-color="#1A5C9B"/>
<stop offset="0.234375" stop-color="#185B9D"/>
<stop offset="0.238281" stop-color="#16599E"/>
<stop offset="0.242187" stop-color="#1358A0"/>
<stop offset="0.246094" stop-color="#1156A1"/>
<stop offset="0.25" stop-color="#0F55A3"/>
<stop offset="0.253906" stop-color="#0D53A4"/>
<stop offset="0.257813" stop-color="#0B52A5"/>
<stop offset="0.261719" stop-color="#0950A7"/>
<stop offset="0.265625" stop-color="#074FA8"/>
<stop offset="0.269531" stop-color="#054DAA"/>
<stop offset="0.273438" stop-color="#034CAB"/>
<stop offset="0.277344" stop-color="#024BAC"/>
<stop offset="0.28125" stop-color="#014AAD"/>
<stop offset="0.285156" stop-color="#0249AD"/>
<stop offset="0.289062" stop-color="#0349AD"/>
<stop offset="0.292969" stop-color="#0449AD"/>
<stop offset="0.296875" stop-color="#0548AD"/>
<stop offset="0.300781" stop-color="#0648AC"/>
<stop offset="0.304688" stop-color="#0748AC"/>
<stop offset="0.308594" stop-color="#0947AC"/>
<stop offset="0.3125" stop-color="#0A47AC"/>
<stop offset="0.316406" stop-color="#0B47AC"/>
<stop offset="0.320312" stop-color="#0C46AC"/>
<stop offset="0.324219" stop-color="#0D46AC"/>
<stop offset="0.328125" stop-color="#0E46AC"/>
<stop offset="0.332031" stop-color="#0F45AC"/>
<stop offset="0.335937" stop-color="#1045AC"/>
<stop offset="0.339844" stop-color="#1145AC"/>
<stop offset="0.34375" stop-color="#1344AC"/>
<stop offset="0.347656" stop-color="#1444AC"/>
<stop offset="0.351563" stop-color="#1544AB"/>
<stop offset="0.355469" stop-color="#1643AB"/>
<stop offset="0.359375" stop-color="#1743AB"/>
<stop offset="0.363281" stop-color="#1843AB"/>
<stop offset="0.367188" stop-color="#1942AB"/>
<stop offset="0.371094" stop-color="#1A42AB"/>
<stop offset="0.375" stop-color="#1C42AB"/>
<stop offset="0.378906" stop-color="#1D41AB"/>
<stop offset="0.382812" stop-color="#1E41AB"/>
<stop offset="0.386719" stop-color="#1F40AB"/>
<stop offset="0.390625" stop-color="#2040AB"/>
<stop offset="0.394531" stop-color="#2140AB"/>
<stop offset="0.398437" stop-color="#223FAB"/>
<stop offset="0.402344" stop-color="#233FAB"/>
<stop offset="0.40625" stop-color="#253FAA"/>
<stop offset="0.410156" stop-color="#263EAA"/>
<stop offset="0.414062" stop-color="#273EAA"/>
<stop offset="0.417969" stop-color="#283EAA"/>
<stop offset="0.421875" stop-color="#293DAA"/>
<stop offset="0.425781" stop-color="#2A3DAA"/>
<stop offset="0.429688" stop-color="#2B3DAA"/>
<stop offset="0.433594" stop-color="#2C3CAA"/>
<stop offset="0.4375" stop-color="#2D3CAA"/>
<stop offset="0.441406" stop-color="#2F3CAA"/>
<stop offset="0.445312" stop-color="#303BAA"/>
<stop offset="0.449219" stop-color="#313BAA"/>
<stop offset="0.453125" stop-color="#323BAA"/>
<stop offset="0.457031" stop-color="#333AA9"/>
<stop offset="0.460938" stop-color="#343AA9"/>
<stop offset="0.464844" stop-color="#353AA9"/>
<stop offset="0.46875" stop-color="#3639A9"/>
<stop offset="0.472656" stop-color="#3839A9"/>
<stop offset="0.476562" stop-color="#3939A9"/>
<stop offset="0.480469" stop-color="#3A38A9"/>
<stop offset="0.484375" stop-color="#3B38A9"/>
<stop offset="0.488281" stop-color="#3C38A9"/>
<stop offset="0.492187" stop-color="#3D37A9"/>
<stop offset="0.496094" stop-color="#3E37A9"/>
<stop offset="0.5" stop-color="#3F37A9"/>
<stop offset="0.503906" stop-color="#4036A9"/>
<stop offset="0.507812" stop-color="#4236A9"/>
<stop offset="0.511719" stop-color="#4336A8"/>
<stop offset="0.515625" stop-color="#4435A8"/>
<stop offset="0.519531" stop-color="#4535A8"/>
<stop offset="0.523437" stop-color="#4635A8"/>
<stop offset="0.527344" stop-color="#4734A8"/>
<stop offset="0.53125" stop-color="#4834A8"/>
<stop offset="0.535156" stop-color="#4934A8"/>
<stop offset="0.539062" stop-color="#4B33A8"/>
<stop offset="0.542969" stop-color="#4C33A8"/>
<stop offset="0.546875" stop-color="#4D32A8"/>
<stop offset="0.550781" stop-color="#4E32A8"/>
<stop offset="0.554687" stop-color="#4F32A8"/>
<stop offset="0.558594" stop-color="#5031A8"/>
<stop offset="0.5625" stop-color="#5131A7"/>
<stop offset="0.566406" stop-color="#5231A7"/>
<stop offset="0.570312" stop-color="#5330A7"/>
<stop offset="0.574219" stop-color="#5530A7"/>
<stop offset="0.578125" stop-color="#5630A7"/>
<stop offset="0.582031" stop-color="#572FA7"/>
<stop offset="0.585938" stop-color="#582FA7"/>
<stop offset="0.589844" stop-color="#592FA7"/>
<stop offset="0.59375" stop-color="#5A2EA7"/>
<stop offset="0.597656" stop-color="#5B2EA7"/>
<stop offset="0.601562" stop-color="#5C2EA7"/>
<stop offset="0.605469" stop-color="#5E2DA7"/>
<stop offset="0.609375" stop-color="#5F2DA7"/>
<stop offset="0.613281" stop-color="#602DA6"/>
<stop offset="0.617187" stop-color="#612CA6"/>
<stop offset="0.621094" stop-color="#622CA6"/>
<stop offset="0.625" stop-color="#632CA6"/>
<stop offset="0.628906" stop-color="#642BA6"/>
<stop offset="0.632812" stop-color="#652BA6"/>
<stop offset="0.636719" stop-color="#672BA6"/>
<stop offset="0.640625" stop-color="#682AA6"/>
<stop offset="0.644531" stop-color="#692AA6"/>
<stop offset="0.648438" stop-color="#6A2AA6"/>
<stop offset="0.652344" stop-color="#6B29A6"/>
<stop offset="0.65625" stop-color="#6C29A6"/>
<stop offset="0.660156" stop-color="#6D29A6"/>
<stop offset="0.664062" stop-color="#6E28A6"/>
<stop offset="0.667969" stop-color="#6F28A5"/>
<stop offset="0.671875" stop-color="#7128A5"/>
<stop offset="0.675781" stop-color="#7227A5"/>
<stop offset="0.679688" stop-color="#7327A5"/>
<stop offset="0.683594" stop-color="#7427A5"/>
<stop offset="0.6875" stop-color="#7526A5"/>
<stop offset="0.691406" stop-color="#7626A5"/>
<stop offset="0.695312" stop-color="#7725A5"/>
<stop offset="0.699219" stop-color="#7825A5"/>
<stop offset="0.703125" stop-color="#7A25A5"/>
<stop offset="0.707031" stop-color="#7B24A5"/>
<stop offset="0.710937" stop-color="#7C24A5"/>
<stop offset="0.714844" stop-color="#7D24A5"/>
<stop offset="0.71875" stop-color="#7E23A4"/>
<stop offset="0.722656" stop-color="#7F23A4"/>
<stop offset="0.726562" stop-color="#8023A4"/>
<stop offset="0.730469" stop-color="#8122A4"/>
<stop offset="0.734375" stop-color="#8222A4"/>
<stop offset="0.738281" stop-color="#8422A4"/>
<stop offset="0.742188" stop-color="#8521A4"/>
<stop offset="0.746094" stop-color="#8621A4"/>
<stop offset="0.75" stop-color="#8721A4"/>
<stop offset="0.753906" stop-color="#8820A4"/>
<stop offset="0.757812" stop-color="#8920A4"/>
<stop offset="0.761719" stop-color="#8A20A4"/>
<stop offset="0.765625" stop-color="#8B1FA4"/>
<stop offset="0.769531" stop-color="#8D1FA3"/>
<stop offset="0.773438" stop-color="#8E1FA3"/>
<stop offset="0.777344" stop-color="#8F1EA3"/>
<stop offset="0.78125" stop-color="#901EA3"/>
<stop offset="0.785156" stop-color="#911EA3"/>
<stop offset="0.789062" stop-color="#921DA3"/>
<stop offset="0.792969" stop-color="#931DA3"/>
<stop offset="0.796875" stop-color="#941DA3"/>
<stop offset="0.800781" stop-color="#951CA3"/>
<stop offset="0.804688" stop-color="#971CA3"/>
<stop offset="0.808594" stop-color="#981CA3"/>
<stop offset="0.8125" stop-color="#991BA3"/>
<stop offset="0.816406" stop-color="#9A1BA3"/>
<stop offset="0.820312" stop-color="#9B1BA3"/>
<stop offset="0.824219" stop-color="#9C1AA2"/>
<stop offset="0.828125" stop-color="#9D1AA2"/>
<stop offset="0.832031" stop-color="#9E1AA2"/>
<stop offset="0.835938" stop-color="#A019A2"/>
<stop offset="0.839844" stop-color="#A119A2"/>
<stop offset="0.84375" stop-color="#A218A2"/>
<stop offset="0.847656" stop-color="#A318A2"/>
<stop offset="0.851562" stop-color="#A418A2"/>
<stop offset="0.855469" stop-color="#A517A2"/>
<stop offset="0.859375" stop-color="#A617A2"/>
<stop offset="0.863281" stop-color="#A717A2"/>
<stop offset="0.867188" stop-color="#A816A2"/>
<stop offset="0.871094" stop-color="#AA16A2"/>
<stop offset="0.875" stop-color="#AB16A1"/>
<stop offset="0.878906" stop-color="#AC15A1"/>
<stop offset="0.882812" stop-color="#AD15A1"/>
<stop offset="0.886719" stop-color="#AE15A1"/>
<stop offset="0.890625" stop-color="#AF14A1"/>
<stop offset="0.894531" stop-color="#B014A1"/>
<stop offset="0.898438" stop-color="#B114A1"/>
<stop offset="0.902344" stop-color="#B313A1"/>
<stop offset="0.90625" stop-color="#B413A1"/>
<stop offset="0.910156" stop-color="#B513A1"/>
<stop offset="0.914062" stop-color="#B612A1"/>
<stop offset="0.917969" stop-color="#B712A1"/>
<stop offset="0.921875" stop-color="#B812A1"/>
<stop offset="0.925781" stop-color="#B911A1"/>
<stop offset="0.929688" stop-color="#BA11A0"/>
<stop offset="0.933594" stop-color="#BC11A0"/>
<stop offset="0.9375" stop-color="#BD10A0"/>
<stop offset="0.941406" stop-color="#BE10A0"/>
<stop offset="0.945312" stop-color="#BF10A0"/>
<stop offset="0.949219" stop-color="#C00FA0"/>
<stop offset="0.953125" stop-color="#C10FA0"/>
<stop offset="0.957031" stop-color="#C20FA0"/>
<stop offset="0.960938" stop-color="#C30EA0"/>
<stop offset="0.964844" stop-color="#C40EA0"/>
<stop offset="0.96875" stop-color="#C60EA0"/>
<stop offset="0.972656" stop-color="#C70DA0"/>
<stop offset="0.976563" stop-color="#C80DA0"/>
<stop offset="0.980469" stop-color="#C90D9F"/>
<stop offset="0.984375" stop-color="#CA0C9F"/>
<stop offset="0.988281" stop-color="#CB0C9F"/>
<stop offset="0.992188" stop-color="#CC0B9F"/>
<stop offset="0.996094" stop-color="#CD0B9F"/>
<stop offset="1" stop-color="#CE0B9F"/>
</linearGradient>
</defs>
</svg>
