<svg width="40" height="59" viewBox="0 0 40 59" fill="none" xmlns="http://www.w3.org/2000/svg">
<path fill-rule="evenodd" clip-rule="evenodd" d="M33.7149 16.3433L21.0712 3.71904L19.3337 5.45442L19.3331 5.45388L17.5951 3.71904L15.6702 5.64064L16.0114 5.98179L16.6677 6.63706L17.4083 7.37547L16.0114 8.77026L15.2708 8.03185L14.6144 7.37547L14.2733 7.03542L12.3797 8.92571L12.4726 9.01855L14.242 10.7858L13.2801 11.7466L20.2302 18.6859C21.5225 19.976 21.5225 22.081 20.2302 23.3711L13.8847 29.7071L14.8476 30.6678L13.0782 32.4339L12.9854 32.5268L14.8789 34.4171L15.2201 34.077L15.8764 33.4208L16.617 32.6823L18.0139 34.077L17.2733 34.8155L16.617 35.4717L16.2758 35.8119L18.1996 37.7335L19.9388 35.9986L21.6768 37.7335L33.7149 25.7137C34.9913 24.44 35.6376 22.7689 35.6538 21.0929V20.9641C35.6376 19.2881 34.9913 17.6171 33.7149 16.3433ZM17.0045 41.4537L18.4015 40.0589L17.0045 38.664L15.6076 40.0589L17.0045 41.4537ZM19.9388 35.9986L21.8625 34.077L19.9388 32.1554L18.0139 34.077L19.9388 35.9986ZM17.4083 7.37547L19.3331 9.29708L21.258 7.37547L19.3337 5.45442L19.3331 5.45496L17.4083 7.37547ZM14.459 39.8883L13.5597 40.7864L12.6594 39.8883L13.5597 38.989L14.459 39.8883ZM10.1753 37.5014L9.49305 38.1837L8.80969 37.5014L9.49305 36.819L10.1753 37.5014ZM11.2927 39.5784L10.4398 40.4301L9.58589 39.5784L10.4398 38.7255L11.2927 39.5784ZM7.7852 38.1524L7.14935 38.7881L6.51242 38.1524L7.14935 37.5165L7.7852 38.1524ZM5.48791 37.4085L5.2245 37.6719L4.9611 37.4085L5.2245 37.1451L5.48791 37.4085ZM7.47537 36.2621L7.08673 36.6497V36.6486L6.69917 36.2621L7.08673 35.8745L7.47537 36.2621ZM9.53946 34.4171L8.96515 34.9915L8.39083 34.4171L8.96515 33.8438L9.53946 34.4171ZM11.0919 35.719L10.4711 36.3388L9.84929 35.719L10.4711 35.0995L11.0919 35.719ZM13.2952 31.1947L12.2869 32.2018L11.2775 31.1947L12.2869 30.1875L13.2952 31.1947ZM11.7277 33.1001L11.0443 33.7823L10.3621 33.1001L11.0443 32.4188L11.7277 33.1001ZM13.8382 34.7432L12.7058 35.8745L11.5723 34.7432L12.7058 33.6117L13.8382 34.7432ZM12.8764 37.6094L11.9145 38.5713L10.9515 37.6094L11.9145 36.6486L12.8764 37.6094ZM14.5216 36.8041L13.7141 37.6094L12.9077 36.8041L13.7141 35.9986L14.5216 36.8041ZM16.5544 35.0843L15.5461 36.0915L14.5367 35.0843L15.5461 34.077L16.5544 35.0843ZM17.2841 38.0747L15.9498 39.4079L14.6144 38.0747L15.9498 36.7425L17.2841 38.0747ZM17.9826 38.4308L18.883 37.5327L19.7833 38.4308L18.883 39.3301L17.9826 38.4308ZM13.8544 1.56427L12.9541 0.666084L12.0537 1.56427L12.9541 2.46353L13.8544 1.56427ZM9.57078 3.95115L8.88742 3.26995L8.20406 3.95115L8.88742 4.63343L9.57078 3.95115ZM10.6881 1.8741L9.83418 1.02233L8.98026 1.8741L9.83418 2.72695L10.6881 1.8741ZM7.18065 3.30019L6.54372 2.66541L5.90786 3.30019L6.54372 3.93604L7.18065 3.30019ZM4.88337 4.04399L4.61888 3.78058L4.35547 4.04399L4.61888 4.30741L4.88337 4.04399ZM6.86974 5.19048L6.48218 4.804L6.09354 5.19048L6.48218 5.57804L6.86974 5.19048ZM8.93383 7.03542L8.35951 6.46218L7.7852 7.03434L8.35951 7.60866L8.93383 7.03542ZM10.4862 5.73349L9.86548 5.11275L9.24474 5.73349L9.86548 6.35314L10.4862 5.73349ZM12.6907 10.2579L11.6813 9.25066L10.6719 10.2579L11.6813 11.2651L12.6907 10.2579ZM11.1232 8.35248L10.4398 7.6702L9.75645 8.35248L10.4398 9.03366L11.1232 8.35248ZM13.2337 6.7094L12.1002 5.57804L10.9677 6.7094L12.1002 7.84076L13.2337 6.7094ZM12.2707 3.8432L11.3088 2.88241L10.347 3.8432L11.3088 4.804L12.2707 3.8432ZM13.916 4.64854L13.1095 3.8432L12.302 4.64854L13.1095 5.45388L13.916 4.64854ZM15.9498 6.36935L14.9404 5.36104L13.9321 6.36935L14.9404 7.37547L15.9498 6.36935ZM16.6785 3.37791L15.3442 2.04467L14.0099 3.37791L15.3442 4.71008L16.6785 3.37791ZM17.7969 1.3937L16.4 0L15.0031 1.3937L16.4 2.78955L17.7969 1.3937ZM19.1777 3.02165L18.2773 2.1224L17.377 3.02165L18.2773 3.91985L19.1777 3.02165Z" fill="url(#paint0_linear_18_1028)"/>
<path d="M3.03137 55.2737L0 46.7236H2.21523L4.33548 53.2398L6.4557 46.7236H8.67093L5.63956 55.2737H3.03137Z" fill="#CE0B9F"/>
<path fill-rule="evenodd" clip-rule="evenodd" d="M12.2526 55.3599C11.2616 55.3599 10.4498 55.0426 9.81719 54.4056C9.1835 53.7665 8.86719 52.9191 8.86719 51.8622C8.86719 50.8064 9.18026 49.9654 9.80856 49.3404C10.439 48.7164 11.253 48.4033 12.2526 48.4033C13.2512 48.4033 14.0792 48.7132 14.7356 49.3317C15.3941 49.9482 15.7245 50.8042 15.7245 51.9011C15.7245 52.1342 15.7083 52.3534 15.677 52.5574H11.0004C11.0403 52.8575 11.1742 53.1037 11.402 53.2958C11.6287 53.4858 11.8737 53.5808 12.1361 53.5808C12.4006 53.5808 12.5981 53.5549 12.7277 53.5031C12.8572 53.4491 12.9522 53.3951 13.0127 53.3433C13.0753 53.2915 13.1552 53.2041 13.2502 53.0799H15.5042C15.311 53.7622 14.9213 54.3138 14.334 54.7338C13.7489 55.1516 13.0558 55.3599 12.2526 55.3599ZM13.5567 51.2533C13.5244 50.937 13.3862 50.679 13.1422 50.4804C12.8971 50.2817 12.6078 50.1824 12.2742 50.1824C11.9428 50.1824 11.6632 50.2817 11.4365 50.4804C11.2087 50.679 11.0662 50.937 11.009 51.2533H13.5567Z" fill="#CE0B9F"/>
<path fill-rule="evenodd" clip-rule="evenodd" d="M21.3649 53.1231C21.6639 52.8359 21.814 52.4236 21.814 51.8881C21.814 51.3527 21.6639 50.9381 21.3649 50.6445C21.0648 50.3508 20.7194 50.204 20.3285 50.204C19.9399 50.204 19.5945 50.3497 19.2922 50.6402C18.9921 50.9284 18.8431 51.3397 18.8431 51.8751C18.8431 52.4106 18.9921 52.8251 19.2922 53.1188C19.5945 53.4103 19.9399 53.5549 20.3285 53.5549C20.7194 53.5549 21.0648 53.4114 21.3649 53.1231ZM18.8431 49.3663C19.3062 48.725 19.9701 48.4033 20.8338 48.4033C21.6996 48.4033 22.4326 48.7304 23.0317 49.3836C23.633 50.0378 23.9342 50.8723 23.9342 51.8881C23.9342 52.9018 23.633 53.7341 23.0317 54.384C22.4326 55.035 21.7061 55.3599 20.8511 55.3599C19.9982 55.3599 19.3289 55.0015 18.8431 54.2847V58.5122H16.7617V48.4767H18.8431V49.3663Z" fill="#CE0B9F"/>
<path fill-rule="evenodd" clip-rule="evenodd" d="M29.0948 53.1188C29.397 52.8251 29.5482 52.4106 29.5482 51.8751C29.5482 51.3397 29.397 50.9284 29.0948 50.6402C28.7947 50.3497 28.4514 50.204 28.0627 50.204C27.6741 50.204 27.3286 50.3508 27.0264 50.6445C26.7262 50.9381 26.5773 51.3527 26.5773 51.8881C26.5773 52.4236 26.7262 52.8359 27.0264 53.1231C27.3286 53.4114 27.6741 53.5549 28.0627 53.5549C28.4514 53.5549 28.7947 53.4103 29.0948 53.1188ZM25.3552 54.384C24.7561 53.7341 24.457 52.9018 24.457 51.8881C24.457 50.8723 24.7561 50.0378 25.3552 49.3836C25.9565 48.7304 26.6895 48.4033 27.5532 48.4033C28.419 48.4033 29.084 48.725 29.5482 49.3663V48.4767H31.6296V55.2736H29.5482V54.2847C29.044 55.0015 28.3693 55.3599 27.523 55.3599C26.6788 55.3599 25.9565 55.035 25.3552 54.384Z" fill="#CE0B9F"/>
<path d="M34.9318 55.14L32.2891 48.4771H34.6554L36.1625 52.9248L37.8207 48.4771H40.0014L35.6659 58.5125H33.4852L34.9318 55.14Z" fill="#CE0B9F"/>
<defs>
<linearGradient id="paint0_linear_18_1028" x1="4.09837" y1="18.3362" x2="35.9717" y2="18.7818" gradientUnits="userSpaceOnUse">
<stop stop-color="#94B348"/>
<stop offset="0.00390625" stop-color="#92B24A"/>
<stop offset="0.0078125" stop-color="#90B04B"/>
<stop offset="0.0117188" stop-color="#8EAF4D"/>
<stop offset="0.015625" stop-color="#8CAD4E"/>
<stop offset="0.0195312" stop-color="#8AAC4F"/>
<stop offset="0.0234375" stop-color="#88AA51"/>
<stop offset="0.0273438" stop-color="#86A952"/>
<stop offset="0.03125" stop-color="#84A754"/>
<stop offset="0.0351563" stop-color="#82A655"/>
<stop offset="0.0390625" stop-color="#7FA456"/>
<stop offset="0.0429687" stop-color="#7DA358"/>
<stop offset="0.046875" stop-color="#7BA159"/>
<stop offset="0.0507813" stop-color="#79A05B"/>
<stop offset="0.0546875" stop-color="#779F5C"/>
<stop offset="0.0585938" stop-color="#759D5E"/>
<stop offset="0.0625" stop-color="#739C5F"/>
<stop offset="0.0664062" stop-color="#719A60"/>
<stop offset="0.0703125" stop-color="#6F9962"/>
<stop offset="0.0742187" stop-color="#6D9763"/>
<stop offset="0.078125" stop-color="#6B9665"/>
<stop offset="0.0820313" stop-color="#699466"/>
<stop offset="0.0859375" stop-color="#679367"/>
<stop offset="0.0898438" stop-color="#649169"/>
<stop offset="0.09375" stop-color="#62906A"/>
<stop offset="0.0976563" stop-color="#608E6C"/>
<stop offset="0.101563" stop-color="#5E8D6D"/>
<stop offset="0.105469" stop-color="#5C8B6E"/>
<stop offset="0.109375" stop-color="#5A8A70"/>
<stop offset="0.113281" stop-color="#588871"/>
<stop offset="0.117188" stop-color="#568773"/>
<stop offset="0.121094" stop-color="#548574"/>
<stop offset="0.125" stop-color="#528475"/>
<stop offset="0.128906" stop-color="#508377"/>
<stop offset="0.132812" stop-color="#4E8178"/>
<stop offset="0.136719" stop-color="#4C807A"/>
<stop offset="0.140625" stop-color="#497E7B"/>
<stop offset="0.144531" stop-color="#477D7D"/>
<stop offset="0.148437" stop-color="#457B7E"/>
<stop offset="0.152344" stop-color="#437A7F"/>
<stop offset="0.15625" stop-color="#417881"/>
<stop offset="0.160156" stop-color="#3F7782"/>
<stop offset="0.164063" stop-color="#3D7584"/>
<stop offset="0.167969" stop-color="#3B7485"/>
<stop offset="0.171875" stop-color="#397286"/>
<stop offset="0.175781" stop-color="#377188"/>
<stop offset="0.179687" stop-color="#356F89"/>
<stop offset="0.183594" stop-color="#336E8B"/>
<stop offset="0.1875" stop-color="#316C8C"/>
<stop offset="0.191406" stop-color="#2E6B8D"/>
<stop offset="0.195312" stop-color="#2C698F"/>
<stop offset="0.199219" stop-color="#2A6890"/>
<stop offset="0.203125" stop-color="#286792"/>
<stop offset="0.207031" stop-color="#266593"/>
<stop offset="0.210938" stop-color="#246494"/>
<stop offset="0.214844" stop-color="#226296"/>
<stop offset="0.21875" stop-color="#206197"/>
<stop offset="0.222656" stop-color="#1E5F99"/>
<stop offset="0.226562" stop-color="#1C5E9A"/>
<stop offset="0.230469" stop-color="#1A5C9B"/>
<stop offset="0.234375" stop-color="#185B9D"/>
<stop offset="0.238281" stop-color="#16599E"/>
<stop offset="0.242187" stop-color="#1358A0"/>
<stop offset="0.246094" stop-color="#1156A1"/>
<stop offset="0.25" stop-color="#0F55A3"/>
<stop offset="0.253906" stop-color="#0D53A4"/>
<stop offset="0.257813" stop-color="#0B52A5"/>
<stop offset="0.261719" stop-color="#0950A7"/>
<stop offset="0.265625" stop-color="#074FA8"/>
<stop offset="0.269531" stop-color="#054DAA"/>
<stop offset="0.273438" stop-color="#034CAB"/>
<stop offset="0.277344" stop-color="#024BAC"/>
<stop offset="0.28125" stop-color="#014AAD"/>
<stop offset="0.285156" stop-color="#0249AD"/>
<stop offset="0.289062" stop-color="#0349AD"/>
<stop offset="0.292969" stop-color="#0449AD"/>
<stop offset="0.296875" stop-color="#0548AD"/>
<stop offset="0.300781" stop-color="#0648AC"/>
<stop offset="0.304688" stop-color="#0748AC"/>
<stop offset="0.308594" stop-color="#0947AC"/>
<stop offset="0.3125" stop-color="#0A47AC"/>
<stop offset="0.316406" stop-color="#0B47AC"/>
<stop offset="0.320312" stop-color="#0C46AC"/>
<stop offset="0.324219" stop-color="#0D46AC"/>
<stop offset="0.328125" stop-color="#0E46AC"/>
<stop offset="0.332031" stop-color="#0F45AC"/>
<stop offset="0.335937" stop-color="#1045AC"/>
<stop offset="0.339844" stop-color="#1145AC"/>
<stop offset="0.34375" stop-color="#1344AC"/>
<stop offset="0.347656" stop-color="#1444AC"/>
<stop offset="0.351563" stop-color="#1544AB"/>
<stop offset="0.355469" stop-color="#1643AB"/>
<stop offset="0.359375" stop-color="#1743AB"/>
<stop offset="0.363281" stop-color="#1843AB"/>
<stop offset="0.367188" stop-color="#1942AB"/>
<stop offset="0.371094" stop-color="#1A42AB"/>
<stop offset="0.375" stop-color="#1C42AB"/>
<stop offset="0.378906" stop-color="#1D41AB"/>
<stop offset="0.382812" stop-color="#1E41AB"/>
<stop offset="0.386719" stop-color="#1F40AB"/>
<stop offset="0.390625" stop-color="#2040AB"/>
<stop offset="0.394531" stop-color="#2140AB"/>
<stop offset="0.398437" stop-color="#223FAB"/>
<stop offset="0.402344" stop-color="#233FAB"/>
<stop offset="0.40625" stop-color="#253FAA"/>
<stop offset="0.410156" stop-color="#263EAA"/>
<stop offset="0.414062" stop-color="#273EAA"/>
<stop offset="0.417969" stop-color="#283EAA"/>
<stop offset="0.421875" stop-color="#293DAA"/>
<stop offset="0.425781" stop-color="#2A3DAA"/>
<stop offset="0.429688" stop-color="#2B3DAA"/>
<stop offset="0.433594" stop-color="#2C3CAA"/>
<stop offset="0.4375" stop-color="#2D3CAA"/>
<stop offset="0.441406" stop-color="#2F3CAA"/>
<stop offset="0.445312" stop-color="#303BAA"/>
<stop offset="0.449219" stop-color="#313BAA"/>
<stop offset="0.453125" stop-color="#323BAA"/>
<stop offset="0.457031" stop-color="#333AA9"/>
<stop offset="0.460938" stop-color="#343AA9"/>
<stop offset="0.464844" stop-color="#353AA9"/>
<stop offset="0.46875" stop-color="#3639A9"/>
<stop offset="0.472656" stop-color="#3839A9"/>
<stop offset="0.476562" stop-color="#3939A9"/>
<stop offset="0.480469" stop-color="#3A38A9"/>
<stop offset="0.484375" stop-color="#3B38A9"/>
<stop offset="0.488281" stop-color="#3C38A9"/>
<stop offset="0.492187" stop-color="#3D37A9"/>
<stop offset="0.496094" stop-color="#3E37A9"/>
<stop offset="0.5" stop-color="#3F37A9"/>
<stop offset="0.503906" stop-color="#4036A9"/>
<stop offset="0.507812" stop-color="#4236A9"/>
<stop offset="0.511719" stop-color="#4336A8"/>
<stop offset="0.515625" stop-color="#4435A8"/>
<stop offset="0.519531" stop-color="#4535A8"/>
<stop offset="0.523437" stop-color="#4635A8"/>
<stop offset="0.527344" stop-color="#4734A8"/>
<stop offset="0.53125" stop-color="#4834A8"/>
<stop offset="0.535156" stop-color="#4934A8"/>
<stop offset="0.539062" stop-color="#4B33A8"/>
<stop offset="0.542969" stop-color="#4C33A8"/>
<stop offset="0.546875" stop-color="#4D32A8"/>
<stop offset="0.550781" stop-color="#4E32A8"/>
<stop offset="0.554687" stop-color="#4F32A8"/>
<stop offset="0.558594" stop-color="#5031A8"/>
<stop offset="0.5625" stop-color="#5131A7"/>
<stop offset="0.566406" stop-color="#5231A7"/>
<stop offset="0.570312" stop-color="#5330A7"/>
<stop offset="0.574219" stop-color="#5530A7"/>
<stop offset="0.578125" stop-color="#5630A7"/>
<stop offset="0.582031" stop-color="#572FA7"/>
<stop offset="0.585938" stop-color="#582FA7"/>
<stop offset="0.589844" stop-color="#592FA7"/>
<stop offset="0.59375" stop-color="#5A2EA7"/>
<stop offset="0.597656" stop-color="#5B2EA7"/>
<stop offset="0.601562" stop-color="#5C2EA7"/>
<stop offset="0.605469" stop-color="#5E2DA7"/>
<stop offset="0.609375" stop-color="#5F2DA7"/>
<stop offset="0.613281" stop-color="#602DA6"/>
<stop offset="0.617187" stop-color="#612CA6"/>
<stop offset="0.621094" stop-color="#622CA6"/>
<stop offset="0.625" stop-color="#632CA6"/>
<stop offset="0.628906" stop-color="#642BA6"/>
<stop offset="0.632812" stop-color="#652BA6"/>
<stop offset="0.636719" stop-color="#672BA6"/>
<stop offset="0.640625" stop-color="#682AA6"/>
<stop offset="0.644531" stop-color="#692AA6"/>
<stop offset="0.648438" stop-color="#6A2AA6"/>
<stop offset="0.652344" stop-color="#6B29A6"/>
<stop offset="0.65625" stop-color="#6C29A6"/>
<stop offset="0.660156" stop-color="#6D29A6"/>
<stop offset="0.664062" stop-color="#6E28A6"/>
<stop offset="0.667969" stop-color="#6F28A5"/>
<stop offset="0.671875" stop-color="#7128A5"/>
<stop offset="0.675781" stop-color="#7227A5"/>
<stop offset="0.679688" stop-color="#7327A5"/>
<stop offset="0.683594" stop-color="#7427A5"/>
<stop offset="0.6875" stop-color="#7526A5"/>
<stop offset="0.691406" stop-color="#7626A5"/>
<stop offset="0.695312" stop-color="#7725A5"/>
<stop offset="0.699219" stop-color="#7825A5"/>
<stop offset="0.703125" stop-color="#7A25A5"/>
<stop offset="0.707031" stop-color="#7B24A5"/>
<stop offset="0.710937" stop-color="#7C24A5"/>
<stop offset="0.714844" stop-color="#7D24A5"/>
<stop offset="0.71875" stop-color="#7E23A4"/>
<stop offset="0.722656" stop-color="#7F23A4"/>
<stop offset="0.726562" stop-color="#8023A4"/>
<stop offset="0.730469" stop-color="#8122A4"/>
<stop offset="0.734375" stop-color="#8222A4"/>
<stop offset="0.738281" stop-color="#8422A4"/>
<stop offset="0.742188" stop-color="#8521A4"/>
<stop offset="0.746094" stop-color="#8621A4"/>
<stop offset="0.75" stop-color="#8721A4"/>
<stop offset="0.753906" stop-color="#8820A4"/>
<stop offset="0.757812" stop-color="#8920A4"/>
<stop offset="0.761719" stop-color="#8A20A4"/>
<stop offset="0.765625" stop-color="#8B1FA4"/>
<stop offset="0.769531" stop-color="#8D1FA3"/>
<stop offset="0.773438" stop-color="#8E1FA3"/>
<stop offset="0.777344" stop-color="#8F1EA3"/>
<stop offset="0.78125" stop-color="#901EA3"/>
<stop offset="0.785156" stop-color="#911EA3"/>
<stop offset="0.789062" stop-color="#921DA3"/>
<stop offset="0.792969" stop-color="#931DA3"/>
<stop offset="0.796875" stop-color="#941DA3"/>
<stop offset="0.800781" stop-color="#951CA3"/>
<stop offset="0.804688" stop-color="#971CA3"/>
<stop offset="0.808594" stop-color="#981CA3"/>
<stop offset="0.8125" stop-color="#991BA3"/>
<stop offset="0.816406" stop-color="#9A1BA3"/>
<stop offset="0.820312" stop-color="#9B1BA3"/>
<stop offset="0.824219" stop-color="#9C1AA2"/>
<stop offset="0.828125" stop-color="#9D1AA2"/>
<stop offset="0.832031" stop-color="#9E1AA2"/>
<stop offset="0.835938" stop-color="#A019A2"/>
<stop offset="0.839844" stop-color="#A119A2"/>
<stop offset="0.84375" stop-color="#A218A2"/>
<stop offset="0.847656" stop-color="#A318A2"/>
<stop offset="0.851562" stop-color="#A418A2"/>
<stop offset="0.855469" stop-color="#A517A2"/>
<stop offset="0.859375" stop-color="#A617A2"/>
<stop offset="0.863281" stop-color="#A717A2"/>
<stop offset="0.867188" stop-color="#A816A2"/>
<stop offset="0.871094" stop-color="#AA16A2"/>
<stop offset="0.875" stop-color="#AB16A1"/>
<stop offset="0.878906" stop-color="#AC15A1"/>
<stop offset="0.882812" stop-color="#AD15A1"/>
<stop offset="0.886719" stop-color="#AE15A1"/>
<stop offset="0.890625" stop-color="#AF14A1"/>
<stop offset="0.894531" stop-color="#B014A1"/>
<stop offset="0.898438" stop-color="#B114A1"/>
<stop offset="0.902344" stop-color="#B313A1"/>
<stop offset="0.90625" stop-color="#B413A1"/>
<stop offset="0.910156" stop-color="#B513A1"/>
<stop offset="0.914062" stop-color="#B612A1"/>
<stop offset="0.917969" stop-color="#B712A1"/>
<stop offset="0.921875" stop-color="#B812A1"/>
<stop offset="0.925781" stop-color="#B911A1"/>
<stop offset="0.929688" stop-color="#BA11A0"/>
<stop offset="0.933594" stop-color="#BC11A0"/>
<stop offset="0.9375" stop-color="#BD10A0"/>
<stop offset="0.941406" stop-color="#BE10A0"/>
<stop offset="0.945312" stop-color="#BF10A0"/>
<stop offset="0.949219" stop-color="#C00FA0"/>
<stop offset="0.953125" stop-color="#C10FA0"/>
<stop offset="0.957031" stop-color="#C20FA0"/>
<stop offset="0.960938" stop-color="#C30EA0"/>
<stop offset="0.964844" stop-color="#C40EA0"/>
<stop offset="0.96875" stop-color="#C60EA0"/>
<stop offset="0.972656" stop-color="#C70DA0"/>
<stop offset="0.976563" stop-color="#C80DA0"/>
<stop offset="0.980469" stop-color="#C90D9F"/>
<stop offset="0.984375" stop-color="#CA0C9F"/>
<stop offset="0.988281" stop-color="#CB0C9F"/>
<stop offset="0.992188" stop-color="#CC0B9F"/>
<stop offset="0.996094" stop-color="#CD0B9F"/>
<stop offset="1" stop-color="#CE0B9F"/>
</linearGradient>
</defs>
</svg>
