<svg width="45" height="36" viewBox="0 0 45 36" fill="none" xmlns="http://www.w3.org/2000/svg">
<path d="M44.1071 34.6636V34.7534H44.191C44.2067 34.7537 44.2223 34.7497 44.236 34.742C44.2414 34.7381 44.2459 34.733 44.2488 34.727C44.2518 34.721 44.2531 34.7143 44.2528 34.7076C44.2531 34.7011 44.2517 34.6946 44.2488 34.6887C44.2458 34.6829 44.2414 34.6779 44.236 34.6742C44.2224 34.6661 44.2068 34.6621 44.191 34.6627H44.1071V34.6636ZM44.1919 34.6001C44.2279 34.5979 44.2635 34.6082 44.2927 34.6293C44.3044 34.6389 44.3137 34.651 44.3198 34.6648C44.3259 34.6786 44.3287 34.6937 44.328 34.7088C44.3285 34.7217 44.3263 34.7347 44.3214 34.7467C44.3165 34.7588 44.3091 34.7696 44.2996 34.7786C44.2771 34.7981 44.2489 34.8098 44.2191 34.812L44.3316 34.94H44.245L44.1415 34.8129H44.108V34.94H44.0355V34.6003H44.193L44.1919 34.6001ZM44.1694 35.0572C44.2074 35.0575 44.245 35.0499 44.2798 35.0347C44.3134 35.0203 44.344 34.9996 44.3698 34.9739C44.3958 34.9481 44.4165 34.9176 44.4308 34.8841C44.4603 34.8129 44.4603 34.733 44.4308 34.6618C44.4162 34.6284 44.3956 34.5979 44.3698 34.572C44.3439 34.5463 44.3134 34.5256 44.2798 34.5112C44.2448 34.4969 44.2073 34.4897 44.1694 34.4901C44.1309 34.4898 44.0927 34.4969 44.0569 34.5112C44.0226 34.5254 43.9913 34.546 43.9649 34.572C43.9251 34.6128 43.8982 34.6643 43.8875 34.7202C43.8768 34.7761 43.8828 34.8338 43.9048 34.8863C43.9185 34.92 43.939 34.9506 43.9649 34.9761C43.9913 35.0021 44.0226 35.0228 44.0569 35.037C44.0924 35.0521 44.1307 35.0597 44.1694 35.0594V35.0572ZM44.1694 34.4084C44.2683 34.4083 44.3632 34.447 44.4337 34.5161C44.4677 34.5494 44.4948 34.589 44.5134 34.6327C44.5326 34.6775 44.5425 34.7258 44.5425 34.7746C44.5425 34.8235 44.5326 34.8718 44.5134 34.9166C44.4944 34.9601 44.4674 34.9996 44.4337 35.0331C44.3992 35.0662 44.3591 35.0928 44.3152 35.1117C44.2691 35.1312 44.2195 35.1412 44.1694 35.1409C44.1187 35.1413 44.0685 35.1313 44.0218 35.1117C43.9774 35.0932 43.9369 35.0666 43.9023 35.0331C43.8687 34.9984 43.8421 34.9575 43.8238 34.9128C43.8046 34.8679 43.7947 34.8196 43.7947 34.7708C43.7947 34.722 43.8046 34.6737 43.8238 34.6288C43.8424 34.5851 43.8695 34.5455 43.9035 34.5123C43.9375 34.4783 43.9782 34.4516 44.0229 34.4338C44.0696 34.4141 44.1198 34.4042 44.1705 34.4046L44.1694 34.4084ZM9.72168 33.0967C9.72168 32.4491 10.1469 31.9171 10.8418 31.9171C11.5059 31.9171 11.9541 32.4262 11.9541 33.0967C11.9541 33.7673 11.5059 34.2764 10.8418 34.2764C10.1469 34.2764 9.72168 33.7444 9.72168 33.0967ZM12.7111 33.0967V31.2537H11.9082V31.7027C11.6535 31.3709 11.2672 31.1628 10.7419 31.1628C9.70706 31.1628 8.89491 31.9727 8.89491 33.0976C8.89491 34.2225 9.70661 35.0325 10.7419 35.0325C11.267 35.0325 11.6535 34.8241 11.9082 34.4926V34.94H12.7102V33.0967H12.7111ZM39.8409 33.0967C39.8409 32.4491 40.2661 31.9171 40.9613 31.9171C41.6261 31.9171 42.0735 32.4262 42.0735 33.0967C42.0735 33.7673 41.6261 34.2764 40.9613 34.2764C40.2663 34.2764 39.8409 33.7444 39.8409 33.0967ZM42.8313 33.0967V29.7744H42.0277V31.7027C41.773 31.3709 41.3867 31.1628 40.8614 31.1628C39.8265 31.1628 39.0144 31.9727 39.0144 33.0976C39.0144 34.2225 39.8261 35.0325 40.8614 35.0325C41.3867 35.0325 41.773 34.8241 42.0277 34.4926V34.94H42.8313V33.0967ZM22.6765 31.8791C23.1939 31.8791 23.5262 32.2028 23.611 32.7728H21.6951C21.7809 32.2408 22.1046 31.8791 22.6767 31.8791H22.6765ZM22.6927 31.1608C21.6105 31.1608 20.8535 31.9465 20.8535 33.0956C20.8535 34.2672 21.6409 35.0304 22.7464 35.0304C23.3026 35.0304 23.8119 34.8919 24.26 34.5141L23.8666 33.9204C23.557 34.1673 23.1629 34.3058 22.7923 34.3058C22.2749 34.3058 21.8038 34.0667 21.6879 33.4034H24.4297C24.4375 33.3037 24.4456 33.2031 24.4456 33.0954C24.4375 31.9467 23.7257 31.1605 22.6922 31.1605L22.6927 31.1608ZM32.3863 33.0954C32.3863 32.4477 32.8115 31.9157 33.5064 31.9157C34.1705 31.9157 34.6187 32.4248 34.6187 33.0954C34.6187 33.7659 34.1705 34.2751 33.5064 34.2751C32.8115 34.2751 32.386 33.743 32.386 33.0954H32.3863ZM35.3755 33.0954V31.2537H34.573V31.7027C34.3174 31.3709 33.932 31.1628 33.4067 31.1628C32.3719 31.1628 31.5597 31.9727 31.5597 33.0976C31.5597 34.2225 32.3714 35.0325 33.4067 35.0325C33.932 35.0325 34.3174 34.8241 34.573 34.4926V34.94H35.3757V33.0967L35.3755 33.0954ZM27.8519 33.0954C27.8519 34.2131 28.6317 35.0302 29.8218 35.0302C30.3779 35.0302 30.7485 34.9068 31.1491 34.5909L30.7635 33.9433C30.4621 34.1594 30.1455 34.2751 29.7962 34.2751C29.1552 34.2672 28.6839 33.8048 28.6839 33.0954C28.6839 32.386 29.1552 31.9238 29.7962 31.9157C30.1446 31.9157 30.4612 32.0313 30.7635 32.2475L31.1491 31.5999C30.7478 31.284 30.3773 31.1605 29.8218 31.1605C28.6317 31.1605 27.8519 31.9774 27.8519 33.0954ZM38.2029 31.1605C37.7397 31.1605 37.438 31.3767 37.2295 31.7004V31.2537H36.4337V34.938H37.2375V32.8727C37.2375 32.263 37.5001 31.9242 38.025 31.9242C38.1968 31.9218 38.3675 31.9533 38.5271 32.017L38.7746 31.2618C38.5968 31.192 38.3651 31.1612 38.2025 31.1612L38.2029 31.1605ZM16.6807 31.5467C16.2945 31.2925 15.7622 31.1612 15.175 31.1612C14.2396 31.1612 13.6373 31.6086 13.6373 32.3407C13.6373 32.9414 14.0857 33.312 14.9113 33.4276L15.2906 33.4815C15.7309 33.5432 15.9388 33.6588 15.9388 33.8669C15.9388 34.1518 15.6463 34.3143 15.0972 34.3143C14.541 34.3143 14.1397 34.137 13.869 33.9289L13.4918 34.5536C13.932 34.8773 14.4882 35.0318 15.0904 35.0318C16.1568 35.0318 16.7748 34.5307 16.7748 33.8292C16.7748 33.1816 16.2884 32.8428 15.4848 32.7272L15.1064 32.6725C14.7588 32.6276 14.4803 32.5577 14.4803 32.3108C14.4803 32.0414 14.7428 31.8793 15.1833 31.8793C15.6546 31.8793 16.1109 32.0567 16.3345 32.1952L16.6821 31.5476L16.6807 31.5467ZM27.0409 31.1619C26.5777 31.1619 26.276 31.3781 26.0684 31.7018V31.2537H25.2726V34.938H26.0756V32.8727C26.0756 32.263 26.3381 31.9242 26.863 31.9242C27.0348 31.9218 27.2055 31.9533 27.3651 32.017L27.6126 31.2618C27.4348 31.192 27.2031 31.1612 27.0405 31.1612L27.0409 31.1619ZM20.1892 31.2537H18.8762V30.136H18.0645V31.2537H17.3156V31.986H18.0645V33.6667C18.0645 34.5215 18.397 35.0307 19.3469 35.0307C19.6954 35.0307 20.0967 34.9229 20.3514 34.7458L20.1194 34.0598C19.8798 34.1983 19.6173 34.2681 19.4085 34.2681C19.0072 34.2681 18.8762 34.0212 18.8762 33.6514V31.9867H20.1892V31.2537ZM8.1849 34.9389V32.6267C8.1849 31.7559 7.62877 31.17 6.73225 31.1621C6.26094 31.1543 5.77477 31.3006 5.43439 31.8176C5.17972 31.4091 4.77837 31.1621 4.21414 31.1621C3.81977 31.1621 3.43439 31.2777 3.1327 31.7092V31.2537H2.3291V34.938H3.139V32.8951C3.139 32.2556 3.49446 31.9157 4.04339 31.9157C4.57657 31.9157 4.84631 32.2625 4.84631 32.8871V34.9375H5.65801V32.8947C5.65801 32.2551 6.02854 31.9153 6.5615 31.9153C7.10976 31.9153 7.3714 32.2621 7.3714 32.8866V34.9371L8.1849 34.9389Z" fill="white"/>
<path d="M44.5654 22.6834V22.1447H44.4248L44.2622 22.5144L44.1004 22.1447H43.9594V22.6834H44.0592V22.2775L44.2113 22.6277H44.3148L44.4669 22.2767V22.6834H44.5659H44.5654ZM43.6734 22.6834V22.2369H43.8534V22.146H43.3936V22.2369H43.5735V22.6834H43.6725H43.6734Z" fill="#F7F7F7"/>
<path d="M28.5838 24.994H16.416V3.17407H28.5841L28.5838 24.994Z" fill="white"/>
<path d="M17.1879 14.0844C17.1879 9.65823 19.2648 5.71537 22.499 3.17443C20.0509 1.24823 17.0229 0.202816 13.9053 0.207413C6.22542 0.207413 0 6.42026 0 14.0844C0 21.7485 6.22542 27.9614 13.9053 27.9614C17.023 27.966 20.051 26.9206 22.4992 24.9944C19.2652 22.4539 17.1879 18.5108 17.1879 14.0844Z" fill="#EBEBEB"/>
<path d="M45.0003 14.0845C45.0003 21.7487 38.7749 27.9615 31.0951 27.9615C27.977 27.9661 24.9486 26.9207 22.5 24.9945C25.7351 22.4535 27.812 18.5109 27.812 14.0845C27.812 9.65812 25.7351 5.7155 22.5 3.17455C24.9486 1.24841 27.9769 0.203019 31.0948 0.207534C38.7747 0.207534 45.0001 6.42038 45.0001 14.0845" fill="#F7F7F7"/>
</svg>
