<svg width="40" height="40" viewBox="0 0 40 40" fill="none" xmlns="http://www.w3.org/2000/svg">
<circle cx="20" cy="20" r="20" fill="#BF13BF"/>
<path d="M22.4999 21.2499C22.4999 21.1078 22.5563 20.9715 22.6568 20.8711C22.7572 20.7706 22.8935 20.7141 23.0356 20.7141H24.4641C24.6062 20.7141 24.7425 20.7706 24.843 20.8711C24.9434 20.9715 24.9999 21.1078 24.9999 21.2499C24.9999 21.3919 24.9434 21.5282 24.843 21.6287C24.7425 21.7291 24.6062 21.7856 24.4641 21.7856H23.0356C22.8935 21.7856 22.7572 21.7291 22.6568 21.6287C22.5563 21.5282 22.4999 21.3919 22.4999 21.2499ZM13.5713 14.9999H13.5813C13.6252 14.607 13.8124 14.2441 14.107 13.9806C14.4017 13.717 14.7831 13.5713 15.1784 13.5713H23.3927C23.6038 13.5713 23.8128 13.6129 24.0077 13.6936C24.2027 13.7744 24.3799 13.8928 24.5291 14.042C24.6784 14.1912 24.7968 14.3684 24.8775 14.5634C24.9583 14.7584 24.9999 14.9674 24.9999 15.1784V15.7763C25.5083 15.897 25.9612 16.1857 26.2852 16.5957C26.6093 17.0057 26.7856 17.513 26.7856 18.0356V24.107C26.7856 24.7227 26.541 25.3131 26.1056 25.7485C25.6703 26.1839 25.0798 26.4284 24.4641 26.4284H15.8927C15.277 26.4284 14.6866 26.1839 14.2512 25.7485C13.8159 25.3131 13.5713 24.7227 13.5713 24.107V14.9999ZM24.4641 16.7856H14.6427V24.107C14.6427 24.797 15.2027 25.357 15.8927 25.357H24.4641C24.7957 25.357 25.1136 25.2253 25.348 24.9909C25.5824 24.7565 25.7141 24.4385 25.7141 24.107V18.0356C25.7141 17.7041 25.5824 17.3861 25.348 17.1517C25.1136 16.9173 24.7957 16.7856 24.4641 16.7856ZM23.9284 15.7141V15.1784C23.9284 15.0364 23.872 14.9001 23.7715 14.7996C23.6711 14.6992 23.5348 14.6427 23.3927 14.6427H15.1784C15.0364 14.6427 14.9001 14.6992 14.7996 14.7996C14.6992 14.9001 14.6427 15.0364 14.6427 15.1784C14.6427 15.3205 14.6992 15.4568 14.7996 15.5572C14.9001 15.6577 15.0364 15.7141 15.1784 15.7141H23.9284Z" fill="white"/>
</svg>
