<svg width="31" height="25" viewBox="0 0 31 25" fill="none" xmlns="http://www.w3.org/2000/svg">
<path d="M30.3847 23.7362V23.7981H30.4425C30.4533 23.7983 30.464 23.7956 30.4735 23.7902C30.4772 23.7876 30.4803 23.784 30.4823 23.7799C30.4843 23.7757 30.4853 23.7712 30.4851 23.7666C30.4853 23.762 30.4843 23.7576 30.4823 23.7535C30.4802 23.7495 30.4772 23.746 30.4735 23.7435C30.4641 23.7379 30.4533 23.7352 30.4425 23.7356H30.3847V23.7362ZM30.4431 23.6925C30.4679 23.691 30.4924 23.6981 30.5125 23.7126C30.5206 23.7192 30.527 23.7276 30.5312 23.7371C30.5354 23.7466 30.5374 23.7569 30.5368 23.7673C30.5372 23.7763 30.5357 23.7852 30.5323 23.7935C30.5289 23.8018 30.5238 23.8093 30.5173 23.8154C30.5018 23.8289 30.4823 23.837 30.4618 23.8385L30.5393 23.9266H30.4797L30.4084 23.8391H30.3853V23.9266H30.3354V23.6926H30.4439L30.4431 23.6925ZM30.4276 24.0073C30.4538 24.0076 30.4797 24.0023 30.5037 23.9919C30.5268 23.9819 30.5478 23.9677 30.5657 23.95C30.5835 23.9322 30.5978 23.9112 30.6077 23.8881C30.628 23.8391 30.628 23.784 30.6077 23.735C30.5976 23.712 30.5834 23.691 30.5657 23.6732C30.5478 23.6554 30.5268 23.6412 30.5037 23.6312C30.4795 23.6214 30.4537 23.6164 30.4276 23.6167C30.401 23.6165 30.3747 23.6214 30.3501 23.6312C30.3264 23.641 30.3049 23.6552 30.2867 23.6732C30.2593 23.7012 30.2407 23.7367 30.2334 23.7752C30.226 23.8137 30.2302 23.8535 30.2453 23.8897C30.2548 23.9129 30.2688 23.9339 30.2867 23.9515C30.3049 23.9694 30.3265 23.9837 30.3501 23.9934C30.3746 24.0039 30.401 24.0091 30.4276 24.0089V24.0073ZM30.4276 23.5604C30.4957 23.5604 30.5611 23.587 30.6097 23.6346C30.6331 23.6575 30.6518 23.6848 30.6645 23.7149C30.6778 23.7458 30.6846 23.7791 30.6846 23.8127C30.6846 23.8463 30.6778 23.8796 30.6645 23.9105C30.6515 23.9405 30.6328 23.9677 30.6097 23.9908C30.5859 24.0135 30.5582 24.0319 30.528 24.0449C30.4963 24.0584 30.4621 24.0652 30.4276 24.065C30.3927 24.0653 30.3581 24.0584 30.3259 24.0449C30.2953 24.0322 30.2674 24.0138 30.2436 23.9908C30.2205 23.9669 30.2021 23.9387 30.1895 23.9079C30.1763 23.877 30.1695 23.8437 30.1695 23.8101C30.1695 23.7765 30.1763 23.7432 30.1895 23.7123C30.2023 23.6822 30.221 23.6549 30.2444 23.632C30.2679 23.6086 30.2959 23.5902 30.3267 23.5779C30.3589 23.5644 30.3935 23.5575 30.4284 23.5578L30.4276 23.5604ZM6.69712 22.6568C6.69712 22.2107 6.99003 21.8442 7.46876 21.8442C7.92626 21.8442 8.23498 22.1949 8.23498 22.6568C8.23498 23.1188 7.92626 23.4695 7.46876 23.4695C6.99003 23.4695 6.69712 23.103 6.69712 22.6568ZM8.75649 22.6568V21.3872H8.20336V21.6965C8.02793 21.4679 7.76183 21.3246 7.39995 21.3246C6.68705 21.3246 6.12757 21.8825 6.12757 22.6575C6.12757 23.4324 6.68674 23.9903 7.39995 23.9903C7.76167 23.9903 8.02793 23.8468 8.20336 23.6184V23.9266H8.75587V22.6568H8.75649ZM27.4458 22.6568C27.4458 22.2107 27.7387 21.8442 28.2176 21.8442C28.6755 21.8442 28.9838 22.1949 28.9838 22.6568C28.9838 23.1188 28.6755 23.4695 28.2176 23.4695C27.7388 23.4695 27.4458 23.103 27.4458 22.6568ZM29.5058 22.6568V20.3681H28.9522V21.6965C28.7767 21.4679 28.5106 21.3246 28.1488 21.3246C27.4359 21.3246 26.8764 21.8825 26.8764 22.6575C26.8764 23.4324 27.4355 23.9903 28.1488 23.9903C28.5106 23.9903 28.7767 23.8468 28.9522 23.6184V23.9266H29.5058V22.6568ZM15.6215 21.818C15.9779 21.818 16.2068 22.041 16.2652 22.4337H14.9454C15.0045 22.0672 15.2275 21.818 15.6216 21.818H15.6215ZM15.6326 21.3232C14.8872 21.3232 14.3657 21.8644 14.3657 22.6561C14.3657 23.4631 14.9081 23.9889 15.6697 23.9889C16.0528 23.9889 16.4036 23.8935 16.7124 23.6333L16.4413 23.2242C16.228 23.3943 15.9565 23.4897 15.7013 23.4897C15.3448 23.4897 15.0203 23.3251 14.9405 22.8681H16.8292C16.8346 22.7994 16.8402 22.7301 16.8402 22.6559C16.8346 21.8646 16.3443 21.323 15.6323 21.323L15.6326 21.3232ZM22.3104 22.6559C22.3104 22.2098 22.6033 21.8433 23.082 21.8433C23.5395 21.8433 23.8482 22.194 23.8482 22.6559C23.8482 23.1178 23.5395 23.4686 23.082 23.4686C22.6033 23.4686 22.3102 23.1021 22.3102 22.6559H22.3104ZM24.3696 22.6559V21.3872H23.8168V21.6965C23.6407 21.4679 23.3752 21.3246 23.0134 21.3246C22.3005 21.3246 21.741 21.8825 21.741 22.6575C21.741 23.4324 22.3001 23.9903 23.0134 23.9903C23.3752 23.9903 23.6407 23.8468 23.8168 23.6184V23.9266H24.3697V22.6568L24.3696 22.6559ZM19.1868 22.6559C19.1868 23.4259 19.7239 23.9888 20.5438 23.9888C20.9269 23.9888 21.1821 23.9037 21.4581 23.6861L21.1925 23.24C20.9848 23.3889 20.7668 23.4686 20.5261 23.4686C20.0846 23.4631 19.7599 23.1446 19.7599 22.6559C19.7599 22.1672 20.0846 21.8488 20.5261 21.8433C20.7662 21.8433 20.9842 21.9229 21.1925 22.0718L21.4581 21.6257C21.1817 21.4081 20.9264 21.323 20.5438 21.323C19.7239 21.323 19.1868 21.8858 19.1868 22.6559ZM26.3174 21.323C25.9983 21.323 25.7904 21.472 25.6468 21.6949V21.3872H25.0986V23.9252H25.6523V22.5025C25.6523 22.0825 25.8332 21.8491 26.1948 21.8491C26.3132 21.8474 26.4307 21.8691 26.5407 21.913L26.7112 21.3928C26.5887 21.3447 26.4291 21.3235 26.3171 21.3235L26.3174 21.323ZM11.4911 21.589C11.225 21.414 10.8583 21.3235 10.4538 21.3235C9.80942 21.3235 9.39454 21.6317 9.39454 22.136C9.39454 22.5498 9.70341 22.8051 10.2722 22.8848L10.5335 22.9219C10.8368 22.9644 10.98 23.0441 10.98 23.1874C10.98 23.3837 10.7785 23.4956 10.4002 23.4956C10.0171 23.4956 9.74061 23.3735 9.55417 23.2301L9.29426 23.6605C9.59756 23.8835 9.98067 23.9899 10.3955 23.9899C11.1302 23.9899 11.5559 23.6447 11.5559 23.1614C11.5559 22.7153 11.2208 22.4819 10.6672 22.4023L10.4066 22.3646C10.1671 22.3336 9.97524 22.2855 9.97524 22.1154C9.97524 21.9299 10.1561 21.8182 10.4596 21.8182C10.7842 21.8182 11.0985 21.9404 11.2526 22.0358L11.492 21.5896L11.4911 21.589ZM18.6281 21.324C18.309 21.324 18.1011 21.4729 17.9581 21.6959V21.3872H17.4099V23.9252H17.963V22.5025C17.963 22.0825 18.1439 21.8491 18.5055 21.8491C18.6239 21.8474 18.7414 21.8691 18.8514 21.913L19.0219 21.3928C18.8994 21.3447 18.7398 21.3235 18.6277 21.3235L18.6281 21.324ZM13.908 21.3872H13.0035V20.6172H12.4444V21.3872H11.9285V21.8917H12.4444V23.0495C12.4444 23.6384 12.6734 23.9891 13.3278 23.9891C13.5678 23.9891 13.8443 23.9149 14.0197 23.7929L13.86 23.3203C13.6949 23.4157 13.514 23.4638 13.3702 23.4638C13.0937 23.4638 13.0035 23.2937 13.0035 23.039V21.8921H13.908V21.3872ZM5.63845 23.9258V22.333C5.63845 21.7331 5.25534 21.3295 4.63775 21.3241C4.31307 21.3187 3.97816 21.4195 3.74367 21.7757C3.56824 21.4942 3.29175 21.3241 2.90307 21.3241C2.63139 21.3241 2.36591 21.4038 2.15808 21.701V21.3872H1.60449V23.9252H2.16242V22.518C2.16242 22.0774 2.40729 21.8433 2.78544 21.8433C3.15274 21.8433 3.33856 22.0822 3.33856 22.5124V23.9249H3.89772V22.5177C3.89772 22.0771 4.15298 21.8429 4.52012 21.8429C4.89781 21.8429 5.07805 22.0819 5.07805 22.5121V23.9246L5.63845 23.9258Z" fill="#333333"/>
<path d="M30.7008 15.4833V15.1121H30.604L30.4919 15.3668L30.3805 15.1121H30.2833V15.4833H30.3521V15.2037L30.4569 15.4449H30.5282L30.633 15.2031V15.4833H30.7012H30.7008ZM30.0864 15.4833V15.1757H30.2103V15.1131H29.8936V15.1757H30.0175V15.4833H30.0857H30.0864Z" fill="#F79410"/>
<path d="M19.6908 17.075H11.3086V2.04358H19.691L19.6908 17.075Z" fill="#FF5F00"/>
<path d="M11.8404 9.55951C11.8404 6.5104 13.2712 3.79423 15.4992 2.04382C13.8127 0.716891 11.7268 -0.00327815 9.57913 -0.000111673C4.28859 -0.000111673 0 4.27981 0 9.55951C0 14.8392 4.28859 19.1191 9.57913 19.1191C11.7269 19.1223 13.8128 18.4022 15.4993 17.0752C13.2715 15.3251 11.8404 12.6088 11.8404 9.55951Z" fill="#EB001B"/>
<path d="M31.0001 9.55964C31.0001 14.8393 26.7115 19.1193 21.421 19.1193C19.273 19.1224 17.1868 18.4023 15.5 17.0753C17.7286 15.3249 19.1594 12.6089 19.1594 9.55964C19.1594 6.51037 17.7286 3.79435 15.5 2.04394C17.1868 0.717053 19.2729 -0.00310058 21.4208 1.00348e-05C26.7114 1.00348e-05 31 4.27994 31 9.55964" fill="#F79E1B"/>
</svg>
