<svg width="51" height="34" viewBox="0 0 51 34" fill="none" xmlns="http://www.w3.org/2000/svg">
<path d="M25.745 3.97552C24.0296 3.97828 22.3847 4.65881 21.1687 5.86886C19.9527 7.07892 19.2641 8.72047 19.2529 10.4359V23.5788C19.3206 25.2539 20.0336 26.8379 21.2427 27.9991C22.4518 29.1604 24.0633 29.8089 25.7398 29.8089C27.4162 29.8089 29.0277 29.1604 30.2368 27.9991C31.4459 26.8379 32.159 25.2539 32.2266 23.5788V10.4359C32.2182 8.72144 31.532 7.07987 30.3177 5.86952C29.1033 4.65916 27.4596 3.9783 25.745 3.97552Z" fill="url(#paint0_linear_18_540)"/>
<path d="M25.7441 3.03459C27.5449 3.03864 29.2824 3.69908 30.6313 4.8922C31.9801 6.08533 32.8477 7.72929 33.0715 9.51613H40.0606V0H11.417V9.51613H18.4061C18.6301 7.72748 19.4992 6.08208 20.8503 4.88872C22.2013 3.69535 23.9414 3.03607 25.7441 3.03459Z" fill="url(#paint1_linear_18_540)"/>
<path d="M40.9707 9.5478H50.6349V4.85318C50.6349 3.58845 50.1325 2.37553 49.2382 1.48123C48.3439 0.58694 47.1309 0.0845337 45.8662 0.0845337H40.9707V9.5478Z" fill="url(#paint2_linear_18_540)"/>
<path d="M25.7441 30.9697C23.9414 30.9682 22.2013 30.3089 20.8503 29.1156C19.4992 27.9222 18.6301 26.2768 18.4061 24.4882H11.417V33.9409H40.0606V24.4882H33.0715C32.8477 26.275 31.9801 27.919 30.6313 29.1121C29.2824 30.3052 27.5449 30.9657 25.7441 30.9697Z" fill="url(#paint3_linear_18_540)"/>
<path d="M50.6349 10.4466H33.1357V10.4572V23.5683V23.5789H50.6349V10.4466Z" fill="url(#paint4_linear_18_540)"/>
<path d="M10.5091 24.4882H0.855481V29.1722C0.854086 29.7988 0.97648 30.4196 1.21563 30.9987C1.45479 31.5779 1.80599 32.1042 2.24907 32.5473C2.69216 32.9903 3.21841 33.3415 3.79759 33.5807C4.37678 33.8199 4.99751 33.9422 5.62412 33.9409H10.5091V24.4882Z" fill="url(#paint5_linear_18_540)"/>
<path d="M40.9707 24.4882V33.9409H45.8662C47.1309 33.9409 48.3439 33.4384 49.2382 32.5441C50.1325 31.6499 50.6349 30.4369 50.6349 29.1722V24.4882H40.9707Z" fill="url(#paint6_linear_18_540)"/>
<path d="M0.855469 23.5789H18.3546V23.5683V10.4572V10.4466H0.855469V23.5789Z" fill="url(#paint7_linear_18_540)"/>
<path d="M10.5091 9.54782V0.031689H5.62412C4.99751 0.030295 4.37678 0.152684 3.79759 0.391837C3.21841 0.63099 2.69216 0.982196 2.24907 1.42528C1.80599 1.86837 1.45479 2.39461 1.21563 2.97379C0.97648 3.55298 0.854086 4.17371 0.855481 4.80032V9.49495L10.5091 9.54782Z" fill="url(#paint8_linear_18_540)"/>
<defs>
<linearGradient id="paint0_linear_18_540" x1="1.79611" y1="32.0693" x2="54.9913" y2="-1.37466" gradientUnits="userSpaceOnUse">
<stop stop-color="#FADF14"/>
<stop offset="0.5" stop-color="#FFB42E"/>
<stop offset="1" stop-color="#E66712"/>
</linearGradient>
<linearGradient id="paint1_linear_18_540" x1="-3.70309" y1="23.3251" x2="49.4921" y2="-10.1188" gradientUnits="userSpaceOnUse">
<stop stop-color="#FADF14"/>
<stop offset="0.5" stop-color="#FFB42E"/>
<stop offset="1" stop-color="#E66712"/>
</linearGradient>
<linearGradient id="paint2_linear_18_540" x1="1.98628" y1="32.3654" x2="55.1709" y2="-1.07853" gradientUnits="userSpaceOnUse">
<stop stop-color="#FADF14"/>
<stop offset="0.5" stop-color="#FFB42E"/>
<stop offset="1" stop-color="#E66712"/>
</linearGradient>
<linearGradient id="paint3_linear_18_540" x1="7.29333" y1="40.8136" x2="60.4885" y2="7.3697" gradientUnits="userSpaceOnUse">
<stop stop-color="#FADF14"/>
<stop offset="0.5" stop-color="#FFB42E"/>
<stop offset="1" stop-color="#E66712"/>
</linearGradient>
<linearGradient id="paint4_linear_18_540" x1="6.37424" y1="39.3439" x2="59.5589" y2="5.89996" gradientUnits="userSpaceOnUse">
<stop stop-color="#FADF14"/>
<stop offset="0.5" stop-color="#FFB42E"/>
<stop offset="1" stop-color="#E66712"/>
</linearGradient>
<linearGradient id="paint5_linear_18_540" x1="1.61677" y1="31.7733" x2="54.8014" y2="-1.67064" gradientUnits="userSpaceOnUse">
<stop stop-color="#FADF14"/>
<stop offset="0.5" stop-color="#FFB42E"/>
<stop offset="1" stop-color="#E66712"/>
</linearGradient>
<linearGradient id="paint6_linear_18_540" x1="12.5069" y1="49.0927" x2="65.6915" y2="15.6487" gradientUnits="userSpaceOnUse">
<stop stop-color="#FADF14"/>
<stop offset="0.5" stop-color="#FFB42E"/>
<stop offset="1" stop-color="#E66712"/>
</linearGradient>
<linearGradient id="paint7_linear_18_540" x1="-2.77124" y1="24.7948" x2="50.4134" y2="-8.64913" gradientUnits="userSpaceOnUse">
<stop stop-color="#FADF14"/>
<stop offset="0.5" stop-color="#FFB42E"/>
<stop offset="1" stop-color="#E66712"/>
</linearGradient>
<linearGradient id="paint8_linear_18_540" x1="-8.90384" y1="15.0566" x2="44.2914" y2="-18.3979" gradientUnits="userSpaceOnUse">
<stop stop-color="#FADF14"/>
<stop offset="0.5" stop-color="#FFB42E"/>
<stop offset="1" stop-color="#E66712"/>
</linearGradient>
</defs>
</svg>
