<svg width="45" height="35" viewBox="0 0 45 35" fill="none" xmlns="http://www.w3.org/2000/svg">
<path d="M44.1071 34.4561V34.5459H44.191C44.2067 34.5462 44.2223 34.5422 44.236 34.5345C44.2414 34.5306 44.2459 34.5254 44.2488 34.5194C44.2518 34.5134 44.2531 34.5068 44.2528 34.5001C44.2531 34.4936 44.2517 34.4871 44.2488 34.4812C44.2458 34.4753 44.2414 34.4703 44.236 34.4667C44.2224 34.4585 44.2068 34.4546 44.191 34.4552H44.1071V34.4561ZM44.1919 34.3926C44.2279 34.3904 44.2635 34.4007 44.2927 34.4218C44.3044 34.4313 44.3137 34.4435 44.3198 34.4573C44.3259 34.4711 44.3287 34.4862 44.328 34.5012C44.3285 34.5142 44.3263 34.5272 44.3214 34.5392C44.3165 34.5512 44.3091 34.5621 44.2996 34.5711C44.2771 34.5906 44.2489 34.6023 44.2191 34.6045L44.3316 34.7325H44.245L44.1415 34.6054H44.108V34.7325H44.0355V34.3928H44.193L44.1919 34.3926ZM44.1694 34.8496C44.2074 34.85 44.245 34.8423 44.2798 34.8272C44.3134 34.8128 44.344 34.7921 44.3698 34.7664C44.3958 34.7406 44.4165 34.7101 44.4308 34.6766C44.4603 34.6054 44.4603 34.5255 44.4308 34.4543C44.4162 34.4209 44.3956 34.3904 44.3698 34.3645C44.3439 34.3388 44.3134 34.3181 44.2798 34.3037C44.2448 34.2894 44.2073 34.2822 44.1694 34.2826C44.1309 34.2822 44.0927 34.2894 44.0569 34.3037C44.0226 34.3178 43.9913 34.3385 43.9649 34.3645C43.9251 34.4053 43.8982 34.4568 43.8875 34.5127C43.8768 34.5685 43.8828 34.6263 43.9048 34.6788C43.9185 34.7125 43.939 34.743 43.9649 34.7686C43.9913 34.7946 44.0226 34.8153 44.0569 34.8294C44.0924 34.8446 44.1307 34.8522 44.1694 34.8519V34.8496ZM44.1694 34.2009C44.2683 34.2008 44.3632 34.2395 44.4337 34.3086C44.4677 34.3418 44.4948 34.3814 44.5134 34.4251C44.5326 34.47 44.5425 34.5183 44.5425 34.5671C44.5425 34.6159 44.5326 34.6642 44.5134 34.7091C44.4944 34.7526 44.4674 34.7921 44.4337 34.8256C44.3992 34.8586 44.3591 34.8853 44.3152 34.9042C44.2691 34.9237 44.2195 34.9337 44.1694 34.9334C44.1187 34.9337 44.0685 34.9238 44.0218 34.9042C43.9774 34.8857 43.9369 34.859 43.9023 34.8256C43.8687 34.7909 43.8421 34.75 43.8238 34.7053C43.8046 34.6604 43.7947 34.6121 43.7947 34.5633C43.7947 34.5145 43.8046 34.4662 43.8238 34.4213C43.8424 34.3776 43.8695 34.338 43.9035 34.3048C43.9375 34.2708 43.9782 34.2441 44.0229 34.2262C44.0696 34.2066 44.1198 34.1967 44.1705 34.1971L44.1694 34.2009ZM9.72168 32.8892C9.72168 32.2416 10.1469 31.7095 10.8418 31.7095C11.5059 31.7095 11.9541 32.2187 11.9541 32.8892C11.9541 33.5597 11.5059 34.0689 10.8418 34.0689C10.1469 34.0689 9.72168 33.5368 9.72168 32.8892ZM12.7111 32.8892V31.0462H11.9082V31.4952C11.6535 31.1634 11.2672 30.9553 10.7419 30.9553C9.70706 30.9553 8.89491 31.7652 8.89491 32.8901C8.89491 34.015 9.70661 34.8249 10.7419 34.8249C11.267 34.8249 11.6535 34.6166 11.9082 34.2851V34.7325H12.7102V32.8892H12.7111ZM39.8409 32.8892C39.8409 32.2416 40.2661 31.7095 40.9613 31.7095C41.6261 31.7095 42.0735 32.2187 42.0735 32.8892C42.0735 33.5597 41.6261 34.0689 40.9613 34.0689C40.2663 34.0689 39.8409 33.5368 39.8409 32.8892ZM42.8313 32.8892V29.5668H42.0277V31.4952C41.773 31.1634 41.3867 30.9553 40.8614 30.9553C39.8265 30.9553 39.0144 31.7652 39.0144 32.8901C39.0144 34.015 39.8261 34.8249 40.8614 34.8249C41.3867 34.8249 41.773 34.6166 42.0277 34.2851V34.7325H42.8313V32.8892ZM22.6765 31.6716C23.1939 31.6716 23.5262 31.9953 23.611 32.5653H21.6951C21.7809 32.0333 22.1046 31.6716 22.6767 31.6716H22.6765ZM22.6927 30.9533C21.6105 30.9533 20.8535 31.739 20.8535 32.8881C20.8535 34.0597 21.6409 34.8229 22.7464 34.8229C23.3026 34.8229 23.8119 34.6844 24.26 34.3066L23.8666 33.7128C23.557 33.9598 23.1629 34.0983 22.7923 34.0983C22.2749 34.0983 21.8038 33.8592 21.6879 33.1959H24.4297C24.4375 33.0962 24.4456 32.9956 24.4456 32.8879C24.4375 31.7392 23.7257 30.953 22.6922 30.953L22.6927 30.9533ZM32.3863 32.8879C32.3863 32.2402 32.8115 31.7082 33.5064 31.7082C34.1705 31.7082 34.6187 32.2173 34.6187 32.8879C34.6187 33.5584 34.1705 34.0675 33.5064 34.0675C32.8115 34.0675 32.386 33.5355 32.386 32.8879H32.3863ZM35.3755 32.8879V31.0462H34.573V31.4952C34.3174 31.1634 33.932 30.9553 33.4067 30.9553C32.3719 30.9553 31.5597 31.7652 31.5597 32.8901C31.5597 34.015 32.3714 34.8249 33.4067 34.8249C33.932 34.8249 34.3174 34.6166 34.573 34.2851V34.7325H35.3757V32.8892L35.3755 32.8879ZM27.8519 32.8879C27.8519 34.0056 28.6317 34.8227 29.8218 34.8227C30.3779 34.8227 30.7485 34.6992 31.1491 34.3834L30.7635 33.7357C30.4621 33.9519 30.1455 34.0675 29.7962 34.0675C29.1552 34.0597 28.6839 33.5972 28.6839 32.8879C28.6839 32.1785 29.1552 31.7163 29.7962 31.7082C30.1446 31.7082 30.4612 31.8238 30.7635 32.04L31.1491 31.3923C30.7478 31.0765 30.3773 30.953 29.8218 30.953C28.6317 30.953 27.8519 31.7699 27.8519 32.8879ZM38.2029 30.953C37.7397 30.953 37.438 31.1692 37.2295 31.4929V31.0462H36.4337V34.7304H37.2375V32.6652C37.2375 32.0555 37.5001 31.7167 38.025 31.7167C38.1968 31.7143 38.3675 31.7458 38.5271 31.8094L38.7746 31.0543C38.5968 30.9845 38.3651 30.9537 38.2025 30.9537L38.2029 30.953ZM16.6807 31.3391C16.2945 31.085 15.7622 30.9537 15.175 30.9537C14.2396 30.9537 13.6373 31.4011 13.6373 32.1331C13.6373 32.7339 14.0857 33.1045 14.9113 33.2201L15.2906 33.274C15.7309 33.3357 15.9388 33.4513 15.9388 33.6594C15.9388 33.9443 15.6463 34.1068 15.0972 34.1068C14.541 34.1068 14.1397 33.9295 13.869 33.7214L13.4918 34.3461C13.932 34.6698 14.4882 34.8243 15.0904 34.8243C16.1568 34.8243 16.7748 34.3232 16.7748 33.6217C16.7748 32.9741 16.2884 32.6353 15.4848 32.5197L15.1064 32.4649C14.7588 32.42 14.4803 32.3502 14.4803 32.1033C14.4803 31.8339 14.7428 31.6718 15.1833 31.6718C15.6546 31.6718 16.1109 31.8492 16.3345 31.9877L16.6821 31.34L16.6807 31.3391ZM27.0409 30.9544C26.5777 30.9544 26.276 31.1706 26.0684 31.4943V31.0462H25.2726V34.7304H26.0756V32.6652C26.0756 32.0555 26.3381 31.7167 26.863 31.7167C27.0348 31.7143 27.2055 31.7458 27.3651 31.8094L27.6126 31.0543C27.4348 30.9845 27.2031 30.9537 27.0405 30.9537L27.0409 30.9544ZM20.1892 31.0462H18.8762V29.9285H18.0645V31.0462H17.3156V31.7785H18.0645V33.4592C18.0645 34.314 18.397 34.8231 19.3469 34.8231C19.6954 34.8231 20.0967 34.7154 20.3514 34.5383L20.1194 33.8523C19.8798 33.9908 19.6173 34.0606 19.4085 34.0606C19.0072 34.0606 18.8762 33.8136 18.8762 33.4439V31.7791H20.1892V31.0462ZM8.1849 34.7313V32.4191C8.1849 31.5484 7.62877 30.9625 6.73225 30.9546C6.26094 30.9467 5.77477 31.0931 5.43439 31.6101C5.17972 31.2015 4.77837 30.9546 4.21414 30.9546C3.81977 30.9546 3.43439 31.0702 3.1327 31.5017V31.0462H2.3291V34.7304H3.139V32.6876C3.139 32.0481 3.49446 31.7082 4.04339 31.7082C4.57657 31.7082 4.84631 32.055 4.84631 32.6795V34.73H5.65801V32.6872C5.65801 32.0476 6.02854 31.7077 6.5615 31.7077C7.10976 31.7077 7.3714 32.0546 7.3714 32.6791V34.7295L8.1849 34.7313Z" fill="white"/>
<path d="M44.5654 22.4759V21.9371H44.4248L44.2622 22.3069L44.1004 21.9371H43.9594V22.4759H44.0592V22.07L44.2113 22.4202H44.3148L44.4669 22.0691V22.4759H44.5659H44.5654ZM43.6734 22.4759V22.0294H43.8534V21.9385H43.3936V22.0294H43.5735V22.4759H43.6725H43.6734Z" fill="#F79410"/>
<path d="M28.5838 24.7865H16.416V2.96655H28.5841L28.5838 24.7865Z" fill="#FF5F00"/>
<path d="M17.1879 13.8769C17.1879 9.45071 19.2648 5.50785 22.499 2.96691C20.0509 1.04071 17.0229 -0.00470352 13.9053 -0.000106977C6.22542 -0.000106977 0 6.21274 0 13.8769C0 21.541 6.22542 27.7539 13.9053 27.7539C17.023 27.7585 20.051 26.7131 22.4992 24.7868C19.2652 22.2463 17.1879 18.3033 17.1879 13.8769Z" fill="#EB001B"/>
<path d="M45.0003 13.877C45.0003 21.5411 38.7749 27.754 31.0951 27.754C27.977 27.7585 24.9486 26.7132 22.5 24.787C25.7351 22.246 27.812 18.3034 27.812 13.877C27.812 9.45061 25.7351 5.50798 22.5 2.96703C24.9486 1.04089 27.9769 -0.00450088 31.0948 1.45667e-05C38.7747 1.45667e-05 45.0001 6.21286 45.0001 13.877" fill="#F79E1B"/>
</svg>
