<svg width="51" height="35" viewBox="0 0 51 35" fill="none" xmlns="http://www.w3.org/2000/svg">
<path d="M25.745 4.18304C24.0296 4.1858 22.3847 4.86633 21.1687 6.07638C19.9527 7.28644 19.2641 8.92799 19.2529 10.6434V23.7863C19.3206 25.4614 20.0336 27.0454 21.2427 28.2067C22.4518 29.3679 24.0633 30.0165 25.7398 30.0165C27.4162 30.0165 29.0277 29.3679 30.2368 28.2067C31.4459 27.0454 32.159 25.4614 32.2266 23.7863V10.6434C32.2182 8.92896 31.532 7.28739 30.3177 6.07704C29.1033 4.86668 27.4596 4.18582 25.745 4.18304Z" fill="url(#paint0_linear_18_831)"/>
<path d="M25.7441 3.24211C27.5449 3.24616 29.2824 3.9066 30.6313 5.09972C31.9801 6.29285 32.8477 7.93681 33.0715 9.72365H40.0606V0.20752H11.417V9.72365H18.4061C18.6301 7.935 19.4992 6.2896 20.8503 5.09624C22.2013 3.90287 23.9414 3.24359 25.7441 3.24211Z" fill="url(#paint1_linear_18_831)"/>
<path d="M40.9707 9.75532H50.6349V5.0607C50.6349 3.79597 50.1325 2.58305 49.2382 1.68875C48.3439 0.794459 47.1309 0.292053 45.8662 0.292053H40.9707V9.75532Z" fill="url(#paint2_linear_18_831)"/>
<path d="M25.7441 31.1772C23.9414 31.1757 22.2013 30.5165 20.8503 29.3231C19.4992 28.1297 18.6301 26.4843 18.4061 24.6957H11.417V34.1484H40.0606V24.6957H33.0715C32.8477 26.4825 31.9801 28.1265 30.6313 29.3196C29.2824 30.5127 27.5449 31.1732 25.7441 31.1772Z" fill="url(#paint3_linear_18_831)"/>
<path d="M50.6349 10.6541H33.1357V10.6647V23.7758V23.7864H50.6349V10.6541Z" fill="url(#paint4_linear_18_831)"/>
<path d="M10.5091 24.6957H0.855481V29.3797C0.854086 30.0064 0.97648 30.6271 1.21563 31.2063C1.45479 31.7854 1.80599 32.3117 2.24907 32.7548C2.69216 33.1979 3.21841 33.5491 3.79759 33.7882C4.37678 34.0274 4.99751 34.1498 5.62412 34.1484H10.5091V24.6957Z" fill="url(#paint5_linear_18_831)"/>
<path d="M40.9707 24.6957V34.1484H45.8662C47.1309 34.1484 48.3439 33.646 49.2382 32.7517C50.1325 31.8574 50.6349 30.6445 50.6349 29.3797V24.6957H40.9707Z" fill="url(#paint6_linear_18_831)"/>
<path d="M0.855469 23.7864H18.3546V23.7758V10.6647V10.6541H0.855469V23.7864Z" fill="url(#paint7_linear_18_831)"/>
<path d="M10.5091 9.75534V0.239209H5.62412C4.99751 0.237815 4.37678 0.360204 3.79759 0.599357C3.21841 0.838509 2.69216 1.18972 2.24907 1.6328C1.80599 2.07589 1.45479 2.60213 1.21563 3.18131C0.97648 3.7605 0.854086 4.38123 0.855481 5.00784V9.70247L10.5091 9.75534Z" fill="url(#paint8_linear_18_831)"/>
<defs>
<linearGradient id="paint0_linear_18_831" x1="1.79611" y1="32.2768" x2="54.9913" y2="-1.16714" gradientUnits="userSpaceOnUse">
<stop stop-color="#FADF14"/>
<stop offset="0.5" stop-color="#FFB42E"/>
<stop offset="1" stop-color="#E66712"/>
</linearGradient>
<linearGradient id="paint1_linear_18_831" x1="-3.70309" y1="23.5326" x2="49.4921" y2="-9.9113" gradientUnits="userSpaceOnUse">
<stop stop-color="#FADF14"/>
<stop offset="0.5" stop-color="#FFB42E"/>
<stop offset="1" stop-color="#E66712"/>
</linearGradient>
<linearGradient id="paint2_linear_18_831" x1="1.98628" y1="32.5729" x2="55.1709" y2="-0.871007" gradientUnits="userSpaceOnUse">
<stop stop-color="#FADF14"/>
<stop offset="0.5" stop-color="#FFB42E"/>
<stop offset="1" stop-color="#E66712"/>
</linearGradient>
<linearGradient id="paint3_linear_18_831" x1="7.29333" y1="41.0211" x2="60.4885" y2="7.57722" gradientUnits="userSpaceOnUse">
<stop stop-color="#FADF14"/>
<stop offset="0.5" stop-color="#FFB42E"/>
<stop offset="1" stop-color="#E66712"/>
</linearGradient>
<linearGradient id="paint4_linear_18_831" x1="6.37424" y1="39.5514" x2="59.5589" y2="6.10748" gradientUnits="userSpaceOnUse">
<stop stop-color="#FADF14"/>
<stop offset="0.5" stop-color="#FFB42E"/>
<stop offset="1" stop-color="#E66712"/>
</linearGradient>
<linearGradient id="paint5_linear_18_831" x1="1.61677" y1="31.9808" x2="54.8014" y2="-1.46312" gradientUnits="userSpaceOnUse">
<stop stop-color="#FADF14"/>
<stop offset="0.5" stop-color="#FFB42E"/>
<stop offset="1" stop-color="#E66712"/>
</linearGradient>
<linearGradient id="paint6_linear_18_831" x1="12.5069" y1="49.3002" x2="65.6915" y2="15.8563" gradientUnits="userSpaceOnUse">
<stop stop-color="#FADF14"/>
<stop offset="0.5" stop-color="#FFB42E"/>
<stop offset="1" stop-color="#E66712"/>
</linearGradient>
<linearGradient id="paint7_linear_18_831" x1="-2.77124" y1="25.0023" x2="50.4134" y2="-8.44161" gradientUnits="userSpaceOnUse">
<stop stop-color="#FADF14"/>
<stop offset="0.5" stop-color="#FFB42E"/>
<stop offset="1" stop-color="#E66712"/>
</linearGradient>
<linearGradient id="paint8_linear_18_831" x1="-8.90384" y1="15.2641" x2="44.2914" y2="-18.1904" gradientUnits="userSpaceOnUse">
<stop stop-color="#FADF14"/>
<stop offset="0.5" stop-color="#FFB42E"/>
<stop offset="1" stop-color="#E66712"/>
</linearGradient>
</defs>
</svg>
