<svg width="20" height="20" viewBox="0 0 20 20" fill="none" xmlns="http://www.w3.org/2000/svg">
<circle cx="10" cy="10" r="10" fill="#333333" fill-opacity="0.6"/>
<path d="M10.0007 8.59995C9.36421 8.59995 8.75376 8.85281 8.30367 9.3029C7.85358 9.75298 7.60073 10.3634 7.60073 11C7.60073 11.6365 7.85358 12.2469 8.30367 12.697C8.75376 13.1471 9.36421 13.4 10.0007 13.4C10.6372 13.4 11.2477 13.1471 11.6978 12.697C12.1479 12.2469 12.4007 11.6365 12.4007 11C12.4007 10.3634 12.1479 9.75298 11.6978 9.3029C11.2477 8.85281 10.6372 8.59995 10.0007 8.59995ZM8.20073 11C8.20073 10.5226 8.39037 10.0647 8.72793 9.72716C9.0655 9.38959 9.52334 9.19995 10.0007 9.19995C10.4781 9.19995 10.936 9.38959 11.2735 9.72716C11.6111 10.0647 11.8007 10.5226 11.8007 11C11.8007 11.4773 11.6111 11.9352 11.2735 12.2727C10.936 12.6103 10.4781 12.8 10.0007 12.8C9.52334 12.8 9.0655 12.6103 8.72793 12.2727C8.39037 11.9352 8.20073 11.4773 8.20073 11ZM8.87513 6.19995C8.70835 6.19996 8.54486 6.2463 8.40289 6.33381C8.26092 6.42132 8.14606 6.54656 8.07113 6.69555L7.71712 7.39995H6.70313C6.3053 7.39995 5.92377 7.55799 5.64246 7.83929C5.36116 8.1206 5.20312 8.50213 5.20312 8.89995V13.7C5.20312 14.0978 5.36116 14.4793 5.64246 14.7606C5.92377 15.0419 6.3053 15.2 6.70313 15.2H13.3031C13.7009 15.2 14.0825 15.0419 14.3638 14.7606C14.6451 14.4793 14.8031 14.0978 14.8031 13.7V8.89995C14.8031 8.50213 14.6451 8.1206 14.3638 7.83929C14.0825 7.55799 13.7009 7.39995 13.3031 7.39995H12.2891L11.9387 6.69795C11.864 6.54833 11.7491 6.42248 11.6069 6.33452C11.4647 6.24655 11.3008 6.19996 11.1335 6.19995H8.87513ZM8.60693 6.96495C8.63195 6.9153 8.67028 6.87357 8.71764 6.84443C8.765 6.8153 8.81952 6.7999 8.87513 6.79995H11.1335C11.1893 6.79984 11.244 6.81528 11.2915 6.84453C11.339 6.87378 11.3773 6.91569 11.4023 6.96555L11.8361 7.83375C11.8611 7.88352 11.8994 7.92537 11.9467 7.95461C11.9941 7.98386 12.0487 7.99935 12.1043 7.99935H13.3037C13.5424 7.99935 13.7713 8.09417 13.9401 8.26296C14.1089 8.43174 14.2037 8.66066 14.2037 8.89935V13.7C14.2037 13.9386 14.1089 14.1676 13.9401 14.3363C13.7713 14.5051 13.5424 14.6 13.3037 14.6H6.70373C6.46503 14.6 6.23611 14.5051 6.06733 14.3363C5.89855 14.1676 5.80373 13.9386 5.80373 13.7V8.89995C5.80373 8.66126 5.89855 8.43234 6.06733 8.26356C6.23611 8.09477 6.46503 7.99995 6.70373 7.99995H7.90252C7.95809 7.99984 8.01253 7.9843 8.05978 7.95506C8.10703 7.92582 8.14523 7.88403 8.17013 7.83435L8.60693 6.96495Z" fill="white"/>
</svg>
