<svg width="40" height="59" viewBox="0 0 40 59" fill="none" xmlns="http://www.w3.org/2000/svg">
<path fill-rule="evenodd" clip-rule="evenodd" d="M33.7169 16.3433L21.0732 3.71904L19.3356 5.45442L19.3351 5.45388L17.597 3.71904L15.6722 5.64064L16.0133 5.98179L16.6697 6.63706L17.4103 7.37547L16.0133 8.77026L15.2727 8.03185L14.6164 7.37547L14.2752 7.03542L12.3817 8.92571L12.4746 9.01855L14.2439 10.7858L13.2821 11.7466L20.2322 18.6859C21.5244 19.976 21.5244 22.081 20.2322 23.3711L13.8866 29.7071L14.8496 30.6678L13.0802 32.4339L12.9873 32.5268L14.8809 34.4171L15.222 34.077L15.8784 33.4208L16.6189 32.6823L18.0159 34.077L17.2753 34.8155L16.6189 35.4717L16.2778 35.8119L18.2016 37.7335L19.9407 35.9986L21.6788 37.7335L33.7169 25.7137C34.9933 24.44 35.6396 22.7689 35.6557 21.0929V20.9641C35.6396 19.2881 34.9933 17.6171 33.7169 16.3433ZM17.0065 41.4537L18.4034 40.0589L17.0065 38.664L15.6096 40.0589L17.0065 41.4537ZM19.9407 35.9986L21.8645 34.077L19.9407 32.1554L18.0159 34.077L19.9407 35.9986ZM17.4103 7.37547L19.3351 9.29708L21.2599 7.37547L19.3356 5.45442L19.3351 5.45496L17.4103 7.37547ZM14.4609 39.8883L13.5617 40.7864L12.6613 39.8883L13.5617 38.989L14.4609 39.8883ZM10.1773 37.5014L9.495 38.1837L8.81164 37.5014L9.495 36.819L10.1773 37.5014ZM11.2946 39.5784L10.4418 40.4301L9.58784 39.5784L10.4418 38.7255L11.2946 39.5784ZM7.78715 38.1524L7.1513 38.7881L6.51437 38.1524L7.1513 37.5165L7.78715 38.1524ZM5.48987 37.4085L5.22646 37.6719L4.96305 37.4085L5.22646 37.1451L5.48987 37.4085ZM7.47732 36.2621L7.08868 36.6497V36.6486L6.70112 36.2621L7.08868 35.8745L7.47732 36.2621ZM9.54141 34.4171L8.9671 34.9915L8.39279 34.4171L8.9671 33.8438L9.54141 34.4171ZM11.0938 35.719L10.4731 36.3388L9.85124 35.719L10.4731 35.0995L11.0938 35.719ZM13.2972 31.1947L12.2889 32.2018L11.2795 31.1947L12.2889 30.1875L13.2972 31.1947ZM11.7297 33.1001L11.0463 33.7823L10.364 33.1001L11.0463 32.4188L11.7297 33.1001ZM13.8402 34.7432L12.7077 35.8745L11.5742 34.7432L12.7077 33.6117L13.8402 34.7432ZM12.8783 37.6094L11.9164 38.5713L10.9535 37.6094L11.9164 36.6486L12.8783 37.6094ZM14.5235 36.8041L13.716 37.6094L12.9096 36.8041L13.716 35.9986L14.5235 36.8041ZM16.5563 35.0843L15.548 36.0915L14.5387 35.0843L15.548 34.077L16.5563 35.0843ZM17.2861 38.0747L15.9518 39.4079L14.6164 38.0747L15.9518 36.7425L17.2861 38.0747ZM17.9846 38.4308L18.8849 37.5327L19.7853 38.4308L18.8849 39.3301L17.9846 38.4308ZM13.8564 1.56427L12.956 0.666084L12.0557 1.56427L12.956 2.46353L13.8564 1.56427ZM9.57273 3.95115L8.88937 3.26995L8.20601 3.95115L8.88937 4.63343L9.57273 3.95115ZM10.6901 1.8741L9.83613 1.02233L8.98221 1.8741L9.83613 2.72695L10.6901 1.8741ZM7.1826 3.30019L6.54567 2.66541L5.90981 3.30019L6.54567 3.93604L7.1826 3.30019ZM4.88532 4.04399L4.62083 3.78058L4.35742 4.04399L4.62083 4.30741L4.88532 4.04399ZM6.87169 5.19048L6.48413 4.804L6.09549 5.19048L6.48413 5.57804L6.87169 5.19048ZM8.93578 7.03542L8.36147 6.46218L7.78715 7.03434L8.36147 7.60866L8.93578 7.03542ZM10.4882 5.73349L9.86743 5.11275L9.24669 5.73349L9.86743 6.35314L10.4882 5.73349ZM12.6926 10.2579L11.6833 9.25066L10.6739 10.2579L11.6833 11.2651L12.6926 10.2579ZM11.1251 8.35248L10.4418 7.6702L9.75841 8.35248L10.4418 9.03366L11.1251 8.35248ZM13.2356 6.7094L12.1021 5.57804L10.9697 6.7094L12.1021 7.84076L13.2356 6.7094ZM12.2727 3.8432L11.3108 2.88241L10.3489 3.8432L11.3108 4.804L12.2727 3.8432ZM13.9179 4.64854L13.1115 3.8432L12.304 4.64854L13.1115 5.45388L13.9179 4.64854ZM15.9518 6.36935L14.9424 5.36104L13.9341 6.36935L14.9424 7.37547L15.9518 6.36935ZM16.6805 3.37791L15.3461 2.04467L14.0118 3.37791L15.3461 4.71008L16.6805 3.37791ZM17.7989 1.3937L16.402 0L15.005 1.3937L16.402 2.78955L17.7989 1.3937ZM19.1796 3.02165L18.2793 2.1224L17.3789 3.02165L18.2793 3.91985L19.1796 3.02165Z" fill="url(#paint0_linear_18_443)"/>
<path d="M3.03137 55.2737L0 46.7236H2.21523L4.33548 53.2398L6.4557 46.7236H8.67093L5.63956 55.2737H3.03137Z" fill="#CE0B9F"/>
<path fill-rule="evenodd" clip-rule="evenodd" d="M12.2517 55.3602C11.2607 55.3602 10.4488 55.0428 9.81621 54.4058C9.18252 53.7668 8.86621 52.9193 8.86621 51.8624C8.86621 50.8067 9.17928 49.9657 9.80758 49.3406C10.438 48.7166 11.252 48.4036 12.2517 48.4036C13.2503 48.4036 14.0783 48.7134 14.7346 49.332C15.3932 49.9484 15.7235 50.8045 15.7235 51.9013C15.7235 52.1345 15.7073 52.3536 15.676 52.5577H10.9994C11.0393 52.8578 11.1732 53.1039 11.401 53.2961C11.6277 53.4861 11.8728 53.5811 12.1351 53.5811C12.3996 53.5811 12.5971 53.5552 12.7267 53.5034C12.8562 53.4494 12.9512 53.3954 13.0117 53.3436C13.0743 53.2918 13.1542 53.2043 13.2492 53.0802H15.5033C15.31 53.7625 14.9203 54.3141 14.333 54.734C13.7479 55.1518 13.0549 55.3602 12.2517 55.3602ZM13.5558 51.2536C13.5234 50.9373 13.3852 50.6793 13.1412 50.4806C12.8962 50.282 12.6069 50.1827 12.2733 50.1827C11.9418 50.1827 11.6622 50.282 11.4355 50.4806C11.2078 50.6793 11.0653 50.9373 11.008 51.2536H13.5558Z" fill="#CE0B9F"/>
<path fill-rule="evenodd" clip-rule="evenodd" d="M21.3639 53.1233C21.663 52.8362 21.813 52.4238 21.813 51.8883C21.813 51.3529 21.663 50.9384 21.3639 50.6447C21.0638 50.3511 20.7184 50.2043 20.3276 50.2043C19.9389 50.2043 19.5935 50.35 19.2912 50.6404C18.9911 50.9286 18.8421 51.3399 18.8421 51.8754C18.8421 52.4108 18.9911 52.8254 19.2912 53.119C19.5935 53.4105 19.9389 53.5552 20.3276 53.5552C20.7184 53.5552 21.0638 53.4116 21.3639 53.1233ZM18.8421 49.3665C19.3052 48.7253 19.9692 48.4036 20.8328 48.4036C21.6986 48.4036 22.4316 48.7307 23.0308 49.3838C23.6321 50.038 23.9333 50.8725 23.9333 51.8883C23.9333 52.902 23.6321 53.7344 23.0308 54.3843C22.4316 55.0352 21.7051 55.3602 20.8501 55.3602C19.9972 55.3602 19.3279 55.0018 18.8421 54.2849V58.5125H16.7607V48.477H18.8421V49.3665Z" fill="#CE0B9F"/>
<path fill-rule="evenodd" clip-rule="evenodd" d="M29.0958 53.119C29.398 52.8254 29.5492 52.4108 29.5492 51.8754C29.5492 51.3399 29.398 50.9286 29.0958 50.6404C28.7956 50.35 28.4523 50.2043 28.0637 50.2043C27.6751 50.2043 27.3296 50.3511 27.0273 50.6447C26.7272 50.9384 26.5782 51.3529 26.5782 51.8883C26.5782 52.4238 26.7272 52.8362 27.0273 53.1233C27.3296 53.4116 27.6751 53.5552 28.0637 53.5552C28.4523 53.5552 28.7956 53.4105 29.0958 53.119ZM25.3562 54.3843C24.757 53.7344 24.458 52.902 24.458 51.8883C24.458 50.8725 24.757 50.038 25.3562 49.3838C25.9575 48.7307 26.6905 48.4036 27.5542 48.4036C28.42 48.4036 29.085 48.7253 29.5492 49.3665V48.477H31.6305V55.2738H29.5492V54.2849C29.045 55.0018 28.3703 55.3602 27.5239 55.3602C26.6797 55.3602 25.9575 55.0352 25.3562 54.3843Z" fill="#CE0B9F"/>
<path d="M34.9308 55.1398L32.2881 48.4768H34.6545L36.1615 52.9245L37.8197 48.4768H40.0004L35.6649 58.5123H33.4842L34.9308 55.1398Z" fill="#CE0B9F"/>
<defs>
<linearGradient id="paint0_linear_18_443" x1="4.10032" y1="18.3362" x2="35.9737" y2="18.7818" gradientUnits="userSpaceOnUse">
<stop stop-color="#94B348"/>
<stop offset="0.00390625" stop-color="#92B24A"/>
<stop offset="0.0078125" stop-color="#90B04B"/>
<stop offset="0.0117188" stop-color="#8EAF4D"/>
<stop offset="0.015625" stop-color="#8CAD4E"/>
<stop offset="0.0195312" stop-color="#8AAC4F"/>
<stop offset="0.0234375" stop-color="#88AA51"/>
<stop offset="0.0273438" stop-color="#86A952"/>
<stop offset="0.03125" stop-color="#84A754"/>
<stop offset="0.0351563" stop-color="#82A655"/>
<stop offset="0.0390625" stop-color="#7FA456"/>
<stop offset="0.0429687" stop-color="#7DA358"/>
<stop offset="0.046875" stop-color="#7BA159"/>
<stop offset="0.0507813" stop-color="#79A05B"/>
<stop offset="0.0546875" stop-color="#779F5C"/>
<stop offset="0.0585938" stop-color="#759D5E"/>
<stop offset="0.0625" stop-color="#739C5F"/>
<stop offset="0.0664062" stop-color="#719A60"/>
<stop offset="0.0703125" stop-color="#6F9962"/>
<stop offset="0.0742187" stop-color="#6D9763"/>
<stop offset="0.078125" stop-color="#6B9665"/>
<stop offset="0.0820313" stop-color="#699466"/>
<stop offset="0.0859375" stop-color="#679367"/>
<stop offset="0.0898438" stop-color="#649169"/>
<stop offset="0.09375" stop-color="#62906A"/>
<stop offset="0.0976563" stop-color="#608E6C"/>
<stop offset="0.101563" stop-color="#5E8D6D"/>
<stop offset="0.105469" stop-color="#5C8B6E"/>
<stop offset="0.109375" stop-color="#5A8A70"/>
<stop offset="0.113281" stop-color="#588871"/>
<stop offset="0.117188" stop-color="#568773"/>
<stop offset="0.121094" stop-color="#548574"/>
<stop offset="0.125" stop-color="#528475"/>
<stop offset="0.128906" stop-color="#508377"/>
<stop offset="0.132812" stop-color="#4E8178"/>
<stop offset="0.136719" stop-color="#4C807A"/>
<stop offset="0.140625" stop-color="#497E7B"/>
<stop offset="0.144531" stop-color="#477D7D"/>
<stop offset="0.148437" stop-color="#457B7E"/>
<stop offset="0.152344" stop-color="#437A7F"/>
<stop offset="0.15625" stop-color="#417881"/>
<stop offset="0.160156" stop-color="#3F7782"/>
<stop offset="0.164063" stop-color="#3D7584"/>
<stop offset="0.167969" stop-color="#3B7485"/>
<stop offset="0.171875" stop-color="#397286"/>
<stop offset="0.175781" stop-color="#377188"/>
<stop offset="0.179687" stop-color="#356F89"/>
<stop offset="0.183594" stop-color="#336E8B"/>
<stop offset="0.1875" stop-color="#316C8C"/>
<stop offset="0.191406" stop-color="#2E6B8D"/>
<stop offset="0.195312" stop-color="#2C698F"/>
<stop offset="0.199219" stop-color="#2A6890"/>
<stop offset="0.203125" stop-color="#286792"/>
<stop offset="0.207031" stop-color="#266593"/>
<stop offset="0.210938" stop-color="#246494"/>
<stop offset="0.214844" stop-color="#226296"/>
<stop offset="0.21875" stop-color="#206197"/>
<stop offset="0.222656" stop-color="#1E5F99"/>
<stop offset="0.226562" stop-color="#1C5E9A"/>
<stop offset="0.230469" stop-color="#1A5C9B"/>
<stop offset="0.234375" stop-color="#185B9D"/>
<stop offset="0.238281" stop-color="#16599E"/>
<stop offset="0.242187" stop-color="#1358A0"/>
<stop offset="0.246094" stop-color="#1156A1"/>
<stop offset="0.25" stop-color="#0F55A3"/>
<stop offset="0.253906" stop-color="#0D53A4"/>
<stop offset="0.257813" stop-color="#0B52A5"/>
<stop offset="0.261719" stop-color="#0950A7"/>
<stop offset="0.265625" stop-color="#074FA8"/>
<stop offset="0.269531" stop-color="#054DAA"/>
<stop offset="0.273438" stop-color="#034CAB"/>
<stop offset="0.277344" stop-color="#024BAC"/>
<stop offset="0.28125" stop-color="#014AAD"/>
<stop offset="0.285156" stop-color="#0249AD"/>
<stop offset="0.289062" stop-color="#0349AD"/>
<stop offset="0.292969" stop-color="#0449AD"/>
<stop offset="0.296875" stop-color="#0548AD"/>
<stop offset="0.300781" stop-color="#0648AC"/>
<stop offset="0.304688" stop-color="#0748AC"/>
<stop offset="0.308594" stop-color="#0947AC"/>
<stop offset="0.3125" stop-color="#0A47AC"/>
<stop offset="0.316406" stop-color="#0B47AC"/>
<stop offset="0.320312" stop-color="#0C46AC"/>
<stop offset="0.324219" stop-color="#0D46AC"/>
<stop offset="0.328125" stop-color="#0E46AC"/>
<stop offset="0.332031" stop-color="#0F45AC"/>
<stop offset="0.335937" stop-color="#1045AC"/>
<stop offset="0.339844" stop-color="#1145AC"/>
<stop offset="0.34375" stop-color="#1344AC"/>
<stop offset="0.347656" stop-color="#1444AC"/>
<stop offset="0.351563" stop-color="#1544AB"/>
<stop offset="0.355469" stop-color="#1643AB"/>
<stop offset="0.359375" stop-color="#1743AB"/>
<stop offset="0.363281" stop-color="#1843AB"/>
<stop offset="0.367188" stop-color="#1942AB"/>
<stop offset="0.371094" stop-color="#1A42AB"/>
<stop offset="0.375" stop-color="#1C42AB"/>
<stop offset="0.378906" stop-color="#1D41AB"/>
<stop offset="0.382812" stop-color="#1E41AB"/>
<stop offset="0.386719" stop-color="#1F40AB"/>
<stop offset="0.390625" stop-color="#2040AB"/>
<stop offset="0.394531" stop-color="#2140AB"/>
<stop offset="0.398437" stop-color="#223FAB"/>
<stop offset="0.402344" stop-color="#233FAB"/>
<stop offset="0.40625" stop-color="#253FAA"/>
<stop offset="0.410156" stop-color="#263EAA"/>
<stop offset="0.414062" stop-color="#273EAA"/>
<stop offset="0.417969" stop-color="#283EAA"/>
<stop offset="0.421875" stop-color="#293DAA"/>
<stop offset="0.425781" stop-color="#2A3DAA"/>
<stop offset="0.429688" stop-color="#2B3DAA"/>
<stop offset="0.433594" stop-color="#2C3CAA"/>
<stop offset="0.4375" stop-color="#2D3CAA"/>
<stop offset="0.441406" stop-color="#2F3CAA"/>
<stop offset="0.445312" stop-color="#303BAA"/>
<stop offset="0.449219" stop-color="#313BAA"/>
<stop offset="0.453125" stop-color="#323BAA"/>
<stop offset="0.457031" stop-color="#333AA9"/>
<stop offset="0.460938" stop-color="#343AA9"/>
<stop offset="0.464844" stop-color="#353AA9"/>
<stop offset="0.46875" stop-color="#3639A9"/>
<stop offset="0.472656" stop-color="#3839A9"/>
<stop offset="0.476562" stop-color="#3939A9"/>
<stop offset="0.480469" stop-color="#3A38A9"/>
<stop offset="0.484375" stop-color="#3B38A9"/>
<stop offset="0.488281" stop-color="#3C38A9"/>
<stop offset="0.492187" stop-color="#3D37A9"/>
<stop offset="0.496094" stop-color="#3E37A9"/>
<stop offset="0.5" stop-color="#3F37A9"/>
<stop offset="0.503906" stop-color="#4036A9"/>
<stop offset="0.507812" stop-color="#4236A9"/>
<stop offset="0.511719" stop-color="#4336A8"/>
<stop offset="0.515625" stop-color="#4435A8"/>
<stop offset="0.519531" stop-color="#4535A8"/>
<stop offset="0.523437" stop-color="#4635A8"/>
<stop offset="0.527344" stop-color="#4734A8"/>
<stop offset="0.53125" stop-color="#4834A8"/>
<stop offset="0.535156" stop-color="#4934A8"/>
<stop offset="0.539062" stop-color="#4B33A8"/>
<stop offset="0.542969" stop-color="#4C33A8"/>
<stop offset="0.546875" stop-color="#4D32A8"/>
<stop offset="0.550781" stop-color="#4E32A8"/>
<stop offset="0.554687" stop-color="#4F32A8"/>
<stop offset="0.558594" stop-color="#5031A8"/>
<stop offset="0.5625" stop-color="#5131A7"/>
<stop offset="0.566406" stop-color="#5231A7"/>
<stop offset="0.570312" stop-color="#5330A7"/>
<stop offset="0.574219" stop-color="#5530A7"/>
<stop offset="0.578125" stop-color="#5630A7"/>
<stop offset="0.582031" stop-color="#572FA7"/>
<stop offset="0.585938" stop-color="#582FA7"/>
<stop offset="0.589844" stop-color="#592FA7"/>
<stop offset="0.59375" stop-color="#5A2EA7"/>
<stop offset="0.597656" stop-color="#5B2EA7"/>
<stop offset="0.601562" stop-color="#5C2EA7"/>
<stop offset="0.605469" stop-color="#5E2DA7"/>
<stop offset="0.609375" stop-color="#5F2DA7"/>
<stop offset="0.613281" stop-color="#602DA6"/>
<stop offset="0.617187" stop-color="#612CA6"/>
<stop offset="0.621094" stop-color="#622CA6"/>
<stop offset="0.625" stop-color="#632CA6"/>
<stop offset="0.628906" stop-color="#642BA6"/>
<stop offset="0.632812" stop-color="#652BA6"/>
<stop offset="0.636719" stop-color="#672BA6"/>
<stop offset="0.640625" stop-color="#682AA6"/>
<stop offset="0.644531" stop-color="#692AA6"/>
<stop offset="0.648438" stop-color="#6A2AA6"/>
<stop offset="0.652344" stop-color="#6B29A6"/>
<stop offset="0.65625" stop-color="#6C29A6"/>
<stop offset="0.660156" stop-color="#6D29A6"/>
<stop offset="0.664062" stop-color="#6E28A6"/>
<stop offset="0.667969" stop-color="#6F28A5"/>
<stop offset="0.671875" stop-color="#7128A5"/>
<stop offset="0.675781" stop-color="#7227A5"/>
<stop offset="0.679688" stop-color="#7327A5"/>
<stop offset="0.683594" stop-color="#7427A5"/>
<stop offset="0.6875" stop-color="#7526A5"/>
<stop offset="0.691406" stop-color="#7626A5"/>
<stop offset="0.695312" stop-color="#7725A5"/>
<stop offset="0.699219" stop-color="#7825A5"/>
<stop offset="0.703125" stop-color="#7A25A5"/>
<stop offset="0.707031" stop-color="#7B24A5"/>
<stop offset="0.710937" stop-color="#7C24A5"/>
<stop offset="0.714844" stop-color="#7D24A5"/>
<stop offset="0.71875" stop-color="#7E23A4"/>
<stop offset="0.722656" stop-color="#7F23A4"/>
<stop offset="0.726562" stop-color="#8023A4"/>
<stop offset="0.730469" stop-color="#8122A4"/>
<stop offset="0.734375" stop-color="#8222A4"/>
<stop offset="0.738281" stop-color="#8422A4"/>
<stop offset="0.742188" stop-color="#8521A4"/>
<stop offset="0.746094" stop-color="#8621A4"/>
<stop offset="0.75" stop-color="#8721A4"/>
<stop offset="0.753906" stop-color="#8820A4"/>
<stop offset="0.757812" stop-color="#8920A4"/>
<stop offset="0.761719" stop-color="#8A20A4"/>
<stop offset="0.765625" stop-color="#8B1FA4"/>
<stop offset="0.769531" stop-color="#8D1FA3"/>
<stop offset="0.773438" stop-color="#8E1FA3"/>
<stop offset="0.777344" stop-color="#8F1EA3"/>
<stop offset="0.78125" stop-color="#901EA3"/>
<stop offset="0.785156" stop-color="#911EA3"/>
<stop offset="0.789062" stop-color="#921DA3"/>
<stop offset="0.792969" stop-color="#931DA3"/>
<stop offset="0.796875" stop-color="#941DA3"/>
<stop offset="0.800781" stop-color="#951CA3"/>
<stop offset="0.804688" stop-color="#971CA3"/>
<stop offset="0.808594" stop-color="#981CA3"/>
<stop offset="0.8125" stop-color="#991BA3"/>
<stop offset="0.816406" stop-color="#9A1BA3"/>
<stop offset="0.820312" stop-color="#9B1BA3"/>
<stop offset="0.824219" stop-color="#9C1AA2"/>
<stop offset="0.828125" stop-color="#9D1AA2"/>
<stop offset="0.832031" stop-color="#9E1AA2"/>
<stop offset="0.835938" stop-color="#A019A2"/>
<stop offset="0.839844" stop-color="#A119A2"/>
<stop offset="0.84375" stop-color="#A218A2"/>
<stop offset="0.847656" stop-color="#A318A2"/>
<stop offset="0.851562" stop-color="#A418A2"/>
<stop offset="0.855469" stop-color="#A517A2"/>
<stop offset="0.859375" stop-color="#A617A2"/>
<stop offset="0.863281" stop-color="#A717A2"/>
<stop offset="0.867188" stop-color="#A816A2"/>
<stop offset="0.871094" stop-color="#AA16A2"/>
<stop offset="0.875" stop-color="#AB16A1"/>
<stop offset="0.878906" stop-color="#AC15A1"/>
<stop offset="0.882812" stop-color="#AD15A1"/>
<stop offset="0.886719" stop-color="#AE15A1"/>
<stop offset="0.890625" stop-color="#AF14A1"/>
<stop offset="0.894531" stop-color="#B014A1"/>
<stop offset="0.898438" stop-color="#B114A1"/>
<stop offset="0.902344" stop-color="#B313A1"/>
<stop offset="0.90625" stop-color="#B413A1"/>
<stop offset="0.910156" stop-color="#B513A1"/>
<stop offset="0.914062" stop-color="#B612A1"/>
<stop offset="0.917969" stop-color="#B712A1"/>
<stop offset="0.921875" stop-color="#B812A1"/>
<stop offset="0.925781" stop-color="#B911A1"/>
<stop offset="0.929688" stop-color="#BA11A0"/>
<stop offset="0.933594" stop-color="#BC11A0"/>
<stop offset="0.9375" stop-color="#BD10A0"/>
<stop offset="0.941406" stop-color="#BE10A0"/>
<stop offset="0.945312" stop-color="#BF10A0"/>
<stop offset="0.949219" stop-color="#C00FA0"/>
<stop offset="0.953125" stop-color="#C10FA0"/>
<stop offset="0.957031" stop-color="#C20FA0"/>
<stop offset="0.960938" stop-color="#C30EA0"/>
<stop offset="0.964844" stop-color="#C40EA0"/>
<stop offset="0.96875" stop-color="#C60EA0"/>
<stop offset="0.972656" stop-color="#C70DA0"/>
<stop offset="0.976563" stop-color="#C80DA0"/>
<stop offset="0.980469" stop-color="#C90D9F"/>
<stop offset="0.984375" stop-color="#CA0C9F"/>
<stop offset="0.988281" stop-color="#CB0C9F"/>
<stop offset="0.992188" stop-color="#CC0B9F"/>
<stop offset="0.996094" stop-color="#CD0B9F"/>
<stop offset="1" stop-color="#CE0B9F"/>
</linearGradient>
</defs>
</svg>
