<svg width="20" height="20" viewBox="0 0 20 20" fill="none" xmlns="http://www.w3.org/2000/svg">
<circle cx="10" cy="10" r="10" fill="#333333" fill-opacity="0.6"/>
<path d="M10.0002 8.59995C9.36372 8.59995 8.75327 8.85281 8.30318 9.3029C7.85309 9.75298 7.60024 10.3634 7.60024 11C7.60024 11.6365 7.85309 12.2469 8.30318 12.697C8.75327 13.1471 9.36372 13.4 10.0002 13.4C10.6368 13.4 11.2472 13.1471 11.6973 12.697C12.1474 12.2469 12.4002 11.6365 12.4002 11C12.4002 10.3634 12.1474 9.75298 11.6973 9.3029C11.2472 8.85281 10.6368 8.59995 10.0002 8.59995ZM8.20024 11C8.20024 10.5226 8.38988 10.0647 8.72744 9.72716C9.06501 9.38959 9.52285 9.19995 10.0002 9.19995C10.4776 9.19995 10.9355 9.38959 11.273 9.72716C11.6106 10.0647 11.8002 10.5226 11.8002 11C11.8002 11.4773 11.6106 11.9352 11.273 12.2727C10.9355 12.6103 10.4776 12.8 10.0002 12.8C9.52285 12.8 9.06501 12.6103 8.72744 12.2727C8.38988 11.9352 8.20024 11.4773 8.20024 11ZM8.87464 6.19995C8.70786 6.19996 8.54437 6.2463 8.4024 6.33381C8.26043 6.42132 8.14557 6.54656 8.07064 6.69555L7.71664 7.39995H6.70264C6.30481 7.39995 5.92328 7.55799 5.64198 7.83929C5.36067 8.1206 5.20264 8.50213 5.20264 8.89995V13.7C5.20264 14.0978 5.36067 14.4793 5.64198 14.7606C5.92328 15.0419 6.30481 15.2 6.70264 15.2H13.3026C13.7005 15.2 14.082 15.0419 14.3633 14.7606C14.6446 14.4793 14.8026 14.0978 14.8026 13.7V8.89995C14.8026 8.50213 14.6446 8.1206 14.3633 7.83929C14.082 7.55799 13.7005 7.39995 13.3026 7.39995H12.2886L11.9382 6.69795C11.8635 6.54833 11.7486 6.42248 11.6064 6.33452C11.4642 6.24655 11.3003 6.19996 11.133 6.19995H8.87464ZM8.60644 6.96495C8.63146 6.9153 8.66979 6.87357 8.71715 6.84443C8.76451 6.8153 8.81903 6.7999 8.87464 6.79995H11.133C11.1888 6.79984 11.2435 6.81528 11.291 6.84453C11.3385 6.87378 11.3769 6.91569 11.4018 6.96555L11.8356 7.83375C11.8606 7.88352 11.8989 7.92537 11.9462 7.95461C11.9936 7.98386 12.0482 7.99935 12.1038 7.99935H13.3032C13.5419 7.99935 13.7709 8.09417 13.9396 8.26296C14.1084 8.43174 14.2032 8.66066 14.2032 8.89935V13.7C14.2032 13.9386 14.1084 14.1676 13.9396 14.3363C13.7709 14.5051 13.5419 14.6 13.3032 14.6H6.70324C6.46454 14.6 6.23562 14.5051 6.06684 14.3363C5.89806 14.1676 5.80324 13.9386 5.80324 13.7V8.89995C5.80324 8.66126 5.89806 8.43234 6.06684 8.26356C6.23562 8.09477 6.46454 7.99995 6.70324 7.99995H7.90204C7.9576 7.99984 8.01204 7.9843 8.05929 7.95506C8.10654 7.92582 8.14474 7.88403 8.16964 7.83435L8.60644 6.96495Z" fill="white"/>
</svg>
